<?xml version="1.0" encoding="UTF-8" standalone="no"?>
<!DOCTYPE svg PUBLIC "-//W3C//DTD SVG 1.1//EN"
 "http://www.w3.org/Graphics/SVG/1.1/DTD/svg11.dtd">
<!-- Generated by graphviz version 12.2.1 (20241206.2353)
 -->
<!-- Pages: 1 -->
<svg width="220pt" height="399pt"
 viewBox="0.00 0.00 219.98 399.20" xmlns="http://www.w3.org/2000/svg" xmlns:xlink="http://www.w3.org/1999/xlink">
<g id="graph0" class="graph" transform="scale(1 1) rotate(0) translate(4 395.2)">
<polygon fill="white" stroke="none" points="-4,4 -4,-395.2 215.98,-395.2 215.98,4 -4,4"/>
<!-- ∅ -->
<g id="node1" class="node">
<title>∅</title>
<ellipse fill="lightgray" stroke="black" cx="106.99" cy="-363.27" rx="27.93" ry="27.93"/>
<text text-anchor="middle" x="106.99" y="-365.72" font-family="Times,serif" font-size="14.00">∅</text>
<text text-anchor="middle" x="106.99" y="-350.72" font-family="Times,serif" font-size="14.00">100</text>
</g>
<!-- A -->
<g id="node2" class="node">
<title>A</title>
<ellipse fill="lightgray" stroke="black" cx="30.99" cy="-253.85" rx="28.99" ry="28.99"/>
<text text-anchor="middle" x="30.99" y="-257.05" font-family="Times,serif" font-size="14.00">A</text>
<text text-anchor="middle" x="30.99" y="-240.55" font-family="Times,serif" font-size="14.00">80</text>
</g>
<!-- ∅&#45;&gt;A -->
<g id="edge1" class="edge">
<title>∅&#45;&gt;A</title>
<path fill="none" stroke="black" d="M91.06,-339.75C80.26,-324.49 65.83,-304.08 53.81,-287.1"/>
<polygon fill="black" stroke="black" points="56.93,-285.46 48.3,-279.31 51.22,-289.5 56.93,-285.46"/>
<text text-anchor="middle" x="82.54" y="-304.04" font-family="Times,serif" font-size="14.00">&#45;20</text>
</g>
<!-- B -->
<g id="node3" class="node">
<title>B</title>
<ellipse fill="lightgray" stroke="black" cx="182.99" cy="-253.85" rx="28.99" ry="28.99"/>
<text text-anchor="middle" x="182.99" y="-257.05" font-family="Times,serif" font-size="14.00">B</text>
<text text-anchor="middle" x="182.99" y="-240.55" font-family="Times,serif" font-size="14.00">50</text>
</g>
<!-- ∅&#45;&gt;B -->
<g id="edge2" class="edge">
<title>∅&#45;&gt;B</title>
<path fill="none" stroke="black" d="M122.92,-339.75C133.72,-324.49 148.16,-304.08 160.17,-287.1"/>
<polygon fill="black" stroke="black" points="162.76,-289.5 165.68,-279.31 157.05,-285.46 162.76,-289.5"/>
<text text-anchor="middle" x="158.54" y="-304.04" font-family="Times,serif" font-size="14.00">&#45;50</text>
</g>
<!-- C -->
<g id="node4" class="node">
<title>C</title>
<ellipse fill="lightgray" stroke="black" cx="106.99" cy="-253.85" rx="28.99" ry="28.99"/>
<text text-anchor="middle" x="106.99" y="-257.05" font-family="Times,serif" font-size="14.00">C</text>
<text text-anchor="middle" x="106.99" y="-240.55" font-family="Times,serif" font-size="14.00">130</text>
</g>
<!-- ∅&#45;&gt;C -->
<g id="edge3" class="edge">
<title>∅&#45;&gt;C</title>
<path fill="none" stroke="black" d="M106.99,-334.88C106.99,-322.67 106.99,-308.05 106.99,-294.66"/>
<polygon fill="black" stroke="black" points="110.49,-294.82 106.99,-284.82 103.49,-294.82 110.49,-294.82"/>
<text text-anchor="middle" x="117.87" y="-304.04" font-family="Times,serif" font-size="14.00">+30</text>
</g>
<!-- AB -->
<g id="node5" class="node">
<title>AB</title>
<ellipse fill="lightgray" stroke="black" cx="104.99" cy="-143.36" rx="28.99" ry="28.99"/>
<text text-anchor="middle" x="104.99" y="-146.56" font-family="Times,serif" font-size="14.00">AB</text>
<text text-anchor="middle" x="104.99" y="-130.06" font-family="Times,serif" font-size="14.00">40</text>
</g>
<!-- A&#45;&gt;AB -->
<g id="edge4" class="edge">
<title>A&#45;&gt;AB</title>
<path fill="none" stroke="black" d="M34.19,-224.82C36.46,-213.44 40.35,-200.6 46.99,-190.35 48.98,-187.3 60.59,-177.92 72.92,-168.42"/>
<polygon fill="black" stroke="black" points="74.86,-171.34 80.68,-162.49 70.61,-165.77 74.86,-171.34"/>
<text text-anchor="middle" x="55.99" y="-193.55" font-family="Times,serif" font-size="14.00">&#45;40</text>
</g>
<!-- AC -->
<g id="node6" class="node">
<title>AC</title>
<ellipse fill="lightgray" stroke="black" cx="28.99" cy="-143.36" rx="28.99" ry="28.99"/>
<text text-anchor="middle" x="28.99" y="-146.56" font-family="Times,serif" font-size="14.00">AC</text>
<text text-anchor="middle" x="28.99" y="-130.06" font-family="Times,serif" font-size="14.00">90</text>
</g>
<!-- A&#45;&gt;AC -->
<g id="edge5" class="edge">
<title>A&#45;&gt;AC</title>
<path fill="none" stroke="black" d="M13.65,-230.66C9.01,-223.46 4.63,-215.18 2.24,-206.85 -0.65,-196.77 1.69,-186.16 5.98,-176.6"/>
<polygon fill="black" stroke="black" points="8.92,-178.53 10.52,-168.05 2.74,-175.24 8.92,-178.53"/>
<text text-anchor="middle" x="13.12" y="-193.55" font-family="Times,serif" font-size="14.00">+10</text>
</g>
<!-- B&#45;&gt;AB -->
<g id="edge6" class="edge">
<title>B&#45;&gt;AB</title>
<path fill="none" stroke="black" d="M169.99,-227.43C163.62,-215.77 155.49,-201.98 146.99,-190.35 142.72,-184.51 137.81,-178.58 132.89,-173.01"/>
<polygon fill="black" stroke="black" points="135.58,-170.76 126.25,-165.72 130.4,-175.47 135.58,-170.76"/>
<text text-anchor="middle" x="167" y="-193.55" font-family="Times,serif" font-size="14.00">&#45;10</text>
</g>
<!-- BC -->
<g id="node7" class="node">
<title>BC</title>
<ellipse fill="lightgray" stroke="black" cx="180.99" cy="-143.36" rx="28.99" ry="28.99"/>
<text text-anchor="middle" x="180.99" y="-146.56" font-family="Times,serif" font-size="14.00">BC</text>
<text text-anchor="middle" x="180.99" y="-130.06" font-family="Times,serif" font-size="14.00">80</text>
</g>
<!-- B&#45;&gt;BC -->
<g id="edge7" class="edge">
<title>B&#45;&gt;BC</title>
<path fill="none" stroke="black" d="M187.09,-224.85C188.18,-214.07 188.85,-201.64 187.99,-190.35 187.82,-188.03 187.59,-185.64 187.33,-183.23"/>
<polygon fill="black" stroke="black" points="190.83,-182.99 186.08,-173.51 183.88,-183.88 190.83,-182.99"/>
<text text-anchor="middle" x="199.25" y="-193.55" font-family="Times,serif" font-size="14.00">+30</text>
</g>
<!-- C&#45;&gt;AC -->
<g id="edge8" class="edge">
<title>C&#45;&gt;AC</title>
<path fill="none" stroke="black" d="M91.44,-228.83C83.68,-217.09 74.05,-202.84 64.99,-190.35 61.42,-185.43 57.54,-180.29 53.7,-175.3"/>
<polygon fill="black" stroke="black" points="56.74,-173.5 47.83,-167.77 51.21,-177.81 56.74,-173.5"/>
<text text-anchor="middle" x="84.72" y="-193.55" font-family="Times,serif" font-size="14.00">&#45;40</text>
</g>
<!-- C&#45;&gt;BC -->
<g id="edge9" class="edge">
<title>C&#45;&gt;BC</title>
<path fill="none" stroke="black" d="M113.4,-225.29C116.87,-213.86 121.93,-200.85 128.99,-190.35 134.46,-182.23 141.69,-174.64 149.02,-168.05"/>
<polygon fill="black" stroke="black" points="151.04,-170.92 156.41,-161.79 146.52,-165.58 151.04,-170.92"/>
<text text-anchor="middle" x="137.99" y="-193.55" font-family="Times,serif" font-size="14.00">&#45;50</text>
</g>
<!-- ABC -->
<g id="node8" class="node">
<title>ABC</title>
<ellipse fill="lightgray" stroke="black" cx="104.99" cy="-30.94" rx="30.94" ry="30.94"/>
<text text-anchor="middle" x="104.99" y="-34.14" font-family="Times,serif" font-size="14.00">ABC</text>
<text text-anchor="middle" x="104.99" y="-17.64" font-family="Times,serif" font-size="14.00">90</text>
</g>
<!-- AB&#45;&gt;ABC -->
<g id="edge10" class="edge">
<title>AB&#45;&gt;ABC</title>
<path fill="none" stroke="black" d="M104.99,-113.93C104.99,-101.67 104.99,-87.09 104.99,-73.64"/>
<polygon fill="black" stroke="black" points="108.49,-73.72 104.99,-63.72 101.49,-73.72 108.49,-73.72"/>
<text text-anchor="middle" x="115.87" y="-83.07" font-family="Times,serif" font-size="14.00">+50</text>
</g>
<!-- AC&#45;&gt;ABC -->
<g id="edge11" class="edge">
<title>AC&#45;&gt;ABC</title>
<path fill="none" stroke="black" d="M45.11,-118.94C55.7,-103.56 69.72,-83.18 81.54,-66.01"/>
<polygon fill="black" stroke="black" points="84.2,-68.32 86.98,-58.1 78.43,-64.36 84.2,-68.32"/>
<text text-anchor="middle" x="74.92" y="-83.07" font-family="Times,serif" font-size="14.00">0</text>
</g>
<!-- BC&#45;&gt;ABC -->
<g id="edge12" class="edge">
<title>BC&#45;&gt;ABC</title>
<path fill="none" stroke="black" d="M164.87,-118.94C154.29,-103.56 140.26,-83.18 128.44,-66.01"/>
<polygon fill="black" stroke="black" points="131.55,-64.36 123,-58.1 125.79,-68.32 131.55,-64.36"/>
<text text-anchor="middle" x="158.42" y="-83.07" font-family="Times,serif" font-size="14.00">+10</text>
</g>
</g>
</svg>
