<?xml version="1.0" encoding="UTF-8" standalone="no"?>
<!DOCTYPE svg PUBLIC "-//W3C//DTD SVG 1.1//EN"
 "http://www.w3.org/Graphics/SVG/1.1/DTD/svg11.dtd">
<!-- Generated by graphviz version 12.2.1 (20241206.2353)
 -->
<!-- Pages: 1 -->
<svg width="234pt" height="399pt"
 viewBox="0.00 0.00 234.12 399.20" xmlns="http://www.w3.org/2000/svg" xmlns:xlink="http://www.w3.org/1999/xlink">
<g id="graph0" class="graph" transform="scale(1 1) rotate(0) translate(4 395.2)">
<polygon fill="white" stroke="none" points="-4,4 -4,-395.2 230.12,-395.2 230.12,4 -4,4"/>
<!-- ∅ -->
<g id="node1" class="node">
<title>∅</title>
<ellipse fill="lightgray" stroke="black" cx="112.7" cy="-363.27" rx="27.93" ry="27.93"/>
<text text-anchor="middle" x="112.7" y="-365.72" font-family="Times,serif" font-size="14.00">∅</text>
<text text-anchor="middle" x="112.7" y="-350.72" font-family="Times,serif" font-size="14.00">100</text>
</g>
<!-- A -->
<g id="node2" class="node">
<title>A</title>
<ellipse fill="lightgray" stroke="black" cx="36.7" cy="-253.85" rx="28.99" ry="28.99"/>
<text text-anchor="middle" x="36.7" y="-257.05" font-family="Times,serif" font-size="14.00">A</text>
<text text-anchor="middle" x="36.7" y="-240.55" font-family="Times,serif" font-size="14.00">150</text>
</g>
<!-- ∅&#45;&gt;A -->
<g id="edge1" class="edge">
<title>∅&#45;&gt;A</title>
<path fill="none" stroke="black" d="M96.77,-339.75C85.97,-324.49 71.53,-304.08 59.52,-287.1"/>
<polygon fill="black" stroke="black" points="62.64,-285.46 54.01,-279.31 56.93,-289.5 62.64,-285.46"/>
<text text-anchor="middle" x="90.12" y="-304.04" font-family="Times,serif" font-size="14.00">+50</text>
</g>
<!-- B -->
<g id="node3" class="node">
<title>B</title>
<ellipse fill="lightgray" stroke="black" cx="188.7" cy="-253.85" rx="28.99" ry="28.99"/>
<text text-anchor="middle" x="188.7" y="-257.05" font-family="Times,serif" font-size="14.00">B</text>
<text text-anchor="middle" x="188.7" y="-240.55" font-family="Times,serif" font-size="14.00">140</text>
</g>
<!-- ∅&#45;&gt;B -->
<g id="edge2" class="edge">
<title>∅&#45;&gt;B</title>
<path fill="none" stroke="black" d="M128.63,-339.75C139.43,-324.49 153.86,-304.08 165.88,-287.1"/>
<polygon fill="black" stroke="black" points="168.47,-289.5 171.39,-279.31 162.76,-285.46 168.47,-289.5"/>
<text text-anchor="middle" x="166.12" y="-304.04" font-family="Times,serif" font-size="14.00">+40</text>
</g>
<!-- C -->
<g id="node4" class="node">
<title>C</title>
<ellipse fill="lightgray" stroke="black" cx="112.7" cy="-253.85" rx="28.99" ry="28.99"/>
<text text-anchor="middle" x="112.7" y="-257.05" font-family="Times,serif" font-size="14.00">C</text>
<text text-anchor="middle" x="112.7" y="-240.55" font-family="Times,serif" font-size="14.00">160</text>
</g>
<!-- ∅&#45;&gt;C -->
<g id="edge3" class="edge">
<title>∅&#45;&gt;C</title>
<path fill="none" stroke="black" d="M112.7,-334.88C112.7,-322.67 112.7,-308.05 112.7,-294.66"/>
<polygon fill="black" stroke="black" points="116.2,-294.82 112.7,-284.82 109.2,-294.82 116.2,-294.82"/>
<text text-anchor="middle" x="123.57" y="-304.04" font-family="Times,serif" font-size="14.00">+60</text>
</g>
<!-- AB -->
<g id="node5" class="node">
<title>AB</title>
<ellipse fill="lightgray" stroke="black" cx="112.7" cy="-143.36" rx="28.99" ry="28.99"/>
<text text-anchor="middle" x="112.7" y="-146.56" font-family="Times,serif" font-size="14.00">AB</text>
<text text-anchor="middle" x="112.7" y="-130.06" font-family="Times,serif" font-size="14.00">180</text>
</g>
<!-- A&#45;&gt;AB -->
<g id="edge4" class="edge">
<title>A&#45;&gt;AB</title>
<path fill="none" stroke="black" d="M36.47,-224.62C37.56,-213.2 40.39,-200.39 46.95,-190.35 54.99,-178.05 62.61,-180.72 74.7,-172.35 76.72,-170.95 78.8,-169.5 80.88,-168.01"/>
<polygon fill="black" stroke="black" points="82.67,-171.04 88.72,-162.35 78.57,-165.37 82.67,-171.04"/>
<text text-anchor="middle" x="57.82" y="-193.55" font-family="Times,serif" font-size="14.00">+30</text>
</g>
<!-- AC -->
<g id="node6" class="node">
<title>AC</title>
<ellipse fill="lightgray" stroke="black" cx="36.7" cy="-143.36" rx="28.99" ry="28.99"/>
<text text-anchor="middle" x="36.7" y="-146.56" font-family="Times,serif" font-size="14.00">AC</text>
<text text-anchor="middle" x="36.7" y="-130.06" font-family="Times,serif" font-size="14.00">190</text>
</g>
<!-- A&#45;&gt;AC -->
<g id="edge5" class="edge">
<title>A&#45;&gt;AC</title>
<path fill="none" stroke="black" d="M16.89,-232.54C10.89,-225.07 5.07,-216.15 1.95,-206.85 -1.95,-195.23 2.33,-183.27 9.06,-172.97"/>
<polygon fill="black" stroke="black" points="11.66,-175.34 14.86,-165.24 6.06,-171.14 11.66,-175.34"/>
<text text-anchor="middle" x="12.82" y="-193.55" font-family="Times,serif" font-size="14.00">+40</text>
</g>
<!-- B&#45;&gt;AB -->
<g id="edge6" class="edge">
<title>B&#45;&gt;AB</title>
<path fill="none" stroke="black" d="M178.43,-226.52C173.33,-214.93 166.56,-201.45 158.7,-190.35 153.94,-183.64 148.16,-177.02 142.33,-170.99"/>
<polygon fill="black" stroke="black" points="145.08,-168.79 135.52,-164.23 140.16,-173.76 145.08,-168.79"/>
<text text-anchor="middle" x="179.53" y="-193.55" font-family="Times,serif" font-size="14.00">+40</text>
</g>
<!-- BC -->
<g id="node7" class="node">
<title>BC</title>
<ellipse fill="lightgray" stroke="black" cx="188.7" cy="-143.36" rx="28.99" ry="28.99"/>
<text text-anchor="middle" x="188.7" y="-146.56" font-family="Times,serif" font-size="14.00">BC</text>
<text text-anchor="middle" x="188.7" y="-130.06" font-family="Times,serif" font-size="14.00">200</text>
</g>
<!-- B&#45;&gt;BC -->
<g id="edge7" class="edge">
<title>B&#45;&gt;BC</title>
<path fill="none" stroke="black" d="M199.75,-226.58C203.17,-215.48 205.61,-202.37 203.7,-190.35 203.25,-187.52 202.65,-184.63 201.96,-181.74"/>
<polygon fill="black" stroke="black" points="205.36,-180.91 199.29,-172.22 198.62,-182.8 205.36,-180.91"/>
<text text-anchor="middle" x="215.24" y="-193.55" font-family="Times,serif" font-size="14.00">+60</text>
</g>
<!-- C&#45;&gt;AC -->
<g id="edge8" class="edge">
<title>C&#45;&gt;AC</title>
<path fill="none" stroke="black" d="M96.4,-229.57C85.58,-214.13 71.23,-193.65 59.31,-176.64"/>
<polygon fill="black" stroke="black" points="62.45,-175.02 53.84,-168.84 56.72,-179.03 62.45,-175.02"/>
<text text-anchor="middle" x="90.12" y="-193.55" font-family="Times,serif" font-size="14.00">+30</text>
</g>
<!-- C&#45;&gt;BC -->
<g id="edge9" class="edge">
<title>C&#45;&gt;BC</title>
<path fill="none" stroke="black" d="M118.15,-224.86C121.25,-213.49 125.96,-200.63 132.95,-190.35 136.61,-184.96 146.49,-176.37 156.93,-168.07"/>
<polygon fill="black" stroke="black" points="158.77,-171.07 164.51,-162.16 154.47,-165.54 158.77,-171.07"/>
<text text-anchor="middle" x="143.82" y="-193.55" font-family="Times,serif" font-size="14.00">+40</text>
</g>
<!-- ABC -->
<g id="node8" class="node">
<title>ABC</title>
<ellipse fill="lightgray" stroke="black" cx="112.7" cy="-30.94" rx="30.94" ry="30.94"/>
<text text-anchor="middle" x="112.7" y="-34.14" font-family="Times,serif" font-size="14.00">ABC</text>
<text text-anchor="middle" x="112.7" y="-17.64" font-family="Times,serif" font-size="14.00">250</text>
</g>
<!-- AB&#45;&gt;ABC -->
<g id="edge10" class="edge">
<title>AB&#45;&gt;ABC</title>
<path fill="none" stroke="black" d="M112.7,-113.93C112.7,-101.67 112.7,-87.09 112.7,-73.64"/>
<polygon fill="black" stroke="black" points="116.2,-73.72 112.7,-63.72 109.2,-73.72 116.2,-73.72"/>
<text text-anchor="middle" x="123.57" y="-83.07" font-family="Times,serif" font-size="14.00">+70</text>
</g>
<!-- AC&#45;&gt;ABC -->
<g id="edge11" class="edge">
<title>AC&#45;&gt;ABC</title>
<path fill="none" stroke="black" d="M52.82,-118.94C63.4,-103.56 77.43,-83.18 89.25,-66.01"/>
<polygon fill="black" stroke="black" points="91.9,-68.32 94.69,-58.1 86.14,-64.36 91.9,-68.32"/>
<text text-anchor="middle" x="90.12" y="-83.07" font-family="Times,serif" font-size="14.00">+60</text>
</g>
<!-- BC&#45;&gt;ABC -->
<g id="edge12" class="edge">
<title>BC&#45;&gt;ABC</title>
<path fill="none" stroke="black" d="M172.58,-118.94C161.99,-103.56 147.97,-83.18 136.15,-66.01"/>
<polygon fill="black" stroke="black" points="139.26,-64.36 130.71,-58.1 133.49,-68.32 139.26,-64.36"/>
<text text-anchor="middle" x="166.12" y="-83.07" font-family="Times,serif" font-size="14.00">+50</text>
</g>
</g>
</svg>
