<?xml version="1.0" encoding="utf-8" standalone="no"?>
<!DOCTYPE svg PUBLIC "-//W3C//DTD SVG 1.1//EN"
  "http://www.w3.org/Graphics/SVG/1.1/DTD/svg11.dtd">
<svg xmlns:xlink="http://www.w3.org/1999/xlink" width="720pt" height="288pt" viewBox="0 0 720 288" xmlns="http://www.w3.org/2000/svg" version="1.1">
 <metadata>
  <rdf:RDF xmlns:dc="http://purl.org/dc/elements/1.1/" xmlns:cc="http://creativecommons.org/ns#" xmlns:rdf="http://www.w3.org/1999/02/22-rdf-syntax-ns#">
   <cc:Work>
    <dc:type rdf:resource="http://purl.org/dc/dcmitype/StillImage"/>
    <dc:date>2025-05-07T07:00:59.184265</dc:date>
    <dc:format>image/svg+xml</dc:format>
    <dc:creator>
     <cc:Agent>
      <dc:title>Matplotlib v3.10.0, https://matplotlib.org/</dc:title>
     </cc:Agent>
    </dc:creator>
   </cc:Work>
  </rdf:RDF>
 </metadata>
 <defs>
  <style type="text/css">*{stroke-linejoin: round; stroke-linecap: butt}</style>
 </defs>
 <g id="figure_1">
  <g id="patch_1">
   <path d="M 0 288 
L 720 288 
L 720 0 
L 0 0 
z
" style="fill: #ffffff"/>
  </g>
  <g id="axes_1">
   <g id="patch_2">
    <path d="M 90 256.32 
L 648 256.32 
L 648 34.56 
L 90 34.56 
z
" style="fill: #ffffff"/>
   </g>
   <g id="matplotlib.axis_1">
    <g id="xtick_1">
     <g id="line2d_1">
      <defs>
       <path id="m5d02dc5fe0" d="M 0 0 
L 0 3.5 
" style="stroke: #000000; stroke-width: 0.8"/>
      </defs>
      <g>
       <use xlink:href="#m5d02dc5fe0" x="115.363636" y="256.32" style="stroke: #000000; stroke-width: 0.8"/>
      </g>
     </g>
     <g id="text_1">
      <!-- 0 -->
      <g transform="translate(112.182386 270.918437) scale(0.1 -0.1)">
       <defs>
        <path id="DejaVuSans-30" d="M 2034 4250 
Q 1547 4250 1301 3770 
Q 1056 3291 1056 2328 
Q 1056 1369 1301 889 
Q 1547 409 2034 409 
Q 2525 409 2770 889 
Q 3016 1369 3016 2328 
Q 3016 3291 2770 3770 
Q 2525 4250 2034 4250 
z
M 2034 4750 
Q 2819 4750 3233 4129 
Q 3647 3509 3647 2328 
Q 3647 1150 3233 529 
Q 2819 -91 2034 -91 
Q 1250 -91 836 529 
Q 422 1150 422 2328 
Q 422 3509 836 4129 
Q 1250 4750 2034 4750 
z
" transform="scale(0.015625)"/>
       </defs>
       <use xlink:href="#DejaVuSans-30"/>
      </g>
     </g>
    </g>
    <g id="xtick_2">
     <g id="line2d_2">
      <g>
       <use xlink:href="#m5d02dc5fe0" x="228.341972" y="256.32" style="stroke: #000000; stroke-width: 0.8"/>
      </g>
     </g>
     <g id="text_2">
      <!-- 100 -->
      <g transform="translate(218.798222 270.918437) scale(0.1 -0.1)">
       <defs>
        <path id="DejaVuSans-31" d="M 794 531 
L 1825 531 
L 1825 4091 
L 703 3866 
L 703 4441 
L 1819 4666 
L 2450 4666 
L 2450 531 
L 3481 531 
L 3481 0 
L 794 0 
L 794 531 
z
" transform="scale(0.015625)"/>
       </defs>
       <use xlink:href="#DejaVuSans-31"/>
       <use xlink:href="#DejaVuSans-30" transform="translate(63.623047 0)"/>
       <use xlink:href="#DejaVuSans-30" transform="translate(127.246094 0)"/>
      </g>
     </g>
    </g>
    <g id="xtick_3">
     <g id="line2d_3">
      <g>
       <use xlink:href="#m5d02dc5fe0" x="341.320308" y="256.32" style="stroke: #000000; stroke-width: 0.8"/>
      </g>
     </g>
     <g id="text_3">
      <!-- 200 -->
      <g transform="translate(331.776558 270.918437) scale(0.1 -0.1)">
       <defs>
        <path id="DejaVuSans-32" d="M 1228 531 
L 3431 531 
L 3431 0 
L 469 0 
L 469 531 
Q 828 903 1448 1529 
Q 2069 2156 2228 2338 
Q 2531 2678 2651 2914 
Q 2772 3150 2772 3378 
Q 2772 3750 2511 3984 
Q 2250 4219 1831 4219 
Q 1534 4219 1204 4116 
Q 875 4013 500 3803 
L 500 4441 
Q 881 4594 1212 4672 
Q 1544 4750 1819 4750 
Q 2544 4750 2975 4387 
Q 3406 4025 3406 3419 
Q 3406 3131 3298 2873 
Q 3191 2616 2906 2266 
Q 2828 2175 2409 1742 
Q 1991 1309 1228 531 
z
" transform="scale(0.015625)"/>
       </defs>
       <use xlink:href="#DejaVuSans-32"/>
       <use xlink:href="#DejaVuSans-30" transform="translate(63.623047 0)"/>
       <use xlink:href="#DejaVuSans-30" transform="translate(127.246094 0)"/>
      </g>
     </g>
    </g>
    <g id="xtick_4">
     <g id="line2d_4">
      <g>
       <use xlink:href="#m5d02dc5fe0" x="454.298643" y="256.32" style="stroke: #000000; stroke-width: 0.8"/>
      </g>
     </g>
     <g id="text_4">
      <!-- 300 -->
      <g transform="translate(444.754893 270.918437) scale(0.1 -0.1)">
       <defs>
        <path id="DejaVuSans-33" d="M 2597 2516 
Q 3050 2419 3304 2112 
Q 3559 1806 3559 1356 
Q 3559 666 3084 287 
Q 2609 -91 1734 -91 
Q 1441 -91 1130 -33 
Q 819 25 488 141 
L 488 750 
Q 750 597 1062 519 
Q 1375 441 1716 441 
Q 2309 441 2620 675 
Q 2931 909 2931 1356 
Q 2931 1769 2642 2001 
Q 2353 2234 1838 2234 
L 1294 2234 
L 1294 2753 
L 1863 2753 
Q 2328 2753 2575 2939 
Q 2822 3125 2822 3475 
Q 2822 3834 2567 4026 
Q 2313 4219 1838 4219 
Q 1578 4219 1281 4162 
Q 984 4106 628 3988 
L 628 4550 
Q 988 4650 1302 4700 
Q 1616 4750 1894 4750 
Q 2613 4750 3031 4423 
Q 3450 4097 3450 3541 
Q 3450 3153 3228 2886 
Q 3006 2619 2597 2516 
z
" transform="scale(0.015625)"/>
       </defs>
       <use xlink:href="#DejaVuSans-33"/>
       <use xlink:href="#DejaVuSans-30" transform="translate(63.623047 0)"/>
       <use xlink:href="#DejaVuSans-30" transform="translate(127.246094 0)"/>
      </g>
     </g>
    </g>
    <g id="xtick_5">
     <g id="line2d_5">
      <g>
       <use xlink:href="#m5d02dc5fe0" x="567.276979" y="256.32" style="stroke: #000000; stroke-width: 0.8"/>
      </g>
     </g>
     <g id="text_5">
      <!-- 400 -->
      <g transform="translate(557.733229 270.918437) scale(0.1 -0.1)">
       <defs>
        <path id="DejaVuSans-34" d="M 2419 4116 
L 825 1625 
L 2419 1625 
L 2419 4116 
z
M 2253 4666 
L 3047 4666 
L 3047 1625 
L 3713 1625 
L 3713 1100 
L 3047 1100 
L 3047 0 
L 2419 0 
L 2419 1100 
L 313 1100 
L 313 1709 
L 2253 4666 
z
" transform="scale(0.015625)"/>
       </defs>
       <use xlink:href="#DejaVuSans-34"/>
       <use xlink:href="#DejaVuSans-30" transform="translate(63.623047 0)"/>
       <use xlink:href="#DejaVuSans-30" transform="translate(127.246094 0)"/>
      </g>
     </g>
    </g>
   </g>
   <g id="matplotlib.axis_2">
    <g id="ytick_1">
     <g id="line2d_6">
      <defs>
       <path id="mb490057c0d" d="M 0 0 
L -3.5 0 
" style="stroke: #000000; stroke-width: 0.8"/>
      </defs>
      <g>
       <use xlink:href="#mb490057c0d" x="90" y="244.688876" style="stroke: #000000; stroke-width: 0.8"/>
      </g>
     </g>
     <g id="text_6">
      <!-- −0.4 -->
      <g transform="translate(58.717187 248.488094) scale(0.1 -0.1)">
       <defs>
        <path id="DejaVuSans-2212" d="M 678 2272 
L 4684 2272 
L 4684 1741 
L 678 1741 
L 678 2272 
z
" transform="scale(0.015625)"/>
        <path id="DejaVuSans-2e" d="M 684 794 
L 1344 794 
L 1344 0 
L 684 0 
L 684 794 
z
" transform="scale(0.015625)"/>
       </defs>
       <use xlink:href="#DejaVuSans-2212"/>
       <use xlink:href="#DejaVuSans-30" transform="translate(83.789062 0)"/>
       <use xlink:href="#DejaVuSans-2e" transform="translate(147.412109 0)"/>
       <use xlink:href="#DejaVuSans-34" transform="translate(179.199219 0)"/>
      </g>
     </g>
    </g>
    <g id="ytick_2">
     <g id="line2d_7">
      <g>
       <use xlink:href="#mb490057c0d" x="90" y="216.265252" style="stroke: #000000; stroke-width: 0.8"/>
      </g>
     </g>
     <g id="text_7">
      <!-- −0.2 -->
      <g transform="translate(58.717187 220.064471) scale(0.1 -0.1)">
       <use xlink:href="#DejaVuSans-2212"/>
       <use xlink:href="#DejaVuSans-30" transform="translate(83.789062 0)"/>
       <use xlink:href="#DejaVuSans-2e" transform="translate(147.412109 0)"/>
       <use xlink:href="#DejaVuSans-32" transform="translate(179.199219 0)"/>
      </g>
     </g>
    </g>
    <g id="ytick_3">
     <g id="line2d_8">
      <g>
       <use xlink:href="#mb490057c0d" x="90" y="187.841629" style="stroke: #000000; stroke-width: 0.8"/>
      </g>
     </g>
     <g id="text_8">
      <!-- 0.0 -->
      <g transform="translate(67.096875 191.640848) scale(0.1 -0.1)">
       <use xlink:href="#DejaVuSans-30"/>
       <use xlink:href="#DejaVuSans-2e" transform="translate(63.623047 0)"/>
       <use xlink:href="#DejaVuSans-30" transform="translate(95.410156 0)"/>
      </g>
     </g>
    </g>
    <g id="ytick_4">
     <g id="line2d_9">
      <g>
       <use xlink:href="#mb490057c0d" x="90" y="159.418006" style="stroke: #000000; stroke-width: 0.8"/>
      </g>
     </g>
     <g id="text_9">
      <!-- 0.2 -->
      <g transform="translate(67.096875 163.217225) scale(0.1 -0.1)">
       <use xlink:href="#DejaVuSans-30"/>
       <use xlink:href="#DejaVuSans-2e" transform="translate(63.623047 0)"/>
       <use xlink:href="#DejaVuSans-32" transform="translate(95.410156 0)"/>
      </g>
     </g>
    </g>
    <g id="ytick_5">
     <g id="line2d_10">
      <g>
       <use xlink:href="#mb490057c0d" x="90" y="130.994383" style="stroke: #000000; stroke-width: 0.8"/>
      </g>
     </g>
     <g id="text_10">
      <!-- 0.4 -->
      <g transform="translate(67.096875 134.793601) scale(0.1 -0.1)">
       <use xlink:href="#DejaVuSans-30"/>
       <use xlink:href="#DejaVuSans-2e" transform="translate(63.623047 0)"/>
       <use xlink:href="#DejaVuSans-34" transform="translate(95.410156 0)"/>
      </g>
     </g>
    </g>
    <g id="ytick_6">
     <g id="line2d_11">
      <g>
       <use xlink:href="#mb490057c0d" x="90" y="102.570759" style="stroke: #000000; stroke-width: 0.8"/>
      </g>
     </g>
     <g id="text_11">
      <!-- 0.6 -->
      <g transform="translate(67.096875 106.369978) scale(0.1 -0.1)">
       <defs>
        <path id="DejaVuSans-36" d="M 2113 2584 
Q 1688 2584 1439 2293 
Q 1191 2003 1191 1497 
Q 1191 994 1439 701 
Q 1688 409 2113 409 
Q 2538 409 2786 701 
Q 3034 994 3034 1497 
Q 3034 2003 2786 2293 
Q 2538 2584 2113 2584 
z
M 3366 4563 
L 3366 3988 
Q 3128 4100 2886 4159 
Q 2644 4219 2406 4219 
Q 1781 4219 1451 3797 
Q 1122 3375 1075 2522 
Q 1259 2794 1537 2939 
Q 1816 3084 2150 3084 
Q 2853 3084 3261 2657 
Q 3669 2231 3669 1497 
Q 3669 778 3244 343 
Q 2819 -91 2113 -91 
Q 1303 -91 875 529 
Q 447 1150 447 2328 
Q 447 3434 972 4092 
Q 1497 4750 2381 4750 
Q 2619 4750 2861 4703 
Q 3103 4656 3366 4563 
z
" transform="scale(0.015625)"/>
       </defs>
       <use xlink:href="#DejaVuSans-30"/>
       <use xlink:href="#DejaVuSans-2e" transform="translate(63.623047 0)"/>
       <use xlink:href="#DejaVuSans-36" transform="translate(95.410156 0)"/>
      </g>
     </g>
    </g>
    <g id="ytick_7">
     <g id="line2d_12">
      <g>
       <use xlink:href="#mb490057c0d" x="90" y="74.147136" style="stroke: #000000; stroke-width: 0.8"/>
      </g>
     </g>
     <g id="text_12">
      <!-- 0.8 -->
      <g transform="translate(67.096875 77.946355) scale(0.1 -0.1)">
       <defs>
        <path id="DejaVuSans-38" d="M 2034 2216 
Q 1584 2216 1326 1975 
Q 1069 1734 1069 1313 
Q 1069 891 1326 650 
Q 1584 409 2034 409 
Q 2484 409 2743 651 
Q 3003 894 3003 1313 
Q 3003 1734 2745 1975 
Q 2488 2216 2034 2216 
z
M 1403 2484 
Q 997 2584 770 2862 
Q 544 3141 544 3541 
Q 544 4100 942 4425 
Q 1341 4750 2034 4750 
Q 2731 4750 3128 4425 
Q 3525 4100 3525 3541 
Q 3525 3141 3298 2862 
Q 3072 2584 2669 2484 
Q 3125 2378 3379 2068 
Q 3634 1759 3634 1313 
Q 3634 634 3220 271 
Q 2806 -91 2034 -91 
Q 1263 -91 848 271 
Q 434 634 434 1313 
Q 434 1759 690 2068 
Q 947 2378 1403 2484 
z
M 1172 3481 
Q 1172 3119 1398 2916 
Q 1625 2713 2034 2713 
Q 2441 2713 2670 2916 
Q 2900 3119 2900 3481 
Q 2900 3844 2670 4047 
Q 2441 4250 2034 4250 
Q 1625 4250 1398 4047 
Q 1172 3844 1172 3481 
z
" transform="scale(0.015625)"/>
       </defs>
       <use xlink:href="#DejaVuSans-30"/>
       <use xlink:href="#DejaVuSans-2e" transform="translate(63.623047 0)"/>
       <use xlink:href="#DejaVuSans-38" transform="translate(95.410156 0)"/>
      </g>
     </g>
    </g>
    <g id="ytick_8">
     <g id="line2d_13">
      <g>
       <use xlink:href="#mb490057c0d" x="90" y="45.723513" style="stroke: #000000; stroke-width: 0.8"/>
      </g>
     </g>
     <g id="text_13">
      <!-- 1.0 -->
      <g transform="translate(67.096875 49.522732) scale(0.1 -0.1)">
       <use xlink:href="#DejaVuSans-31"/>
       <use xlink:href="#DejaVuSans-2e" transform="translate(63.623047 0)"/>
       <use xlink:href="#DejaVuSans-30" transform="translate(95.410156 0)"/>
      </g>
     </g>
    </g>
    <g id="text_14">
     <!-- Amplituda -->
     <g transform="translate(52.6375 171.050156) rotate(-90) scale(0.1 -0.1)">
      <defs>
       <path id="DejaVuSans-41" d="M 2188 4044 
L 1331 1722 
L 3047 1722 
L 2188 4044 
z
M 1831 4666 
L 2547 4666 
L 4325 0 
L 3669 0 
L 3244 1197 
L 1141 1197 
L 716 0 
L 50 0 
L 1831 4666 
z
" transform="scale(0.015625)"/>
       <path id="DejaVuSans-6d" d="M 3328 2828 
Q 3544 3216 3844 3400 
Q 4144 3584 4550 3584 
Q 5097 3584 5394 3201 
Q 5691 2819 5691 2113 
L 5691 0 
L 5113 0 
L 5113 2094 
Q 5113 2597 4934 2840 
Q 4756 3084 4391 3084 
Q 3944 3084 3684 2787 
Q 3425 2491 3425 1978 
L 3425 0 
L 2847 0 
L 2847 2094 
Q 2847 2600 2669 2842 
Q 2491 3084 2119 3084 
Q 1678 3084 1418 2786 
Q 1159 2488 1159 1978 
L 1159 0 
L 581 0 
L 581 3500 
L 1159 3500 
L 1159 2956 
Q 1356 3278 1631 3431 
Q 1906 3584 2284 3584 
Q 2666 3584 2933 3390 
Q 3200 3197 3328 2828 
z
" transform="scale(0.015625)"/>
       <path id="DejaVuSans-70" d="M 1159 525 
L 1159 -1331 
L 581 -1331 
L 581 3500 
L 1159 3500 
L 1159 2969 
Q 1341 3281 1617 3432 
Q 1894 3584 2278 3584 
Q 2916 3584 3314 3078 
Q 3713 2572 3713 1747 
Q 3713 922 3314 415 
Q 2916 -91 2278 -91 
Q 1894 -91 1617 61 
Q 1341 213 1159 525 
z
M 3116 1747 
Q 3116 2381 2855 2742 
Q 2594 3103 2138 3103 
Q 1681 3103 1420 2742 
Q 1159 2381 1159 1747 
Q 1159 1113 1420 752 
Q 1681 391 2138 391 
Q 2594 391 2855 752 
Q 3116 1113 3116 1747 
z
" transform="scale(0.015625)"/>
       <path id="DejaVuSans-6c" d="M 603 4863 
L 1178 4863 
L 1178 0 
L 603 0 
L 603 4863 
z
" transform="scale(0.015625)"/>
       <path id="DejaVuSans-69" d="M 603 3500 
L 1178 3500 
L 1178 0 
L 603 0 
L 603 3500 
z
M 603 4863 
L 1178 4863 
L 1178 4134 
L 603 4134 
L 603 4863 
z
" transform="scale(0.015625)"/>
       <path id="DejaVuSans-74" d="M 1172 4494 
L 1172 3500 
L 2356 3500 
L 2356 3053 
L 1172 3053 
L 1172 1153 
Q 1172 725 1289 603 
Q 1406 481 1766 481 
L 2356 481 
L 2356 0 
L 1766 0 
Q 1100 0 847 248 
Q 594 497 594 1153 
L 594 3053 
L 172 3053 
L 172 3500 
L 594 3500 
L 594 4494 
L 1172 4494 
z
" transform="scale(0.015625)"/>
       <path id="DejaVuSans-75" d="M 544 1381 
L 544 3500 
L 1119 3500 
L 1119 1403 
Q 1119 906 1312 657 
Q 1506 409 1894 409 
Q 2359 409 2629 706 
Q 2900 1003 2900 1516 
L 2900 3500 
L 3475 3500 
L 3475 0 
L 2900 0 
L 2900 538 
Q 2691 219 2414 64 
Q 2138 -91 1772 -91 
Q 1169 -91 856 284 
Q 544 659 544 1381 
z
M 1991 3584 
L 1991 3584 
z
" transform="scale(0.015625)"/>
       <path id="DejaVuSans-64" d="M 2906 2969 
L 2906 4863 
L 3481 4863 
L 3481 0 
L 2906 0 
L 2906 525 
Q 2725 213 2448 61 
Q 2172 -91 1784 -91 
Q 1150 -91 751 415 
Q 353 922 353 1747 
Q 353 2572 751 3078 
Q 1150 3584 1784 3584 
Q 2172 3584 2448 3432 
Q 2725 3281 2906 2969 
z
M 947 1747 
Q 947 1113 1208 752 
Q 1469 391 1925 391 
Q 2381 391 2643 752 
Q 2906 1113 2906 1747 
Q 2906 2381 2643 2742 
Q 2381 3103 1925 3103 
Q 1469 3103 1208 2742 
Q 947 2381 947 1747 
z
" transform="scale(0.015625)"/>
       <path id="DejaVuSans-61" d="M 2194 1759 
Q 1497 1759 1228 1600 
Q 959 1441 959 1056 
Q 959 750 1161 570 
Q 1363 391 1709 391 
Q 2188 391 2477 730 
Q 2766 1069 2766 1631 
L 2766 1759 
L 2194 1759 
z
M 3341 1997 
L 3341 0 
L 2766 0 
L 2766 531 
Q 2569 213 2275 61 
Q 1981 -91 1556 -91 
Q 1019 -91 701 211 
Q 384 513 384 1019 
Q 384 1609 779 1909 
Q 1175 2209 1959 2209 
L 2766 2209 
L 2766 2266 
Q 2766 2663 2505 2880 
Q 2244 3097 1772 3097 
Q 1472 3097 1187 3025 
Q 903 2953 641 2809 
L 641 3341 
Q 956 3463 1253 3523 
Q 1550 3584 1831 3584 
Q 2591 3584 2966 3190 
Q 3341 2797 3341 1997 
z
" transform="scale(0.015625)"/>
      </defs>
      <use xlink:href="#DejaVuSans-41"/>
      <use xlink:href="#DejaVuSans-6d" transform="translate(68.408203 0)"/>
      <use xlink:href="#DejaVuSans-70" transform="translate(165.820312 0)"/>
      <use xlink:href="#DejaVuSans-6c" transform="translate(229.296875 0)"/>
      <use xlink:href="#DejaVuSans-69" transform="translate(257.080078 0)"/>
      <use xlink:href="#DejaVuSans-74" transform="translate(284.863281 0)"/>
      <use xlink:href="#DejaVuSans-75" transform="translate(324.072266 0)"/>
      <use xlink:href="#DejaVuSans-64" transform="translate(387.451172 0)"/>
      <use xlink:href="#DejaVuSans-61" transform="translate(450.927734 0)"/>
     </g>
    </g>
   </g>
   <g id="line2d_14">
    <path d="M 115.363636 85.38535 
L 117.623203 104.903972 
L 122.142337 188.029646 
L 123.27212 201.83279 
L 124.401903 213.124929 
L 125.531687 218.33312 
L 126.66147 219.918254 
L 127.791253 218.365238 
L 128.921037 214.067086 
L 130.05082 209.321063 
L 131.180603 204.004248 
L 132.310387 199.22513 
L 133.44017 195.455575 
L 134.569953 192.084784 
L 136.82952 187.800472 
L 139.089087 184.94307 
L 142.478437 181.215242 
L 143.60822 179.902473 
L 145.867787 176.785546 
L 149.257137 171.396557 
L 152.646487 165.501105 
L 161.684754 149.08121 
L 163.944321 145.561153 
L 165.074104 143.924706 
L 167.333671 141.272637 
L 169.593237 139.433029 
L 171.852804 138.497617 
L 172.982588 138.444 
L 174.112371 138.51707 
L 175.242154 138.917943 
L 176.371938 139.48878 
L 177.501721 140.323185 
L 178.631504 141.356855 
L 179.761288 142.582903 
L 182.020854 145.580263 
L 184.280421 149.177787 
L 187.669771 155.280051 
L 193.318688 165.771583 
L 196.708038 171.417089 
L 198.967605 174.737651 
L 201.227171 177.616684 
L 203.486738 180.069303 
L 205.746305 182.135453 
L 208.005872 183.852349 
L 210.265438 185.254595 
L 212.525005 186.374288 
L 214.784572 187.241023 
L 218.173922 188.092646 
L 220.433489 188.439246 
L 222.693055 188.614935 
L 224.952622 188.589213 
L 226.082405 188.486334 
L 228.341972 187.923943 
L 229.471755 187.460527 
L 231.731322 186.153705 
L 233.990889 184.30563 
L 236.250456 181.944186 
L 238.510022 179.143096 
L 241.899372 174.610186 
L 243.029156 173.169995 
L 245.288722 171.015208 
L 247.548289 169.925557 
L 248.678072 169.949583 
L 249.807856 170.128016 
L 250.937639 170.811584 
L 252.067423 171.731321 
L 253.197206 173.081408 
L 254.326989 174.733496 
L 255.456773 176.659429 
L 257.716339 181.173122 
L 263.365256 193.317485 
L 265.624823 197.675612 
L 266.754606 199.735186 
L 271.27374 206.742049 
L 273.533306 211.768908 
L 275.792873 218.537604 
L 278.05244 225.241817 
L 279.182223 226.824016 
L 280.312006 227.038829 
L 281.44179 223.593879 
L 282.571573 215.967549 
L 283.701357 205.081459 
L 284.83114 77.72559 
L 285.960923 94.854469 
L 287.090707 134.759155 
L 288.22049 180.774815 
L 289.350273 217.743192 
L 290.480057 239.678072 
L 291.60984 246.24 
L 292.739623 241.667307 
L 294.99919 223.38411 
L 296.128973 217.39098 
L 297.258757 214.41427 
L 298.38854 212.804217 
L 301.77789 209.835217 
L 302.907674 208.48863 
L 304.037457 206.905275 
L 305.16724 205.030937 
L 306.297024 202.836566 
L 307.426807 200.308045 
L 308.55659 197.445172 
L 310.816157 190.785129 
L 313.075724 183.084455 
L 316.465074 171.043667 
L 318.724641 164.079673 
L 319.854424 161.228008 
L 320.984207 158.915516 
L 322.113991 157.220989 
L 323.243774 156.214786 
L 324.373557 155.960711 
L 325.503341 156.570657 
L 326.633124 157.974052 
L 327.762907 160.029115 
L 328.892691 162.602399 
L 331.152258 168.813277 
L 336.801174 185.767324 
L 339.060741 191.437556 
L 340.190524 193.803558 
L 341.320308 195.806682 
L 342.450091 197.422795 
L 343.579874 198.664591 
L 344.709658 199.574782 
L 345.839441 200.194914 
L 346.969225 200.563866 
L 348.099008 200.71785 
L 349.228791 200.69041 
L 350.358575 200.512421 
L 352.618141 199.814964 
L 354.877708 198.819125 
L 360.526625 195.894648 
L 365.045758 193.591665 
L 370.694675 190.969237 
L 371.824458 190.294088 
L 372.954242 189.481094 
L 374.084025 188.478791 
L 375.213808 187.231081 
L 376.343592 185.677383 
L 377.473375 183.696071 
L 378.603159 181.205464 
L 379.732942 178.184815 
L 380.862725 174.674282 
L 383.122292 166.648969 
L 385.381859 158.611497 
L 386.511642 155.321876 
L 387.641425 152.939809 
L 388.771209 151.65652 
L 389.900992 151.55686 
L 391.030775 152.619333 
L 392.160559 154.716059 
L 393.290342 157.622751 
L 397.809476 171.44071 
L 398.939259 174.190527 
L 400.069042 176.403822 
L 401.198826 178.079301 
L 402.328609 179.277361 
L 403.458392 180.250812 
L 404.588176 181.500963 
L 405.717959 183.684111 
L 406.847742 187.60791 
L 407.977526 193.274143 
L 409.107309 198.115271 
L 410.237093 198.276153 
L 411.366876 188.927394 
L 412.496659 166.122973 
L 413.626443 129.515816 
L 414.756226 86.327204 
L 415.886009 52.142896 
L 417.015793 44.64 
L 418.145576 65.8542 
L 420.405143 153.561469 
L 421.534926 186.725036 
L 422.664709 204.285024 
L 423.794493 207.286787 
L 424.924276 200.462438 
L 426.05406 190.688386 
L 427.183843 182.244172 
L 428.313626 176.949031 
L 429.44341 174.361881 
L 430.573193 172.882814 
L 432.83276 170.823541 
L 433.962543 169.606634 
L 435.092326 168.174271 
L 436.22211 166.506109 
L 437.351893 164.560568 
L 438.481676 162.316525 
L 439.61146 159.765416 
L 441.871027 153.770499 
L 444.130593 146.717905 
L 448.649727 132.044396 
L 449.77951 128.876551 
L 450.909293 126.117071 
L 452.039077 123.86817 
L 453.16886 122.231011 
L 454.298643 57.553133 
L 455.428427 73.630935 
L 456.55821 111.121231 
L 457.687994 154.576192 
L 458.817777 189.789631 
L 459.94756 211.040984 
L 461.077344 217.897049 
L 462.207127 214.130006 
L 464.466694 197.394481 
L 465.596477 191.798124 
L 466.72626 189.116511 
L 467.856044 187.813064 
L 468.985827 187.11393 
L 470.11561 186.550647 
L 471.245394 185.832337 
L 472.375177 184.851382 
L 473.504961 183.636596 
L 474.634744 182.14445 
L 475.764527 180.348462 
L 476.894311 178.237887 
L 478.024094 175.814594 
L 480.283661 170.100398 
L 482.543227 163.434334 
L 485.932577 152.96048 
L 487.062361 149.812105 
L 488.192144 147.01334 
L 489.321928 144.659595 
L 490.451711 142.838627 
L 491.581494 141.630537 
L 492.711278 141.106438 
L 493.841061 141.322315 
L 494.970844 142.358822 
L 496.100628 144.236003 
L 497.230411 146.815384 
L 498.360194 149.962319 
L 500.619761 157.46299 
L 507.398461 182.249779 
L 509.658028 189.178185 
L 510.787811 192.14574 
L 511.917595 194.741637 
L 513.047378 196.957396 
L 514.177161 198.822393 
L 515.306945 200.378117 
L 516.436728 201.663595 
L 517.566511 202.715343 
L 518.696295 203.567367 
L 519.826078 204.251162 
L 522.085645 205.227511 
L 524.345212 205.846182 
L 527.734562 206.446188 
L 536.772829 207.883198 
L 540.162179 208.448514 
L 542.421745 208.539517 
L 543.551529 208.405473 
L 544.681312 208.098867 
L 545.811095 207.592623 
L 546.940879 206.769374 
L 548.070662 205.512414 
L 549.200445 203.754635 
L 550.330229 201.478759 
L 551.460012 198.716961 
L 553.719579 192.111246 
L 555.979146 185.16453 
L 557.108929 182.212014 
L 558.238712 180.010766 
L 559.368496 178.758884 
L 560.498279 178.561106 
L 561.628062 179.428806 
L 562.757846 181.279997 
L 563.887629 183.957496 
L 566.147196 190.627382 
L 568.406763 197.179367 
L 569.536546 199.923678 
L 570.666329 202.166461 
L 571.796113 203.821182 
L 572.925896 204.880568 
L 574.055679 205.769662 
L 575.185463 206.916304 
L 576.315246 208.711366 
L 577.445029 211.508745 
L 578.574813 215.625372 
L 579.704596 221.743926 
L 580.834379 226.364304 
L 581.964163 221.831147 
L 583.093946 204.318517 
L 584.223729 174.137386 
L 586.483296 97.770128 
L 587.61308 75.797045 
L 588.742863 81.235372 
L 589.872646 112.734743 
L 591.00243 156.89858 
L 592.132213 194.851632 
L 593.261996 219.841447 
L 594.39178 230.070272 
L 595.521563 227.966287 
L 596.651346 219.615083 
L 597.78113 210.388973 
L 598.910913 203.37393 
L 600.040696 199.401744 
L 601.17048 197.219115 
L 603.430047 194.395419 
L 604.55983 192.923339 
L 605.689613 191.178243 
L 606.819397 189.185045 
L 607.94918 186.905156 
L 609.078963 184.317071 
L 610.208747 181.411883 
L 612.468313 174.670421 
L 614.72788 166.8043 
L 620.376797 145.830993 
L 621.50658 142.243288 
L 622.636364 139.098864 
L 622.636364 139.098864 
" clip-path="url(#pc5b44eb942)" style="fill: none; stroke: #1f77b4; stroke-width: 1.5; stroke-linecap: square"/>
   </g>
   <g id="line2d_15">
    <path d="M 115.363636 131.226379 
L 116.49342 137.992307 
L 117.623203 148.730307 
L 119.88277 186.288786 
L 121.012553 201.032193 
L 122.142337 208.511862 
L 123.27212 209.684082 
L 124.401903 205.734584 
L 125.531687 201.204923 
L 126.66147 194.425492 
L 127.791253 191.017844 
L 128.921037 190.371455 
L 130.05082 186.027882 
L 131.180603 183.869116 
L 132.310387 182.473832 
L 133.44017 186.500584 
L 134.569953 184.913163 
L 135.699737 183.111038 
L 136.82952 182.143687 
L 137.959304 181.733043 
L 139.089087 180.711944 
L 140.21887 178.799155 
L 142.478437 173.96178 
L 143.60822 172.201925 
L 144.738004 168.912472 
L 145.867787 170.638655 
L 146.99757 168.076682 
L 148.127354 163.067703 
L 149.257137 160.442122 
L 152.646487 149.308954 
L 153.776271 143.915177 
L 154.906054 147.969908 
L 156.035837 140.293088 
L 157.165621 140.174088 
L 158.295404 147.528744 
L 159.425187 147.768436 
L 160.554971 148.509437 
L 161.684754 146.157017 
L 162.814537 142.830749 
L 163.944321 142.253999 
L 165.074104 142.532234 
L 166.203887 142.567033 
L 167.333671 144.773397 
L 168.463454 141.631778 
L 169.593237 149.411842 
L 170.723021 150.918053 
L 171.852804 147.978616 
L 172.982588 153.720328 
L 174.112371 155.669465 
L 176.371938 158.974912 
L 177.501721 159.499667 
L 178.631504 160.162244 
L 179.761288 160.340734 
L 180.891071 161.753164 
L 182.020854 162.182918 
L 183.150638 165.145208 
L 184.280421 166.445974 
L 185.410204 168.099401 
L 186.539988 168.140171 
L 187.669771 171.795068 
L 188.799555 174.477201 
L 189.929338 172.943358 
L 191.059121 169.831768 
L 192.188905 176.631528 
L 193.318688 166.259877 
L 195.578255 165.405511 
L 196.708038 166.227307 
L 198.967605 169.497438 
L 200.097388 122.327275 
L 201.227171 126.382837 
L 203.486738 163.941934 
L 204.616522 178.732938 
L 205.746305 190.859447 
L 206.876088 196.96727 
L 209.135655 196.231073 
L 210.265438 189.065149 
L 211.395222 185.381697 
L 212.525005 183.669626 
L 213.654788 186.432969 
L 214.784572 184.629599 
L 215.914355 184.833875 
L 218.173922 183.00649 
L 219.303705 183.298389 
L 220.433489 182.529214 
L 221.563272 182.919452 
L 222.693055 182.353469 
L 224.952622 183.176764 
L 226.082405 180.400011 
L 227.212189 177.111693 
L 228.341972 175.240352 
L 229.471755 172.777176 
L 230.601539 170.964132 
L 231.731322 167.428565 
L 232.861105 167.150584 
L 233.990889 168.43462 
L 235.120672 165.177974 
L 236.250456 167.146891 
L 237.380239 167.920368 
L 238.510022 168.525106 
L 239.639806 169.989064 
L 240.769589 169.691922 
L 243.029156 161.865073 
L 244.158939 161.42063 
L 245.288722 164.071708 
L 246.418506 169.030412 
L 247.548289 167.8525 
L 248.678072 167.268778 
L 249.807856 171.136778 
L 250.937639 171.453708 
L 252.067423 176.153558 
L 253.197206 178.950378 
L 254.326989 182.987236 
L 255.456773 187.969718 
L 256.586556 187.765671 
L 257.716339 190.731214 
L 258.846123 191.786841 
L 259.975906 192.461683 
L 261.105689 195.163197 
L 262.235473 196.969134 
L 263.365256 197.283023 
L 264.495039 197.079738 
L 265.624823 196.607875 
L 266.754606 195.731722 
L 267.88439 192.418499 
L 269.014173 190.894575 
L 270.143956 190.165782 
L 271.27374 190.159454 
L 272.403523 191.480186 
L 274.66309 195.121842 
L 275.792873 195.638813 
L 276.922656 195.143494 
L 278.05244 195.931398 
L 279.182223 198.145962 
L 280.312006 193.119059 
L 281.44179 185.127197 
L 282.571573 191.01698 
L 283.701357 192.563521 
L 284.83114 151.067835 
L 285.960923 157.453115 
L 288.22049 185.482001 
L 289.350273 201.110752 
L 291.60984 214.78369 
L 292.739623 214.911567 
L 293.869407 212.228672 
L 294.99919 210.578126 
L 296.128973 210.740208 
L 297.258757 206.962576 
L 298.38854 216.830666 
L 299.518324 208.206519 
L 300.648107 210.733863 
L 301.77789 203.96619 
L 302.907674 204.539891 
L 304.037457 204.892077 
L 305.16724 200.793652 
L 306.297024 200.790848 
L 307.426807 204.320596 
L 308.55659 200.287084 
L 309.686374 199.964529 
L 310.816157 196.526699 
L 311.94594 197.429307 
L 313.075724 195.019853 
L 314.205507 191.351547 
L 315.335291 192.539751 
L 316.465074 191.008916 
L 317.594857 191.684699 
L 318.724641 188.484333 
L 319.854424 188.353297 
L 320.984207 188.071572 
L 322.113991 187.593423 
L 323.243774 185.795831 
L 324.373557 184.89418 
L 325.503341 183.141999 
L 326.633124 179.580164 
L 327.762907 180.475038 
L 328.892691 183.510297 
L 331.152258 187.840621 
L 332.282041 190.699109 
L 333.411824 192.889735 
L 334.541608 191.006645 
L 335.671391 188.857951 
L 336.801174 185.12408 
L 337.930958 183.115257 
L 339.060741 182.685689 
L 340.190524 185.459595 
L 342.450091 188.952927 
L 344.709658 191.6658 
L 345.839441 191.259417 
L 346.969225 193.072317 
L 348.099008 195.628309 
L 349.228791 190.751324 
L 350.358575 192.118858 
L 351.488358 191.401169 
L 352.618141 188.572312 
L 353.747925 189.455895 
L 354.877708 186.152506 
L 357.137275 184.530863 
L 358.267058 183.855156 
L 359.396841 185.857905 
L 360.526625 183.374288 
L 361.656408 181.957691 
L 362.786192 181.446701 
L 363.915975 181.35785 
L 365.045758 182.957037 
L 366.175542 182.166584 
L 367.305325 185.042666 
L 368.435108 183.826719 
L 369.564892 131.226379 
L 370.694675 137.992307 
L 371.824458 148.730307 
L 374.084025 186.288786 
L 375.213808 201.032193 
L 376.343592 208.511862 
L 377.473375 209.684082 
L 378.603159 205.734584 
L 379.732942 201.204923 
L 380.862725 194.425492 
L 381.992509 191.017844 
L 383.122292 190.371455 
L 384.252075 186.027882 
L 385.381859 183.869116 
L 386.511642 182.473832 
L 387.641425 186.500584 
L 388.771209 184.913163 
L 389.900992 183.111038 
L 391.030775 182.143687 
L 392.160559 181.733043 
L 393.290342 180.711944 
L 394.420126 178.799155 
L 396.679692 173.96178 
L 397.809476 172.201925 
L 398.939259 168.912472 
L 400.069042 170.638655 
L 401.198826 168.076682 
L 402.328609 163.067703 
L 403.458392 160.442122 
L 406.847742 149.308954 
L 407.977526 143.915177 
L 409.107309 147.969908 
L 410.237093 140.293088 
L 411.366876 140.174088 
L 412.496659 147.528744 
L 413.626443 147.768436 
L 414.756226 148.509437 
L 415.886009 146.157017 
L 417.015793 142.830749 
L 418.145576 142.253999 
L 419.275359 142.532234 
L 420.405143 142.567033 
L 421.534926 144.773397 
L 422.664709 141.631778 
L 423.794493 149.411842 
L 424.924276 150.918053 
L 426.05406 147.978616 
L 427.183843 153.720328 
L 428.313626 155.669465 
L 430.573193 158.974912 
L 431.702976 159.499667 
L 432.83276 160.162244 
L 433.962543 160.340734 
L 435.092326 161.753164 
L 436.22211 162.182918 
L 437.351893 165.145208 
L 438.481676 166.445974 
L 439.61146 168.099401 
L 440.741243 168.140171 
L 441.871027 171.795068 
L 443.00081 174.477201 
L 444.130593 172.943358 
L 445.260377 169.831768 
L 446.39016 176.631528 
L 447.519943 166.259877 
L 449.77951 165.405511 
L 450.909293 166.227307 
L 453.16886 169.497438 
L 454.298643 122.327275 
L 455.428427 126.382837 
L 457.687994 163.941934 
L 458.817777 178.732938 
L 459.94756 190.859447 
L 461.077344 196.96727 
L 463.33691 196.231073 
L 464.466694 189.065149 
L 465.596477 185.381697 
L 466.72626 183.669626 
L 467.856044 186.432969 
L 468.985827 184.629599 
L 470.11561 184.833875 
L 472.375177 183.00649 
L 473.504961 183.298389 
L 474.634744 182.529214 
L 475.764527 182.919452 
L 476.894311 182.353469 
L 479.153877 183.176764 
L 480.283661 180.400011 
L 481.413444 177.111693 
L 482.543227 175.240352 
L 483.673011 172.777176 
L 484.802794 170.964132 
L 485.932577 167.428565 
L 487.062361 167.150584 
L 488.192144 168.43462 
L 489.321928 165.177974 
L 490.451711 167.146891 
L 491.581494 167.920368 
L 492.711278 168.525106 
L 493.841061 169.989064 
L 494.970844 169.691922 
L 497.230411 161.865073 
L 498.360194 161.42063 
L 499.489978 164.071708 
L 500.619761 169.030412 
L 501.749544 167.8525 
L 502.879328 167.268778 
L 504.009111 171.136778 
L 505.138895 171.453708 
L 506.268678 176.153558 
L 507.398461 178.950378 
L 508.528245 182.987236 
L 509.658028 187.969718 
L 510.787811 187.765671 
L 511.917595 190.731214 
L 513.047378 191.786841 
L 514.177161 192.461683 
L 515.306945 195.163197 
L 516.436728 196.969134 
L 517.566511 197.283023 
L 518.696295 197.079738 
L 519.826078 196.607875 
L 520.955862 195.731722 
L 522.085645 192.418499 
L 523.215428 190.894575 
L 524.345212 190.165782 
L 525.474995 190.159454 
L 526.604778 191.480186 
L 528.864345 195.121842 
L 529.994128 195.638813 
L 531.123912 195.143494 
L 532.253695 195.931398 
L 533.383478 198.145962 
L 534.513262 193.119059 
L 535.643045 185.127197 
L 536.772829 191.01698 
L 537.902612 192.563521 
L 539.032395 151.067835 
L 540.162179 157.453115 
L 542.421745 185.482001 
L 543.551529 201.110752 
L 545.811095 214.78369 
L 546.940879 214.911567 
L 548.070662 212.228672 
L 549.200445 210.578126 
L 550.330229 210.740208 
L 551.460012 206.962576 
L 552.589796 216.830666 
L 553.719579 208.206519 
L 554.849362 210.733863 
L 555.979146 203.96619 
L 557.108929 204.539891 
L 558.238712 204.892077 
L 559.368496 200.793652 
L 560.498279 200.790848 
L 561.628062 204.320596 
L 562.757846 200.287084 
L 563.887629 199.964529 
L 565.017412 196.526699 
L 566.147196 197.429307 
L 567.276979 195.019853 
L 568.406763 191.351547 
L 569.536546 192.539751 
L 570.666329 191.008916 
L 571.796113 191.684699 
L 572.925896 188.484333 
L 574.055679 188.353297 
L 575.185463 188.071572 
L 576.315246 187.593423 
L 577.445029 185.795831 
L 578.574813 184.89418 
L 579.704596 183.141999 
L 580.834379 179.580164 
L 581.964163 180.475038 
L 583.093946 183.510297 
L 585.353513 187.840621 
L 586.483296 190.699109 
L 587.61308 192.889735 
L 588.742863 191.006645 
L 589.872646 188.857951 
L 591.00243 185.12408 
L 592.132213 183.115257 
L 593.261996 182.685689 
L 594.39178 185.459595 
L 596.651346 188.952927 
L 598.910913 191.6658 
L 600.040696 191.259417 
L 601.17048 193.072317 
L 602.300263 195.628309 
L 603.430047 190.751324 
L 604.55983 192.118858 
L 605.689613 191.401169 
L 606.819397 188.572312 
L 607.94918 189.455895 
L 609.078963 186.152506 
L 611.33853 184.530863 
L 612.468313 183.855156 
L 613.598097 185.857905 
L 614.72788 183.374288 
L 615.857663 181.957691 
L 616.987447 181.446701 
L 618.11723 181.35785 
L 619.247014 182.957037 
L 620.376797 182.166584 
L 621.50658 185.042666 
L 622.636364 183.826719 
L 622.636364 183.826719 
" clip-path="url(#pc5b44eb942)" style="fill: none; stroke: #ff7f0e; stroke-width: 1.5; stroke-linecap: square"/>
   </g>
   <g id="patch_3">
    <path d="M 90 256.32 
L 90 34.56 
" style="fill: none; stroke: #000000; stroke-width: 0.8; stroke-linejoin: miter; stroke-linecap: square"/>
   </g>
   <g id="patch_4">
    <path d="M 648 256.32 
L 648 34.56 
" style="fill: none; stroke: #000000; stroke-width: 0.8; stroke-linejoin: miter; stroke-linecap: square"/>
   </g>
   <g id="patch_5">
    <path d="M 90 256.32 
L 648 256.32 
" style="fill: none; stroke: #000000; stroke-width: 0.8; stroke-linejoin: miter; stroke-linecap: square"/>
   </g>
   <g id="patch_6">
    <path d="M 90 34.56 
L 648 34.56 
" style="fill: none; stroke: #000000; stroke-width: 0.8; stroke-linejoin: miter; stroke-linecap: square"/>
   </g>
   <g id="text_15">
    <!-- Rekonstrukcija EKG signala (vzorec 502) -->
    <g transform="translate(247.891875 28.56) scale(0.12 -0.12)">
     <defs>
      <path id="DejaVuSans-52" d="M 2841 2188 
Q 3044 2119 3236 1894 
Q 3428 1669 3622 1275 
L 4263 0 
L 3584 0 
L 2988 1197 
Q 2756 1666 2539 1819 
Q 2322 1972 1947 1972 
L 1259 1972 
L 1259 0 
L 628 0 
L 628 4666 
L 2053 4666 
Q 2853 4666 3247 4331 
Q 3641 3997 3641 3322 
Q 3641 2881 3436 2590 
Q 3231 2300 2841 2188 
z
M 1259 4147 
L 1259 2491 
L 2053 2491 
Q 2509 2491 2742 2702 
Q 2975 2913 2975 3322 
Q 2975 3731 2742 3939 
Q 2509 4147 2053 4147 
L 1259 4147 
z
" transform="scale(0.015625)"/>
      <path id="DejaVuSans-65" d="M 3597 1894 
L 3597 1613 
L 953 1613 
Q 991 1019 1311 708 
Q 1631 397 2203 397 
Q 2534 397 2845 478 
Q 3156 559 3463 722 
L 3463 178 
Q 3153 47 2828 -22 
Q 2503 -91 2169 -91 
Q 1331 -91 842 396 
Q 353 884 353 1716 
Q 353 2575 817 3079 
Q 1281 3584 2069 3584 
Q 2775 3584 3186 3129 
Q 3597 2675 3597 1894 
z
M 3022 2063 
Q 3016 2534 2758 2815 
Q 2500 3097 2075 3097 
Q 1594 3097 1305 2825 
Q 1016 2553 972 2059 
L 3022 2063 
z
" transform="scale(0.015625)"/>
      <path id="DejaVuSans-6b" d="M 581 4863 
L 1159 4863 
L 1159 1991 
L 2875 3500 
L 3609 3500 
L 1753 1863 
L 3688 0 
L 2938 0 
L 1159 1709 
L 1159 0 
L 581 0 
L 581 4863 
z
" transform="scale(0.015625)"/>
      <path id="DejaVuSans-6f" d="M 1959 3097 
Q 1497 3097 1228 2736 
Q 959 2375 959 1747 
Q 959 1119 1226 758 
Q 1494 397 1959 397 
Q 2419 397 2687 759 
Q 2956 1122 2956 1747 
Q 2956 2369 2687 2733 
Q 2419 3097 1959 3097 
z
M 1959 3584 
Q 2709 3584 3137 3096 
Q 3566 2609 3566 1747 
Q 3566 888 3137 398 
Q 2709 -91 1959 -91 
Q 1206 -91 779 398 
Q 353 888 353 1747 
Q 353 2609 779 3096 
Q 1206 3584 1959 3584 
z
" transform="scale(0.015625)"/>
      <path id="DejaVuSans-6e" d="M 3513 2113 
L 3513 0 
L 2938 0 
L 2938 2094 
Q 2938 2591 2744 2837 
Q 2550 3084 2163 3084 
Q 1697 3084 1428 2787 
Q 1159 2491 1159 1978 
L 1159 0 
L 581 0 
L 581 3500 
L 1159 3500 
L 1159 2956 
Q 1366 3272 1645 3428 
Q 1925 3584 2291 3584 
Q 2894 3584 3203 3211 
Q 3513 2838 3513 2113 
z
" transform="scale(0.015625)"/>
      <path id="DejaVuSans-73" d="M 2834 3397 
L 2834 2853 
Q 2591 2978 2328 3040 
Q 2066 3103 1784 3103 
Q 1356 3103 1142 2972 
Q 928 2841 928 2578 
Q 928 2378 1081 2264 
Q 1234 2150 1697 2047 
L 1894 2003 
Q 2506 1872 2764 1633 
Q 3022 1394 3022 966 
Q 3022 478 2636 193 
Q 2250 -91 1575 -91 
Q 1294 -91 989 -36 
Q 684 19 347 128 
L 347 722 
Q 666 556 975 473 
Q 1284 391 1588 391 
Q 1994 391 2212 530 
Q 2431 669 2431 922 
Q 2431 1156 2273 1281 
Q 2116 1406 1581 1522 
L 1381 1569 
Q 847 1681 609 1914 
Q 372 2147 372 2553 
Q 372 3047 722 3315 
Q 1072 3584 1716 3584 
Q 2034 3584 2315 3537 
Q 2597 3491 2834 3397 
z
" transform="scale(0.015625)"/>
      <path id="DejaVuSans-72" d="M 2631 2963 
Q 2534 3019 2420 3045 
Q 2306 3072 2169 3072 
Q 1681 3072 1420 2755 
Q 1159 2438 1159 1844 
L 1159 0 
L 581 0 
L 581 3500 
L 1159 3500 
L 1159 2956 
Q 1341 3275 1631 3429 
Q 1922 3584 2338 3584 
Q 2397 3584 2469 3576 
Q 2541 3569 2628 3553 
L 2631 2963 
z
" transform="scale(0.015625)"/>
      <path id="DejaVuSans-63" d="M 3122 3366 
L 3122 2828 
Q 2878 2963 2633 3030 
Q 2388 3097 2138 3097 
Q 1578 3097 1268 2742 
Q 959 2388 959 1747 
Q 959 1106 1268 751 
Q 1578 397 2138 397 
Q 2388 397 2633 464 
Q 2878 531 3122 666 
L 3122 134 
Q 2881 22 2623 -34 
Q 2366 -91 2075 -91 
Q 1284 -91 818 406 
Q 353 903 353 1747 
Q 353 2603 823 3093 
Q 1294 3584 2113 3584 
Q 2378 3584 2631 3529 
Q 2884 3475 3122 3366 
z
" transform="scale(0.015625)"/>
      <path id="DejaVuSans-6a" d="M 603 3500 
L 1178 3500 
L 1178 -63 
Q 1178 -731 923 -1031 
Q 669 -1331 103 -1331 
L -116 -1331 
L -116 -844 
L 38 -844 
Q 366 -844 484 -692 
Q 603 -541 603 -63 
L 603 3500 
z
M 603 4863 
L 1178 4863 
L 1178 4134 
L 603 4134 
L 603 4863 
z
" transform="scale(0.015625)"/>
      <path id="DejaVuSans-20" transform="scale(0.015625)"/>
      <path id="DejaVuSans-45" d="M 628 4666 
L 3578 4666 
L 3578 4134 
L 1259 4134 
L 1259 2753 
L 3481 2753 
L 3481 2222 
L 1259 2222 
L 1259 531 
L 3634 531 
L 3634 0 
L 628 0 
L 628 4666 
z
" transform="scale(0.015625)"/>
      <path id="DejaVuSans-4b" d="M 628 4666 
L 1259 4666 
L 1259 2694 
L 3353 4666 
L 4166 4666 
L 1850 2491 
L 4331 0 
L 3500 0 
L 1259 2247 
L 1259 0 
L 628 0 
L 628 4666 
z
" transform="scale(0.015625)"/>
      <path id="DejaVuSans-47" d="M 3809 666 
L 3809 1919 
L 2778 1919 
L 2778 2438 
L 4434 2438 
L 4434 434 
Q 4069 175 3628 42 
Q 3188 -91 2688 -91 
Q 1594 -91 976 548 
Q 359 1188 359 2328 
Q 359 3472 976 4111 
Q 1594 4750 2688 4750 
Q 3144 4750 3555 4637 
Q 3966 4525 4313 4306 
L 4313 3634 
Q 3963 3931 3569 4081 
Q 3175 4231 2741 4231 
Q 1884 4231 1454 3753 
Q 1025 3275 1025 2328 
Q 1025 1384 1454 906 
Q 1884 428 2741 428 
Q 3075 428 3337 486 
Q 3600 544 3809 666 
z
" transform="scale(0.015625)"/>
      <path id="DejaVuSans-67" d="M 2906 1791 
Q 2906 2416 2648 2759 
Q 2391 3103 1925 3103 
Q 1463 3103 1205 2759 
Q 947 2416 947 1791 
Q 947 1169 1205 825 
Q 1463 481 1925 481 
Q 2391 481 2648 825 
Q 2906 1169 2906 1791 
z
M 3481 434 
Q 3481 -459 3084 -895 
Q 2688 -1331 1869 -1331 
Q 1566 -1331 1297 -1286 
Q 1028 -1241 775 -1147 
L 775 -588 
Q 1028 -725 1275 -790 
Q 1522 -856 1778 -856 
Q 2344 -856 2625 -561 
Q 2906 -266 2906 331 
L 2906 616 
Q 2728 306 2450 153 
Q 2172 0 1784 0 
Q 1141 0 747 490 
Q 353 981 353 1791 
Q 353 2603 747 3093 
Q 1141 3584 1784 3584 
Q 2172 3584 2450 3431 
Q 2728 3278 2906 2969 
L 2906 3500 
L 3481 3500 
L 3481 434 
z
" transform="scale(0.015625)"/>
      <path id="DejaVuSans-28" d="M 1984 4856 
Q 1566 4138 1362 3434 
Q 1159 2731 1159 2009 
Q 1159 1288 1364 580 
Q 1569 -128 1984 -844 
L 1484 -844 
Q 1016 -109 783 600 
Q 550 1309 550 2009 
Q 550 2706 781 3412 
Q 1013 4119 1484 4856 
L 1984 4856 
z
" transform="scale(0.015625)"/>
      <path id="DejaVuSans-76" d="M 191 3500 
L 800 3500 
L 1894 563 
L 2988 3500 
L 3597 3500 
L 2284 0 
L 1503 0 
L 191 3500 
z
" transform="scale(0.015625)"/>
      <path id="DejaVuSans-7a" d="M 353 3500 
L 3084 3500 
L 3084 2975 
L 922 459 
L 3084 459 
L 3084 0 
L 275 0 
L 275 525 
L 2438 3041 
L 353 3041 
L 353 3500 
z
" transform="scale(0.015625)"/>
      <path id="DejaVuSans-35" d="M 691 4666 
L 3169 4666 
L 3169 4134 
L 1269 4134 
L 1269 2991 
Q 1406 3038 1543 3061 
Q 1681 3084 1819 3084 
Q 2600 3084 3056 2656 
Q 3513 2228 3513 1497 
Q 3513 744 3044 326 
Q 2575 -91 1722 -91 
Q 1428 -91 1123 -41 
Q 819 9 494 109 
L 494 744 
Q 775 591 1075 516 
Q 1375 441 1709 441 
Q 2250 441 2565 725 
Q 2881 1009 2881 1497 
Q 2881 1984 2565 2268 
Q 2250 2553 1709 2553 
Q 1456 2553 1204 2497 
Q 953 2441 691 2322 
L 691 4666 
z
" transform="scale(0.015625)"/>
      <path id="DejaVuSans-29" d="M 513 4856 
L 1013 4856 
Q 1481 4119 1714 3412 
Q 1947 2706 1947 2009 
Q 1947 1309 1714 600 
Q 1481 -109 1013 -844 
L 513 -844 
Q 928 -128 1133 580 
Q 1338 1288 1338 2009 
Q 1338 2731 1133 3434 
Q 928 4138 513 4856 
z
" transform="scale(0.015625)"/>
     </defs>
     <use xlink:href="#DejaVuSans-52"/>
     <use xlink:href="#DejaVuSans-65" transform="translate(64.982422 0)"/>
     <use xlink:href="#DejaVuSans-6b" transform="translate(126.505859 0)"/>
     <use xlink:href="#DejaVuSans-6f" transform="translate(180.791016 0)"/>
     <use xlink:href="#DejaVuSans-6e" transform="translate(241.972656 0)"/>
     <use xlink:href="#DejaVuSans-73" transform="translate(305.351562 0)"/>
     <use xlink:href="#DejaVuSans-74" transform="translate(357.451172 0)"/>
     <use xlink:href="#DejaVuSans-72" transform="translate(396.660156 0)"/>
     <use xlink:href="#DejaVuSans-75" transform="translate(437.773438 0)"/>
     <use xlink:href="#DejaVuSans-6b" transform="translate(501.152344 0)"/>
     <use xlink:href="#DejaVuSans-63" transform="translate(559.0625 0)"/>
     <use xlink:href="#DejaVuSans-69" transform="translate(614.042969 0)"/>
     <use xlink:href="#DejaVuSans-6a" transform="translate(641.826172 0)"/>
     <use xlink:href="#DejaVuSans-61" transform="translate(669.609375 0)"/>
     <use xlink:href="#DejaVuSans-20" transform="translate(730.888672 0)"/>
     <use xlink:href="#DejaVuSans-45" transform="translate(762.675781 0)"/>
     <use xlink:href="#DejaVuSans-4b" transform="translate(825.859375 0)"/>
     <use xlink:href="#DejaVuSans-47" transform="translate(891.435547 0)"/>
     <use xlink:href="#DejaVuSans-20" transform="translate(968.925781 0)"/>
     <use xlink:href="#DejaVuSans-73" transform="translate(1000.712891 0)"/>
     <use xlink:href="#DejaVuSans-69" transform="translate(1052.8125 0)"/>
     <use xlink:href="#DejaVuSans-67" transform="translate(1080.595703 0)"/>
     <use xlink:href="#DejaVuSans-6e" transform="translate(1144.072266 0)"/>
     <use xlink:href="#DejaVuSans-61" transform="translate(1207.451172 0)"/>
     <use xlink:href="#DejaVuSans-6c" transform="translate(1268.730469 0)"/>
     <use xlink:href="#DejaVuSans-61" transform="translate(1296.513672 0)"/>
     <use xlink:href="#DejaVuSans-20" transform="translate(1357.792969 0)"/>
     <use xlink:href="#DejaVuSans-28" transform="translate(1389.580078 0)"/>
     <use xlink:href="#DejaVuSans-76" transform="translate(1428.59375 0)"/>
     <use xlink:href="#DejaVuSans-7a" transform="translate(1487.773438 0)"/>
     <use xlink:href="#DejaVuSans-6f" transform="translate(1540.263672 0)"/>
     <use xlink:href="#DejaVuSans-72" transform="translate(1601.445312 0)"/>
     <use xlink:href="#DejaVuSans-65" transform="translate(1640.308594 0)"/>
     <use xlink:href="#DejaVuSans-63" transform="translate(1701.832031 0)"/>
     <use xlink:href="#DejaVuSans-20" transform="translate(1756.8125 0)"/>
     <use xlink:href="#DejaVuSans-35" transform="translate(1788.599609 0)"/>
     <use xlink:href="#DejaVuSans-30" transform="translate(1852.222656 0)"/>
     <use xlink:href="#DejaVuSans-32" transform="translate(1915.845703 0)"/>
     <use xlink:href="#DejaVuSans-29" transform="translate(1979.46875 0)"/>
    </g>
   </g>
   <g id="legend_1">
    <g id="patch_7">
     <path d="M 542.14375 71.91625 
L 641 71.91625 
Q 643 71.91625 643 69.91625 
L 643 41.56 
Q 643 39.56 641 39.56 
L 542.14375 39.56 
Q 540.14375 39.56 540.14375 41.56 
L 540.14375 69.91625 
Q 540.14375 71.91625 542.14375 71.91625 
z
" style="fill: #ffffff; opacity: 0.8; stroke: #cccccc; stroke-linejoin: miter"/>
    </g>
    <g id="line2d_16">
     <path d="M 544.14375 47.658437 
L 554.14375 47.658437 
L 564.14375 47.658437 
" style="fill: none; stroke: #1f77b4; stroke-width: 1.5; stroke-linecap: square"/>
    </g>
    <g id="text_16">
     <!-- original -->
     <g transform="translate(572.14375 51.158437) scale(0.1 -0.1)">
      <use xlink:href="#DejaVuSans-6f"/>
      <use xlink:href="#DejaVuSans-72" transform="translate(61.181641 0)"/>
      <use xlink:href="#DejaVuSans-69" transform="translate(102.294922 0)"/>
      <use xlink:href="#DejaVuSans-67" transform="translate(130.078125 0)"/>
      <use xlink:href="#DejaVuSans-69" transform="translate(193.554688 0)"/>
      <use xlink:href="#DejaVuSans-6e" transform="translate(221.337891 0)"/>
      <use xlink:href="#DejaVuSans-61" transform="translate(284.716797 0)"/>
      <use xlink:href="#DejaVuSans-6c" transform="translate(345.996094 0)"/>
     </g>
    </g>
    <g id="line2d_17">
     <path d="M 544.14375 62.336562 
L 554.14375 62.336562 
L 564.14375 62.336562 
" style="fill: none; stroke: #ff7f0e; stroke-width: 1.5; stroke-linecap: square"/>
    </g>
    <g id="text_17">
     <!-- rekonstruiran -->
     <g transform="translate(572.14375 65.836562) scale(0.1 -0.1)">
      <use xlink:href="#DejaVuSans-72"/>
      <use xlink:href="#DejaVuSans-65" transform="translate(38.863281 0)"/>
      <use xlink:href="#DejaVuSans-6b" transform="translate(100.386719 0)"/>
      <use xlink:href="#DejaVuSans-6f" transform="translate(154.671875 0)"/>
      <use xlink:href="#DejaVuSans-6e" transform="translate(215.853516 0)"/>
      <use xlink:href="#DejaVuSans-73" transform="translate(279.232422 0)"/>
      <use xlink:href="#DejaVuSans-74" transform="translate(331.332031 0)"/>
      <use xlink:href="#DejaVuSans-72" transform="translate(370.541016 0)"/>
      <use xlink:href="#DejaVuSans-75" transform="translate(411.654297 0)"/>
      <use xlink:href="#DejaVuSans-69" transform="translate(475.033203 0)"/>
      <use xlink:href="#DejaVuSans-72" transform="translate(502.816406 0)"/>
      <use xlink:href="#DejaVuSans-61" transform="translate(543.929688 0)"/>
      <use xlink:href="#DejaVuSans-6e" transform="translate(605.208984 0)"/>
     </g>
    </g>
   </g>
  </g>
 </g>
 <defs>
  <clipPath id="pc5b44eb942">
   <rect x="90" y="34.56" width="558" height="221.76"/>
  </clipPath>
 </defs>
</svg>
