<?xml version="1.0" encoding="utf-8" standalone="no"?>
<!DOCTYPE svg PUBLIC "-//W3C//DTD SVG 1.1//EN"
  "http://www.w3.org/Graphics/SVG/1.1/DTD/svg11.dtd">
<svg xmlns:xlink="http://www.w3.org/1999/xlink" width="1080pt" height="720pt" viewBox="0 0 1080 720" xmlns="http://www.w3.org/2000/svg" version="1.1">
 <metadata>
  <rdf:RDF xmlns:dc="http://purl.org/dc/elements/1.1/" xmlns:cc="http://creativecommons.org/ns#" xmlns:rdf="http://www.w3.org/1999/02/22-rdf-syntax-ns#">
   <cc:Work>
    <dc:type rdf:resource="http://purl.org/dc/dcmitype/StillImage"/>
    <dc:date>2025-05-14T11:19:19.919170</dc:date>
    <dc:format>image/svg+xml</dc:format>
    <dc:creator>
     <cc:Agent>
      <dc:title>Matplotlib v3.10.0, https://matplotlib.org/</dc:title>
     </cc:Agent>
    </dc:creator>
   </cc:Work>
  </rdf:RDF>
 </metadata>
 <defs>
  <style type="text/css">*{stroke-linejoin: round; stroke-linecap: butt}</style>
 </defs>
 <g id="figure_1">
  <g id="patch_1">
   <path d="M 0 720 
L 1080 720 
L 1080 0 
L 0 0 
z
" style="fill: #ffffff"/>
  </g>
  <g id="axes_1">
   <g id="patch_2">
    <path d="M 56.09 205.24 
L 1069.2 205.24 
L 1069.2 26.88 
L 56.09 26.88 
z
" style="fill: #ffffff"/>
   </g>
   <g id="matplotlib.axis_1">
    <g id="xtick_1">
     <g id="line2d_1">
      <defs>
       <path id="me1e6ccbf41" d="M 0 0 
L 0 3.5 
" style="stroke: #000000; stroke-width: 0.8"/>
      </defs>
      <g>
       <use xlink:href="#me1e6ccbf41" x="102.140455" y="205.24" style="stroke: #000000; stroke-width: 0.8"/>
      </g>
     </g>
     <g id="text_1">
      <!-- 0 -->
      <g transform="translate(98.959205 219.838437) scale(0.1 -0.1)">
       <defs>
        <path id="DejaVuSans-30" d="M 2034 4250 
Q 1547 4250 1301 3770 
Q 1056 3291 1056 2328 
Q 1056 1369 1301 889 
Q 1547 409 2034 409 
Q 2525 409 2770 889 
Q 3016 1369 3016 2328 
Q 3016 3291 2770 3770 
Q 2525 4250 2034 4250 
z
M 2034 4750 
Q 2819 4750 3233 4129 
Q 3647 3509 3647 2328 
Q 3647 1150 3233 529 
Q 2819 -91 2034 -91 
Q 1250 -91 836 529 
Q 422 1150 422 2328 
Q 422 3509 836 4129 
Q 1250 4750 2034 4750 
z
" transform="scale(0.015625)"/>
       </defs>
       <use xlink:href="#DejaVuSans-30"/>
      </g>
     </g>
    </g>
    <g id="xtick_2">
     <g id="line2d_2">
      <g>
       <use xlink:href="#me1e6ccbf41" x="307.264974" y="205.24" style="stroke: #000000; stroke-width: 0.8"/>
      </g>
     </g>
     <g id="text_2">
      <!-- 100 -->
      <g transform="translate(297.721224 219.838437) scale(0.1 -0.1)">
       <defs>
        <path id="DejaVuSans-31" d="M 794 531 
L 1825 531 
L 1825 4091 
L 703 3866 
L 703 4441 
L 1819 4666 
L 2450 4666 
L 2450 531 
L 3481 531 
L 3481 0 
L 794 0 
L 794 531 
z
" transform="scale(0.015625)"/>
       </defs>
       <use xlink:href="#DejaVuSans-31"/>
       <use xlink:href="#DejaVuSans-30" transform="translate(63.623047 0)"/>
       <use xlink:href="#DejaVuSans-30" transform="translate(127.246094 0)"/>
      </g>
     </g>
    </g>
    <g id="xtick_3">
     <g id="line2d_3">
      <g>
       <use xlink:href="#me1e6ccbf41" x="512.389493" y="205.24" style="stroke: #000000; stroke-width: 0.8"/>
      </g>
     </g>
     <g id="text_3">
      <!-- 200 -->
      <g transform="translate(502.845743 219.838437) scale(0.1 -0.1)">
       <defs>
        <path id="DejaVuSans-32" d="M 1228 531 
L 3431 531 
L 3431 0 
L 469 0 
L 469 531 
Q 828 903 1448 1529 
Q 2069 2156 2228 2338 
Q 2531 2678 2651 2914 
Q 2772 3150 2772 3378 
Q 2772 3750 2511 3984 
Q 2250 4219 1831 4219 
Q 1534 4219 1204 4116 
Q 875 4013 500 3803 
L 500 4441 
Q 881 4594 1212 4672 
Q 1544 4750 1819 4750 
Q 2544 4750 2975 4387 
Q 3406 4025 3406 3419 
Q 3406 3131 3298 2873 
Q 3191 2616 2906 2266 
Q 2828 2175 2409 1742 
Q 1991 1309 1228 531 
z
" transform="scale(0.015625)"/>
       </defs>
       <use xlink:href="#DejaVuSans-32"/>
       <use xlink:href="#DejaVuSans-30" transform="translate(63.623047 0)"/>
       <use xlink:href="#DejaVuSans-30" transform="translate(127.246094 0)"/>
      </g>
     </g>
    </g>
    <g id="xtick_4">
     <g id="line2d_4">
      <g>
       <use xlink:href="#me1e6ccbf41" x="717.514012" y="205.24" style="stroke: #000000; stroke-width: 0.8"/>
      </g>
     </g>
     <g id="text_4">
      <!-- 300 -->
      <g transform="translate(707.970262 219.838437) scale(0.1 -0.1)">
       <defs>
        <path id="DejaVuSans-33" d="M 2597 2516 
Q 3050 2419 3304 2112 
Q 3559 1806 3559 1356 
Q 3559 666 3084 287 
Q 2609 -91 1734 -91 
Q 1441 -91 1130 -33 
Q 819 25 488 141 
L 488 750 
Q 750 597 1062 519 
Q 1375 441 1716 441 
Q 2309 441 2620 675 
Q 2931 909 2931 1356 
Q 2931 1769 2642 2001 
Q 2353 2234 1838 2234 
L 1294 2234 
L 1294 2753 
L 1863 2753 
Q 2328 2753 2575 2939 
Q 2822 3125 2822 3475 
Q 2822 3834 2567 4026 
Q 2313 4219 1838 4219 
Q 1578 4219 1281 4162 
Q 984 4106 628 3988 
L 628 4550 
Q 988 4650 1302 4700 
Q 1616 4750 1894 4750 
Q 2613 4750 3031 4423 
Q 3450 4097 3450 3541 
Q 3450 3153 3228 2886 
Q 3006 2619 2597 2516 
z
" transform="scale(0.015625)"/>
       </defs>
       <use xlink:href="#DejaVuSans-33"/>
       <use xlink:href="#DejaVuSans-30" transform="translate(63.623047 0)"/>
       <use xlink:href="#DejaVuSans-30" transform="translate(127.246094 0)"/>
      </g>
     </g>
    </g>
    <g id="xtick_5">
     <g id="line2d_5">
      <g>
       <use xlink:href="#me1e6ccbf41" x="922.638531" y="205.24" style="stroke: #000000; stroke-width: 0.8"/>
      </g>
     </g>
     <g id="text_5">
      <!-- 400 -->
      <g transform="translate(913.094781 219.838437) scale(0.1 -0.1)">
       <defs>
        <path id="DejaVuSans-34" d="M 2419 4116 
L 825 1625 
L 2419 1625 
L 2419 4116 
z
M 2253 4666 
L 3047 4666 
L 3047 1625 
L 3713 1625 
L 3713 1100 
L 3047 1100 
L 3047 0 
L 2419 0 
L 2419 1100 
L 313 1100 
L 313 1709 
L 2253 4666 
z
" transform="scale(0.015625)"/>
       </defs>
       <use xlink:href="#DejaVuSans-34"/>
       <use xlink:href="#DejaVuSans-30" transform="translate(63.623047 0)"/>
       <use xlink:href="#DejaVuSans-30" transform="translate(127.246094 0)"/>
      </g>
     </g>
    </g>
    <g id="text_6">
     <!-- Sample Index -->
     <g transform="translate(528.541094 233.516563) scale(0.1 -0.1)">
      <defs>
       <path id="DejaVuSans-53" d="M 3425 4513 
L 3425 3897 
Q 3066 4069 2747 4153 
Q 2428 4238 2131 4238 
Q 1616 4238 1336 4038 
Q 1056 3838 1056 3469 
Q 1056 3159 1242 3001 
Q 1428 2844 1947 2747 
L 2328 2669 
Q 3034 2534 3370 2195 
Q 3706 1856 3706 1288 
Q 3706 609 3251 259 
Q 2797 -91 1919 -91 
Q 1588 -91 1214 -16 
Q 841 59 441 206 
L 441 856 
Q 825 641 1194 531 
Q 1563 422 1919 422 
Q 2459 422 2753 634 
Q 3047 847 3047 1241 
Q 3047 1584 2836 1778 
Q 2625 1972 2144 2069 
L 1759 2144 
Q 1053 2284 737 2584 
Q 422 2884 422 3419 
Q 422 4038 858 4394 
Q 1294 4750 2059 4750 
Q 2388 4750 2728 4690 
Q 3069 4631 3425 4513 
z
" transform="scale(0.015625)"/>
       <path id="DejaVuSans-61" d="M 2194 1759 
Q 1497 1759 1228 1600 
Q 959 1441 959 1056 
Q 959 750 1161 570 
Q 1363 391 1709 391 
Q 2188 391 2477 730 
Q 2766 1069 2766 1631 
L 2766 1759 
L 2194 1759 
z
M 3341 1997 
L 3341 0 
L 2766 0 
L 2766 531 
Q 2569 213 2275 61 
Q 1981 -91 1556 -91 
Q 1019 -91 701 211 
Q 384 513 384 1019 
Q 384 1609 779 1909 
Q 1175 2209 1959 2209 
L 2766 2209 
L 2766 2266 
Q 2766 2663 2505 2880 
Q 2244 3097 1772 3097 
Q 1472 3097 1187 3025 
Q 903 2953 641 2809 
L 641 3341 
Q 956 3463 1253 3523 
Q 1550 3584 1831 3584 
Q 2591 3584 2966 3190 
Q 3341 2797 3341 1997 
z
" transform="scale(0.015625)"/>
       <path id="DejaVuSans-6d" d="M 3328 2828 
Q 3544 3216 3844 3400 
Q 4144 3584 4550 3584 
Q 5097 3584 5394 3201 
Q 5691 2819 5691 2113 
L 5691 0 
L 5113 0 
L 5113 2094 
Q 5113 2597 4934 2840 
Q 4756 3084 4391 3084 
Q 3944 3084 3684 2787 
Q 3425 2491 3425 1978 
L 3425 0 
L 2847 0 
L 2847 2094 
Q 2847 2600 2669 2842 
Q 2491 3084 2119 3084 
Q 1678 3084 1418 2786 
Q 1159 2488 1159 1978 
L 1159 0 
L 581 0 
L 581 3500 
L 1159 3500 
L 1159 2956 
Q 1356 3278 1631 3431 
Q 1906 3584 2284 3584 
Q 2666 3584 2933 3390 
Q 3200 3197 3328 2828 
z
" transform="scale(0.015625)"/>
       <path id="DejaVuSans-70" d="M 1159 525 
L 1159 -1331 
L 581 -1331 
L 581 3500 
L 1159 3500 
L 1159 2969 
Q 1341 3281 1617 3432 
Q 1894 3584 2278 3584 
Q 2916 3584 3314 3078 
Q 3713 2572 3713 1747 
Q 3713 922 3314 415 
Q 2916 -91 2278 -91 
Q 1894 -91 1617 61 
Q 1341 213 1159 525 
z
M 3116 1747 
Q 3116 2381 2855 2742 
Q 2594 3103 2138 3103 
Q 1681 3103 1420 2742 
Q 1159 2381 1159 1747 
Q 1159 1113 1420 752 
Q 1681 391 2138 391 
Q 2594 391 2855 752 
Q 3116 1113 3116 1747 
z
" transform="scale(0.015625)"/>
       <path id="DejaVuSans-6c" d="M 603 4863 
L 1178 4863 
L 1178 0 
L 603 0 
L 603 4863 
z
" transform="scale(0.015625)"/>
       <path id="DejaVuSans-65" d="M 3597 1894 
L 3597 1613 
L 953 1613 
Q 991 1019 1311 708 
Q 1631 397 2203 397 
Q 2534 397 2845 478 
Q 3156 559 3463 722 
L 3463 178 
Q 3153 47 2828 -22 
Q 2503 -91 2169 -91 
Q 1331 -91 842 396 
Q 353 884 353 1716 
Q 353 2575 817 3079 
Q 1281 3584 2069 3584 
Q 2775 3584 3186 3129 
Q 3597 2675 3597 1894 
z
M 3022 2063 
Q 3016 2534 2758 2815 
Q 2500 3097 2075 3097 
Q 1594 3097 1305 2825 
Q 1016 2553 972 2059 
L 3022 2063 
z
" transform="scale(0.015625)"/>
       <path id="DejaVuSans-20" transform="scale(0.015625)"/>
       <path id="DejaVuSans-49" d="M 628 4666 
L 1259 4666 
L 1259 0 
L 628 0 
L 628 4666 
z
" transform="scale(0.015625)"/>
       <path id="DejaVuSans-6e" d="M 3513 2113 
L 3513 0 
L 2938 0 
L 2938 2094 
Q 2938 2591 2744 2837 
Q 2550 3084 2163 3084 
Q 1697 3084 1428 2787 
Q 1159 2491 1159 1978 
L 1159 0 
L 581 0 
L 581 3500 
L 1159 3500 
L 1159 2956 
Q 1366 3272 1645 3428 
Q 1925 3584 2291 3584 
Q 2894 3584 3203 3211 
Q 3513 2838 3513 2113 
z
" transform="scale(0.015625)"/>
       <path id="DejaVuSans-64" d="M 2906 2969 
L 2906 4863 
L 3481 4863 
L 3481 0 
L 2906 0 
L 2906 525 
Q 2725 213 2448 61 
Q 2172 -91 1784 -91 
Q 1150 -91 751 415 
Q 353 922 353 1747 
Q 353 2572 751 3078 
Q 1150 3584 1784 3584 
Q 2172 3584 2448 3432 
Q 2725 3281 2906 2969 
z
M 947 1747 
Q 947 1113 1208 752 
Q 1469 391 1925 391 
Q 2381 391 2643 752 
Q 2906 1113 2906 1747 
Q 2906 2381 2643 2742 
Q 2381 3103 1925 3103 
Q 1469 3103 1208 2742 
Q 947 2381 947 1747 
z
" transform="scale(0.015625)"/>
       <path id="DejaVuSans-78" d="M 3513 3500 
L 2247 1797 
L 3578 0 
L 2900 0 
L 1881 1375 
L 863 0 
L 184 0 
L 1544 1831 
L 300 3500 
L 978 3500 
L 1906 2253 
L 2834 3500 
L 3513 3500 
z
" transform="scale(0.015625)"/>
      </defs>
      <use xlink:href="#DejaVuSans-53"/>
      <use xlink:href="#DejaVuSans-61" transform="translate(63.476562 0)"/>
      <use xlink:href="#DejaVuSans-6d" transform="translate(124.755859 0)"/>
      <use xlink:href="#DejaVuSans-70" transform="translate(222.167969 0)"/>
      <use xlink:href="#DejaVuSans-6c" transform="translate(285.644531 0)"/>
      <use xlink:href="#DejaVuSans-65" transform="translate(313.427734 0)"/>
      <use xlink:href="#DejaVuSans-20" transform="translate(374.951172 0)"/>
      <use xlink:href="#DejaVuSans-49" transform="translate(406.738281 0)"/>
      <use xlink:href="#DejaVuSans-6e" transform="translate(436.230469 0)"/>
      <use xlink:href="#DejaVuSans-64" transform="translate(499.609375 0)"/>
      <use xlink:href="#DejaVuSans-65" transform="translate(563.085938 0)"/>
      <use xlink:href="#DejaVuSans-78" transform="translate(622.859375 0)"/>
     </g>
    </g>
   </g>
   <g id="matplotlib.axis_2">
    <g id="ytick_1">
     <g id="line2d_6">
      <defs>
       <path id="m871dcd2dd6" d="M 0 0 
L -3.5 0 
" style="stroke: #000000; stroke-width: 0.8"/>
      </defs>
      <g>
       <use xlink:href="#m871dcd2dd6" x="56.09" y="197.914388" style="stroke: #000000; stroke-width: 0.8"/>
      </g>
     </g>
     <g id="text_7">
      <!-- −0.2 -->
      <g transform="translate(24.807188 201.713607) scale(0.1 -0.1)">
       <defs>
        <path id="DejaVuSans-2212" d="M 678 2272 
L 4684 2272 
L 4684 1741 
L 678 1741 
L 678 2272 
z
" transform="scale(0.015625)"/>
        <path id="DejaVuSans-2e" d="M 684 794 
L 1344 794 
L 1344 0 
L 684 0 
L 684 794 
z
" transform="scale(0.015625)"/>
       </defs>
       <use xlink:href="#DejaVuSans-2212"/>
       <use xlink:href="#DejaVuSans-30" transform="translate(83.789062 0)"/>
       <use xlink:href="#DejaVuSans-2e" transform="translate(147.412109 0)"/>
       <use xlink:href="#DejaVuSans-32" transform="translate(179.199219 0)"/>
      </g>
     </g>
    </g>
    <g id="ytick_2">
     <g id="line2d_7">
      <g>
       <use xlink:href="#m871dcd2dd6" x="56.09" y="173.572767" style="stroke: #000000; stroke-width: 0.8"/>
      </g>
     </g>
     <g id="text_8">
      <!-- −0.1 -->
      <g transform="translate(24.807188 177.371985) scale(0.1 -0.1)">
       <use xlink:href="#DejaVuSans-2212"/>
       <use xlink:href="#DejaVuSans-30" transform="translate(83.789062 0)"/>
       <use xlink:href="#DejaVuSans-2e" transform="translate(147.412109 0)"/>
       <use xlink:href="#DejaVuSans-31" transform="translate(179.199219 0)"/>
      </g>
     </g>
    </g>
    <g id="ytick_3">
     <g id="line2d_8">
      <g>
       <use xlink:href="#m871dcd2dd6" x="56.09" y="149.231145" style="stroke: #000000; stroke-width: 0.8"/>
      </g>
     </g>
     <g id="text_9">
      <!-- 0.0 -->
      <g transform="translate(33.186875 153.030363) scale(0.1 -0.1)">
       <use xlink:href="#DejaVuSans-30"/>
       <use xlink:href="#DejaVuSans-2e" transform="translate(63.623047 0)"/>
       <use xlink:href="#DejaVuSans-30" transform="translate(95.410156 0)"/>
      </g>
     </g>
    </g>
    <g id="ytick_4">
     <g id="line2d_9">
      <g>
       <use xlink:href="#m871dcd2dd6" x="56.09" y="124.889523" style="stroke: #000000; stroke-width: 0.8"/>
      </g>
     </g>
     <g id="text_10">
      <!-- 0.1 -->
      <g transform="translate(33.186875 128.688741) scale(0.1 -0.1)">
       <use xlink:href="#DejaVuSans-30"/>
       <use xlink:href="#DejaVuSans-2e" transform="translate(63.623047 0)"/>
       <use xlink:href="#DejaVuSans-31" transform="translate(95.410156 0)"/>
      </g>
     </g>
    </g>
    <g id="ytick_5">
     <g id="line2d_10">
      <g>
       <use xlink:href="#m871dcd2dd6" x="56.09" y="100.547901" style="stroke: #000000; stroke-width: 0.8"/>
      </g>
     </g>
     <g id="text_11">
      <!-- 0.2 -->
      <g transform="translate(33.186875 104.34712) scale(0.1 -0.1)">
       <use xlink:href="#DejaVuSans-30"/>
       <use xlink:href="#DejaVuSans-2e" transform="translate(63.623047 0)"/>
       <use xlink:href="#DejaVuSans-32" transform="translate(95.410156 0)"/>
      </g>
     </g>
    </g>
    <g id="ytick_6">
     <g id="line2d_11">
      <g>
       <use xlink:href="#m871dcd2dd6" x="56.09" y="76.206279" style="stroke: #000000; stroke-width: 0.8"/>
      </g>
     </g>
     <g id="text_12">
      <!-- 0.3 -->
      <g transform="translate(33.186875 80.005498) scale(0.1 -0.1)">
       <use xlink:href="#DejaVuSans-30"/>
       <use xlink:href="#DejaVuSans-2e" transform="translate(63.623047 0)"/>
       <use xlink:href="#DejaVuSans-33" transform="translate(95.410156 0)"/>
      </g>
     </g>
    </g>
    <g id="ytick_7">
     <g id="line2d_12">
      <g>
       <use xlink:href="#m871dcd2dd6" x="56.09" y="51.864657" style="stroke: #000000; stroke-width: 0.8"/>
      </g>
     </g>
     <g id="text_13">
      <!-- 0.4 -->
      <g transform="translate(33.186875 55.663876) scale(0.1 -0.1)">
       <use xlink:href="#DejaVuSans-30"/>
       <use xlink:href="#DejaVuSans-2e" transform="translate(63.623047 0)"/>
       <use xlink:href="#DejaVuSans-34" transform="translate(95.410156 0)"/>
      </g>
     </g>
    </g>
    <g id="ytick_8">
     <g id="line2d_13">
      <g>
       <use xlink:href="#m871dcd2dd6" x="56.09" y="27.523035" style="stroke: #000000; stroke-width: 0.8"/>
      </g>
     </g>
     <g id="text_14">
      <!-- 0.5 -->
      <g transform="translate(33.186875 31.322254) scale(0.1 -0.1)">
       <defs>
        <path id="DejaVuSans-35" d="M 691 4666 
L 3169 4666 
L 3169 4134 
L 1269 4134 
L 1269 2991 
Q 1406 3038 1543 3061 
Q 1681 3084 1819 3084 
Q 2600 3084 3056 2656 
Q 3513 2228 3513 1497 
Q 3513 744 3044 326 
Q 2575 -91 1722 -91 
Q 1428 -91 1123 -41 
Q 819 9 494 109 
L 494 744 
Q 775 591 1075 516 
Q 1375 441 1709 441 
Q 2250 441 2565 725 
Q 2881 1009 2881 1497 
Q 2881 1984 2565 2268 
Q 2250 2553 1709 2553 
Q 1456 2553 1204 2497 
Q 953 2441 691 2322 
L 691 4666 
z
" transform="scale(0.015625)"/>
       </defs>
       <use xlink:href="#DejaVuSans-30"/>
       <use xlink:href="#DejaVuSans-2e" transform="translate(63.623047 0)"/>
       <use xlink:href="#DejaVuSans-35" transform="translate(95.410156 0)"/>
      </g>
     </g>
    </g>
    <g id="text_15">
     <!-- Amplitude -->
     <g transform="translate(18.7275 141.682656) rotate(-90) scale(0.1 -0.1)">
      <defs>
       <path id="DejaVuSans-41" d="M 2188 4044 
L 1331 1722 
L 3047 1722 
L 2188 4044 
z
M 1831 4666 
L 2547 4666 
L 4325 0 
L 3669 0 
L 3244 1197 
L 1141 1197 
L 716 0 
L 50 0 
L 1831 4666 
z
" transform="scale(0.015625)"/>
       <path id="DejaVuSans-69" d="M 603 3500 
L 1178 3500 
L 1178 0 
L 603 0 
L 603 3500 
z
M 603 4863 
L 1178 4863 
L 1178 4134 
L 603 4134 
L 603 4863 
z
" transform="scale(0.015625)"/>
       <path id="DejaVuSans-74" d="M 1172 4494 
L 1172 3500 
L 2356 3500 
L 2356 3053 
L 1172 3053 
L 1172 1153 
Q 1172 725 1289 603 
Q 1406 481 1766 481 
L 2356 481 
L 2356 0 
L 1766 0 
Q 1100 0 847 248 
Q 594 497 594 1153 
L 594 3053 
L 172 3053 
L 172 3500 
L 594 3500 
L 594 4494 
L 1172 4494 
z
" transform="scale(0.015625)"/>
       <path id="DejaVuSans-75" d="M 544 1381 
L 544 3500 
L 1119 3500 
L 1119 1403 
Q 1119 906 1312 657 
Q 1506 409 1894 409 
Q 2359 409 2629 706 
Q 2900 1003 2900 1516 
L 2900 3500 
L 3475 3500 
L 3475 0 
L 2900 0 
L 2900 538 
Q 2691 219 2414 64 
Q 2138 -91 1772 -91 
Q 1169 -91 856 284 
Q 544 659 544 1381 
z
M 1991 3584 
L 1991 3584 
z
" transform="scale(0.015625)"/>
      </defs>
      <use xlink:href="#DejaVuSans-41"/>
      <use xlink:href="#DejaVuSans-6d" transform="translate(68.408203 0)"/>
      <use xlink:href="#DejaVuSans-70" transform="translate(165.820312 0)"/>
      <use xlink:href="#DejaVuSans-6c" transform="translate(229.296875 0)"/>
      <use xlink:href="#DejaVuSans-69" transform="translate(257.080078 0)"/>
      <use xlink:href="#DejaVuSans-74" transform="translate(284.863281 0)"/>
      <use xlink:href="#DejaVuSans-75" transform="translate(324.072266 0)"/>
      <use xlink:href="#DejaVuSans-64" transform="translate(387.451172 0)"/>
      <use xlink:href="#DejaVuSans-65" transform="translate(450.927734 0)"/>
     </g>
    </g>
   </g>
   <g id="line2d_14">
    <path d="M 102.140455 34.987273 
L 104.1917 49.661018 
L 106.242945 81.457924 
L 108.29419 116.360465 
L 110.345435 144.382681 
L 112.396681 164.922982 
L 114.447926 175.180377 
L 116.499171 172.738625 
L 118.550416 167.362728 
L 120.601661 159.285276 
L 122.652906 149.773378 
L 124.704152 145.356158 
L 126.755397 134.93235 
L 128.806642 141.510256 
L 130.857887 134.93235 
L 134.960378 134.93235 
L 137.011623 133.572722 
L 139.062868 134.93235 
L 141.114113 128.854606 
L 143.165358 124.315588 
L 145.216604 124.582369 
L 147.267849 121.781285 
L 149.319094 117.794701 
L 151.370339 112.38506 
L 153.421584 107.487219 
L 155.47283 103.119991 
L 157.524075 95.716694 
L 159.57532 91.785813 
L 161.626565 84.481777 
L 163.67781 81.89109 
L 165.729055 80.14159 
L 167.780301 77.805792 
L 169.831546 77.613798 
L 171.882791 73.778856 
L 173.934036 73.782548 
L 175.985281 74.239341 
L 178.036527 73.946852 
L 180.087772 71.890768 
L 182.139017 76.257202 
L 184.190262 78.09815 
L 186.241507 79.066485 
L 188.292753 80.77338 
L 190.343998 84.31357 
L 192.395243 86.234128 
L 194.446488 87.796225 
L 196.497733 89.824725 
L 198.548979 94.460132 
L 200.600224 97.561523 
L 202.651469 100.005803 
L 206.753959 101.603208 
L 208.805204 102.863136 
L 210.85645 104.747044 
L 212.907695 105.317049 
L 214.95894 106.668313 
L 217.010185 107.732801 
L 219.06143 108.331119 
L 221.112676 109.874824 
L 223.163921 108.624421 
L 225.215166 108.839205 
L 227.266411 105.824583 
L 229.317656 109.139681 
L 231.368902 108.746015 
L 233.420147 108.073695 
L 235.471392 107.167794 
L 237.522637 106.114899 
L 239.573882 105.877848 
L 241.625128 107.247854 
L 243.676373 105.665476 
L 245.727618 105.056545 
L 247.778863 105.815406 
L 249.830108 107.54603 
L 253.932599 108.445097 
L 255.983844 51.520204 
L 258.035089 59.182333 
L 260.086334 66.381815 
L 264.188825 121.440888 
L 266.24007 134.93235 
L 268.291315 134.93235 
L 270.34256 146.139895 
L 272.393805 144.060947 
L 274.445051 134.93235 
L 278.547541 134.93235 
L 280.598786 132.404988 
L 282.650031 132.387391 
L 284.701277 128.600324 
L 286.752522 130.175808 
L 288.803767 127.799057 
L 290.855012 127.583175 
L 292.906257 128.310869 
L 294.957503 128.389443 
L 297.008748 127.12782 
L 299.059993 126.317186 
L 301.111238 124.695307 
L 303.162483 126.711825 
L 305.213728 122.584819 
L 307.264974 124.20025 
L 309.316219 121.784578 
L 311.367464 119.84945 
L 313.418709 114.76742 
L 317.5212 108.294967 
L 319.572445 106.18778 
L 321.62369 105.126531 
L 323.674935 107.385382 
L 325.72618 111.420001 
L 327.777426 113.203803 
L 329.828671 113.957194 
L 331.879916 113.538334 
L 333.931161 110.938441 
L 335.982406 111.927846 
L 338.033652 114.72306 
L 340.084897 115.832782 
L 342.136142 118.21306 
L 346.238632 121.948717 
L 348.289878 123.647373 
L 350.341123 126.656411 
L 352.392368 128.66214 
L 356.494858 135.832486 
L 358.546103 134.93235 
L 360.597349 134.93235 
L 362.648594 139.988252 
L 364.699839 144.4033 
L 366.751084 145.934275 
L 368.802329 145.898982 
L 370.853575 134.93235 
L 372.90482 147.052682 
L 374.956065 134.93235 
L 377.00731 134.93235 
L 379.058555 148.557485 
L 381.109801 149.52063 
L 383.161046 149.87719 
L 385.212291 152.098977 
L 387.263536 150.435879 
L 389.314781 151.059228 
L 391.366027 134.93235 
L 393.417272 151.033936 
L 395.468517 152.587682 
L 397.519762 151.522788 
L 399.571007 153.752549 
L 401.622252 152.716988 
L 403.673498 154.38092 
L 405.724743 154.289657 
L 407.775988 154.712378 
L 409.827233 93.952275 
L 411.878478 99.386349 
L 413.929724 123.559447 
L 415.980969 151.524756 
L 418.032214 170.309424 
L 420.083459 183.291069 
L 424.18595 197.132727 
L 426.237195 191.431211 
L 428.28844 188.733304 
L 430.339685 190.727123 
L 432.39093 183.309513 
L 434.442176 179.669224 
L 436.493421 181.373765 
L 438.544666 175.991879 
L 440.595911 174.729619 
L 442.647156 177.722424 
L 444.698401 172.187123 
L 446.749647 171.216474 
L 448.800892 175.046599 
L 450.852137 167.767932 
L 452.903382 173.497987 
L 454.954627 165.390124 
L 457.005873 162.792216 
L 459.057118 162.293509 
L 463.159608 161.684898 
L 465.210853 154.79614 
L 467.262099 152.98508 
L 469.313344 151.390541 
L 471.364589 147.961594 
L 473.415834 134.93235 
L 475.467079 142.255651 
L 477.518325 140.298779 
L 479.56957 140.587684 
L 481.620815 139.281722 
L 483.67206 134.93235 
L 485.723305 137.740731 
L 487.774551 137.095632 
L 489.825796 138.17989 
L 491.877041 134.726456 
L 493.928286 134.300151 
L 495.979531 135.872472 
L 498.030776 134.93235 
L 504.184512 134.93235 
L 506.235757 141.281776 
L 508.287002 142.323667 
L 510.338248 134.93235 
L 512.389493 147.363782 
L 516.491983 149.334705 
L 518.543228 149.519379 
L 522.645719 151.935239 
L 524.696964 152.607584 
L 526.748209 150.738727 
L 528.799454 150.658573 
L 530.8507 148.550657 
L 532.901945 147.495751 
L 534.95319 148.073012 
L 537.004435 147.870065 
L 539.05568 148.110874 
L 541.106925 146.835072 
L 543.158171 145.234283 
L 545.209416 144.230045 
L 547.260661 144.038491 
L 549.311906 141.098423 
L 551.363151 138.698034 
L 553.414397 134.087953 
L 555.465642 131.589093 
L 557.516887 130.972153 
L 559.568132 128.205122 
L 561.619377 125.958744 
L 563.670623 34.987273 
L 565.721868 49.661018 
L 567.773113 81.457924 
L 569.824358 116.360465 
L 571.875603 144.382681 
L 573.926849 164.922982 
L 575.978094 175.180377 
L 578.029339 172.738625 
L 580.080584 167.362728 
L 582.131829 159.285276 
L 584.183075 149.773378 
L 586.23432 145.356158 
L 588.285565 134.93235 
L 590.33681 141.510256 
L 592.388055 134.93235 
L 596.490546 134.93235 
L 598.541791 133.572722 
L 600.593036 134.93235 
L 602.644281 128.854606 
L 604.695526 124.315588 
L 606.746772 124.582369 
L 608.798017 121.781285 
L 610.849262 117.794701 
L 612.900507 112.38506 
L 614.951752 107.487219 
L 617.002998 103.119991 
L 619.054243 95.716694 
L 621.105488 91.785813 
L 623.156733 84.481777 
L 625.207978 81.89109 
L 627.259224 80.14159 
L 629.310469 77.805792 
L 631.361714 77.613798 
L 633.412959 73.778856 
L 635.464204 73.782548 
L 637.515449 74.239341 
L 639.566695 73.946852 
L 641.61794 71.890768 
L 643.669185 76.257202 
L 645.72043 78.09815 
L 647.771675 79.066485 
L 649.822921 80.77338 
L 651.874166 84.31357 
L 653.925411 86.234128 
L 655.976656 87.796225 
L 658.027901 89.824725 
L 660.079147 94.460132 
L 662.130392 97.561523 
L 664.181637 100.005803 
L 668.284127 101.603208 
L 670.335373 102.863136 
L 672.386618 104.747044 
L 674.437863 105.317049 
L 676.489108 106.668313 
L 678.540353 107.732801 
L 680.591599 108.331119 
L 682.642844 109.874824 
L 684.694089 108.624421 
L 686.745334 108.839205 
L 688.796579 105.824583 
L 690.847824 109.139681 
L 692.89907 108.746015 
L 694.950315 108.073695 
L 697.00156 107.167794 
L 699.052805 106.114899 
L 701.10405 105.877848 
L 703.155296 107.247854 
L 705.206541 105.665476 
L 707.257786 105.056545 
L 709.309031 105.815406 
L 711.360276 107.54603 
L 715.462767 108.445097 
L 717.514012 51.520204 
L 719.565257 59.182333 
L 721.616502 66.381815 
L 725.718993 121.440888 
L 727.770238 134.93235 
L 729.821483 134.93235 
L 731.872728 146.139895 
L 733.923973 144.060947 
L 735.975219 134.93235 
L 740.077709 134.93235 
L 742.128954 132.404988 
L 744.180199 132.387391 
L 746.231445 128.600324 
L 748.28269 130.175808 
L 750.333935 127.799057 
L 752.38518 127.583175 
L 754.436425 128.310869 
L 756.487671 128.389443 
L 758.538916 127.12782 
L 760.590161 126.317186 
L 762.641406 124.695307 
L 764.692651 126.711825 
L 766.743897 122.584819 
L 768.795142 124.20025 
L 770.846387 121.784578 
L 772.897632 119.84945 
L 774.948877 114.76742 
L 779.051368 108.294967 
L 781.102613 106.18778 
L 783.153858 105.126531 
L 785.205103 107.385382 
L 787.256348 111.420001 
L 789.307594 113.203803 
L 791.358839 113.957194 
L 793.410084 113.538334 
L 795.461329 110.938441 
L 797.512574 111.927846 
L 799.56382 114.72306 
L 801.615065 115.832782 
L 803.66631 118.21306 
L 807.7688 121.948717 
L 809.820046 123.647373 
L 811.871291 126.656411 
L 813.922536 128.66214 
L 818.025026 135.832486 
L 820.076272 134.93235 
L 822.127517 134.93235 
L 824.178762 139.988252 
L 826.230007 144.4033 
L 828.281252 145.934275 
L 830.332497 145.898982 
L 832.383743 134.93235 
L 834.434988 147.052682 
L 836.486233 134.93235 
L 838.537478 134.93235 
L 840.588723 148.557485 
L 842.639969 149.52063 
L 844.691214 149.87719 
L 846.742459 152.098977 
L 848.793704 150.435879 
L 850.844949 151.059228 
L 852.896195 134.93235 
L 854.94744 151.033936 
L 856.998685 152.587682 
L 859.04993 151.522788 
L 861.101175 153.752549 
L 863.152421 152.716988 
L 865.203666 154.38092 
L 867.254911 154.289657 
L 869.306156 154.712378 
L 871.357401 93.952275 
L 873.408646 99.386349 
L 875.459892 123.559447 
L 877.511137 151.524756 
L 879.562382 170.309424 
L 881.613627 183.291069 
L 885.716118 197.132727 
L 887.767363 191.431211 
L 889.818608 188.733304 
L 891.869853 190.727123 
L 893.921098 183.309513 
L 895.972344 179.669224 
L 898.023589 181.373765 
L 900.074834 175.991879 
L 902.126079 174.729619 
L 904.177324 177.722424 
L 906.22857 172.187123 
L 908.279815 171.216474 
L 910.33106 175.046599 
L 912.382305 167.767932 
L 914.43355 173.497987 
L 916.484796 165.390124 
L 918.536041 162.792216 
L 920.587286 162.293509 
L 924.689776 161.684898 
L 926.741021 154.79614 
L 928.792267 152.98508 
L 930.843512 151.390541 
L 932.894757 147.961594 
L 934.946002 134.93235 
L 936.997247 142.255651 
L 939.048493 140.298779 
L 941.099738 140.587684 
L 943.150983 139.281722 
L 945.202228 134.93235 
L 947.253473 137.740731 
L 949.304719 137.095632 
L 951.355964 138.17989 
L 953.407209 134.726456 
L 955.458454 134.300151 
L 957.509699 135.872472 
L 959.560945 134.93235 
L 965.71468 134.93235 
L 967.765925 141.281776 
L 969.81717 142.323667 
L 971.868416 134.93235 
L 973.919661 147.363782 
L 978.022151 149.334705 
L 980.073396 149.519379 
L 984.175887 151.935239 
L 986.227132 152.607584 
L 988.278377 150.738727 
L 990.329622 150.658573 
L 992.380868 148.550657 
L 994.432113 147.495751 
L 996.483358 148.073012 
L 998.534603 147.870065 
L 1000.585848 148.110874 
L 1002.637094 146.835072 
L 1004.688339 145.234283 
L 1006.739584 144.230045 
L 1008.790829 144.038491 
L 1010.842074 141.098423 
L 1012.893319 138.698034 
L 1014.944565 134.087953 
L 1016.99581 131.589093 
L 1019.047055 130.972153 
L 1021.0983 128.205122 
L 1023.149545 125.958744 
L 1023.149545 125.958744 
" clip-path="url(#p87edf6ab25)" style="fill: none; stroke: #1f77b4; stroke-width: 1.5; stroke-linecap: square"/>
   </g>
   <g id="patch_3">
    <path d="M 56.09 205.24 
L 56.09 26.88 
" style="fill: none; stroke: #000000; stroke-width: 0.8; stroke-linejoin: miter; stroke-linecap: square"/>
   </g>
   <g id="patch_4">
    <path d="M 1069.2 205.24 
L 1069.2 26.88 
" style="fill: none; stroke: #000000; stroke-width: 0.8; stroke-linejoin: miter; stroke-linecap: square"/>
   </g>
   <g id="patch_5">
    <path d="M 56.09 205.24 
L 1069.2 205.24 
" style="fill: none; stroke: #000000; stroke-width: 0.8; stroke-linejoin: miter; stroke-linecap: square"/>
   </g>
   <g id="patch_6">
    <path d="M 56.09 26.88 
L 1069.2 26.88 
" style="fill: none; stroke: #000000; stroke-width: 0.8; stroke-linejoin: miter; stroke-linecap: square"/>
   </g>
   <g id="text_16">
    <!-- Generated Signal 1 -->
    <g transform="translate(504.750625 20.88) scale(0.12 -0.12)">
     <defs>
      <path id="DejaVuSans-47" d="M 3809 666 
L 3809 1919 
L 2778 1919 
L 2778 2438 
L 4434 2438 
L 4434 434 
Q 4069 175 3628 42 
Q 3188 -91 2688 -91 
Q 1594 -91 976 548 
Q 359 1188 359 2328 
Q 359 3472 976 4111 
Q 1594 4750 2688 4750 
Q 3144 4750 3555 4637 
Q 3966 4525 4313 4306 
L 4313 3634 
Q 3963 3931 3569 4081 
Q 3175 4231 2741 4231 
Q 1884 4231 1454 3753 
Q 1025 3275 1025 2328 
Q 1025 1384 1454 906 
Q 1884 428 2741 428 
Q 3075 428 3337 486 
Q 3600 544 3809 666 
z
" transform="scale(0.015625)"/>
      <path id="DejaVuSans-72" d="M 2631 2963 
Q 2534 3019 2420 3045 
Q 2306 3072 2169 3072 
Q 1681 3072 1420 2755 
Q 1159 2438 1159 1844 
L 1159 0 
L 581 0 
L 581 3500 
L 1159 3500 
L 1159 2956 
Q 1341 3275 1631 3429 
Q 1922 3584 2338 3584 
Q 2397 3584 2469 3576 
Q 2541 3569 2628 3553 
L 2631 2963 
z
" transform="scale(0.015625)"/>
      <path id="DejaVuSans-67" d="M 2906 1791 
Q 2906 2416 2648 2759 
Q 2391 3103 1925 3103 
Q 1463 3103 1205 2759 
Q 947 2416 947 1791 
Q 947 1169 1205 825 
Q 1463 481 1925 481 
Q 2391 481 2648 825 
Q 2906 1169 2906 1791 
z
M 3481 434 
Q 3481 -459 3084 -895 
Q 2688 -1331 1869 -1331 
Q 1566 -1331 1297 -1286 
Q 1028 -1241 775 -1147 
L 775 -588 
Q 1028 -725 1275 -790 
Q 1522 -856 1778 -856 
Q 2344 -856 2625 -561 
Q 2906 -266 2906 331 
L 2906 616 
Q 2728 306 2450 153 
Q 2172 0 1784 0 
Q 1141 0 747 490 
Q 353 981 353 1791 
Q 353 2603 747 3093 
Q 1141 3584 1784 3584 
Q 2172 3584 2450 3431 
Q 2728 3278 2906 2969 
L 2906 3500 
L 3481 3500 
L 3481 434 
z
" transform="scale(0.015625)"/>
     </defs>
     <use xlink:href="#DejaVuSans-47"/>
     <use xlink:href="#DejaVuSans-65" transform="translate(77.490234 0)"/>
     <use xlink:href="#DejaVuSans-6e" transform="translate(139.013672 0)"/>
     <use xlink:href="#DejaVuSans-65" transform="translate(202.392578 0)"/>
     <use xlink:href="#DejaVuSans-72" transform="translate(263.916016 0)"/>
     <use xlink:href="#DejaVuSans-61" transform="translate(305.029297 0)"/>
     <use xlink:href="#DejaVuSans-74" transform="translate(366.308594 0)"/>
     <use xlink:href="#DejaVuSans-65" transform="translate(405.517578 0)"/>
     <use xlink:href="#DejaVuSans-64" transform="translate(467.041016 0)"/>
     <use xlink:href="#DejaVuSans-20" transform="translate(530.517578 0)"/>
     <use xlink:href="#DejaVuSans-53" transform="translate(562.304688 0)"/>
     <use xlink:href="#DejaVuSans-69" transform="translate(625.78125 0)"/>
     <use xlink:href="#DejaVuSans-67" transform="translate(653.564453 0)"/>
     <use xlink:href="#DejaVuSans-6e" transform="translate(717.041016 0)"/>
     <use xlink:href="#DejaVuSans-61" transform="translate(780.419922 0)"/>
     <use xlink:href="#DejaVuSans-6c" transform="translate(841.699219 0)"/>
     <use xlink:href="#DejaVuSans-20" transform="translate(869.482422 0)"/>
     <use xlink:href="#DejaVuSans-31" transform="translate(901.269531 0)"/>
    </g>
   </g>
  </g>
  <g id="axes_2">
   <g id="patch_7">
    <path d="M 56.09 441.64 
L 1069.2 441.64 
L 1069.2 263.28 
L 56.09 263.28 
z
" style="fill: #ffffff"/>
   </g>
   <g id="matplotlib.axis_3">
    <g id="xtick_6">
     <g id="line2d_15">
      <g>
       <use xlink:href="#me1e6ccbf41" x="102.140455" y="441.64" style="stroke: #000000; stroke-width: 0.8"/>
      </g>
     </g>
     <g id="text_17">
      <!-- 0 -->
      <g transform="translate(98.959205 456.238438) scale(0.1 -0.1)">
       <use xlink:href="#DejaVuSans-30"/>
      </g>
     </g>
    </g>
    <g id="xtick_7">
     <g id="line2d_16">
      <g>
       <use xlink:href="#me1e6ccbf41" x="307.264974" y="441.64" style="stroke: #000000; stroke-width: 0.8"/>
      </g>
     </g>
     <g id="text_18">
      <!-- 100 -->
      <g transform="translate(297.721224 456.238438) scale(0.1 -0.1)">
       <use xlink:href="#DejaVuSans-31"/>
       <use xlink:href="#DejaVuSans-30" transform="translate(63.623047 0)"/>
       <use xlink:href="#DejaVuSans-30" transform="translate(127.246094 0)"/>
      </g>
     </g>
    </g>
    <g id="xtick_8">
     <g id="line2d_17">
      <g>
       <use xlink:href="#me1e6ccbf41" x="512.389493" y="441.64" style="stroke: #000000; stroke-width: 0.8"/>
      </g>
     </g>
     <g id="text_19">
      <!-- 200 -->
      <g transform="translate(502.845743 456.238438) scale(0.1 -0.1)">
       <use xlink:href="#DejaVuSans-32"/>
       <use xlink:href="#DejaVuSans-30" transform="translate(63.623047 0)"/>
       <use xlink:href="#DejaVuSans-30" transform="translate(127.246094 0)"/>
      </g>
     </g>
    </g>
    <g id="xtick_9">
     <g id="line2d_18">
      <g>
       <use xlink:href="#me1e6ccbf41" x="717.514012" y="441.64" style="stroke: #000000; stroke-width: 0.8"/>
      </g>
     </g>
     <g id="text_20">
      <!-- 300 -->
      <g transform="translate(707.970262 456.238438) scale(0.1 -0.1)">
       <use xlink:href="#DejaVuSans-33"/>
       <use xlink:href="#DejaVuSans-30" transform="translate(63.623047 0)"/>
       <use xlink:href="#DejaVuSans-30" transform="translate(127.246094 0)"/>
      </g>
     </g>
    </g>
    <g id="xtick_10">
     <g id="line2d_19">
      <g>
       <use xlink:href="#me1e6ccbf41" x="922.638531" y="441.64" style="stroke: #000000; stroke-width: 0.8"/>
      </g>
     </g>
     <g id="text_21">
      <!-- 400 -->
      <g transform="translate(913.094781 456.238438) scale(0.1 -0.1)">
       <use xlink:href="#DejaVuSans-34"/>
       <use xlink:href="#DejaVuSans-30" transform="translate(63.623047 0)"/>
       <use xlink:href="#DejaVuSans-30" transform="translate(127.246094 0)"/>
      </g>
     </g>
    </g>
    <g id="text_22">
     <!-- Sample Index -->
     <g transform="translate(528.541094 469.916563) scale(0.1 -0.1)">
      <use xlink:href="#DejaVuSans-53"/>
      <use xlink:href="#DejaVuSans-61" transform="translate(63.476562 0)"/>
      <use xlink:href="#DejaVuSans-6d" transform="translate(124.755859 0)"/>
      <use xlink:href="#DejaVuSans-70" transform="translate(222.167969 0)"/>
      <use xlink:href="#DejaVuSans-6c" transform="translate(285.644531 0)"/>
      <use xlink:href="#DejaVuSans-65" transform="translate(313.427734 0)"/>
      <use xlink:href="#DejaVuSans-20" transform="translate(374.951172 0)"/>
      <use xlink:href="#DejaVuSans-49" transform="translate(406.738281 0)"/>
      <use xlink:href="#DejaVuSans-6e" transform="translate(436.230469 0)"/>
      <use xlink:href="#DejaVuSans-64" transform="translate(499.609375 0)"/>
      <use xlink:href="#DejaVuSans-65" transform="translate(563.085938 0)"/>
      <use xlink:href="#DejaVuSans-78" transform="translate(622.859375 0)"/>
     </g>
    </g>
   </g>
   <g id="matplotlib.axis_4">
    <g id="ytick_9">
     <g id="line2d_20">
      <g>
       <use xlink:href="#m871dcd2dd6" x="56.09" y="427.58955" style="stroke: #000000; stroke-width: 0.8"/>
      </g>
     </g>
     <g id="text_23">
      <!-- −0.1 -->
      <g transform="translate(24.807188 431.388769) scale(0.1 -0.1)">
       <use xlink:href="#DejaVuSans-2212"/>
       <use xlink:href="#DejaVuSans-30" transform="translate(83.789062 0)"/>
       <use xlink:href="#DejaVuSans-2e" transform="translate(147.412109 0)"/>
       <use xlink:href="#DejaVuSans-31" transform="translate(179.199219 0)"/>
      </g>
     </g>
    </g>
    <g id="ytick_10">
     <g id="line2d_21">
      <g>
       <use xlink:href="#m871dcd2dd6" x="56.09" y="404.844107" style="stroke: #000000; stroke-width: 0.8"/>
      </g>
     </g>
     <g id="text_24">
      <!-- 0.0 -->
      <g transform="translate(33.186875 408.643325) scale(0.1 -0.1)">
       <use xlink:href="#DejaVuSans-30"/>
       <use xlink:href="#DejaVuSans-2e" transform="translate(63.623047 0)"/>
       <use xlink:href="#DejaVuSans-30" transform="translate(95.410156 0)"/>
      </g>
     </g>
    </g>
    <g id="ytick_11">
     <g id="line2d_22">
      <g>
       <use xlink:href="#m871dcd2dd6" x="56.09" y="382.098663" style="stroke: #000000; stroke-width: 0.8"/>
      </g>
     </g>
     <g id="text_25">
      <!-- 0.1 -->
      <g transform="translate(33.186875 385.897882) scale(0.1 -0.1)">
       <use xlink:href="#DejaVuSans-30"/>
       <use xlink:href="#DejaVuSans-2e" transform="translate(63.623047 0)"/>
       <use xlink:href="#DejaVuSans-31" transform="translate(95.410156 0)"/>
      </g>
     </g>
    </g>
    <g id="ytick_12">
     <g id="line2d_23">
      <g>
       <use xlink:href="#m871dcd2dd6" x="56.09" y="359.35322" style="stroke: #000000; stroke-width: 0.8"/>
      </g>
     </g>
     <g id="text_26">
      <!-- 0.2 -->
      <g transform="translate(33.186875 363.152439) scale(0.1 -0.1)">
       <use xlink:href="#DejaVuSans-30"/>
       <use xlink:href="#DejaVuSans-2e" transform="translate(63.623047 0)"/>
       <use xlink:href="#DejaVuSans-32" transform="translate(95.410156 0)"/>
      </g>
     </g>
    </g>
    <g id="ytick_13">
     <g id="line2d_24">
      <g>
       <use xlink:href="#m871dcd2dd6" x="56.09" y="336.607777" style="stroke: #000000; stroke-width: 0.8"/>
      </g>
     </g>
     <g id="text_27">
      <!-- 0.3 -->
      <g transform="translate(33.186875 340.406996) scale(0.1 -0.1)">
       <use xlink:href="#DejaVuSans-30"/>
       <use xlink:href="#DejaVuSans-2e" transform="translate(63.623047 0)"/>
       <use xlink:href="#DejaVuSans-33" transform="translate(95.410156 0)"/>
      </g>
     </g>
    </g>
    <g id="ytick_14">
     <g id="line2d_25">
      <g>
       <use xlink:href="#m871dcd2dd6" x="56.09" y="313.862334" style="stroke: #000000; stroke-width: 0.8"/>
      </g>
     </g>
     <g id="text_28">
      <!-- 0.4 -->
      <g transform="translate(33.186875 317.661553) scale(0.1 -0.1)">
       <use xlink:href="#DejaVuSans-30"/>
       <use xlink:href="#DejaVuSans-2e" transform="translate(63.623047 0)"/>
       <use xlink:href="#DejaVuSans-34" transform="translate(95.410156 0)"/>
      </g>
     </g>
    </g>
    <g id="ytick_15">
     <g id="line2d_26">
      <g>
       <use xlink:href="#m871dcd2dd6" x="56.09" y="291.116891" style="stroke: #000000; stroke-width: 0.8"/>
      </g>
     </g>
     <g id="text_29">
      <!-- 0.5 -->
      <g transform="translate(33.186875 294.91611) scale(0.1 -0.1)">
       <use xlink:href="#DejaVuSans-30"/>
       <use xlink:href="#DejaVuSans-2e" transform="translate(63.623047 0)"/>
       <use xlink:href="#DejaVuSans-35" transform="translate(95.410156 0)"/>
      </g>
     </g>
    </g>
    <g id="ytick_16">
     <g id="line2d_27">
      <g>
       <use xlink:href="#m871dcd2dd6" x="56.09" y="268.371448" style="stroke: #000000; stroke-width: 0.8"/>
      </g>
     </g>
     <g id="text_30">
      <!-- 0.6 -->
      <g transform="translate(33.186875 272.170666) scale(0.1 -0.1)">
       <defs>
        <path id="DejaVuSans-36" d="M 2113 2584 
Q 1688 2584 1439 2293 
Q 1191 2003 1191 1497 
Q 1191 994 1439 701 
Q 1688 409 2113 409 
Q 2538 409 2786 701 
Q 3034 994 3034 1497 
Q 3034 2003 2786 2293 
Q 2538 2584 2113 2584 
z
M 3366 4563 
L 3366 3988 
Q 3128 4100 2886 4159 
Q 2644 4219 2406 4219 
Q 1781 4219 1451 3797 
Q 1122 3375 1075 2522 
Q 1259 2794 1537 2939 
Q 1816 3084 2150 3084 
Q 2853 3084 3261 2657 
Q 3669 2231 3669 1497 
Q 3669 778 3244 343 
Q 2819 -91 2113 -91 
Q 1303 -91 875 529 
Q 447 1150 447 2328 
Q 447 3434 972 4092 
Q 1497 4750 2381 4750 
Q 2619 4750 2861 4703 
Q 3103 4656 3366 4563 
z
" transform="scale(0.015625)"/>
       </defs>
       <use xlink:href="#DejaVuSans-30"/>
       <use xlink:href="#DejaVuSans-2e" transform="translate(63.623047 0)"/>
       <use xlink:href="#DejaVuSans-36" transform="translate(95.410156 0)"/>
      </g>
     </g>
    </g>
    <g id="text_31">
     <!-- Amplitude -->
     <g transform="translate(18.7275 378.082656) rotate(-90) scale(0.1 -0.1)">
      <use xlink:href="#DejaVuSans-41"/>
      <use xlink:href="#DejaVuSans-6d" transform="translate(68.408203 0)"/>
      <use xlink:href="#DejaVuSans-70" transform="translate(165.820312 0)"/>
      <use xlink:href="#DejaVuSans-6c" transform="translate(229.296875 0)"/>
      <use xlink:href="#DejaVuSans-69" transform="translate(257.080078 0)"/>
      <use xlink:href="#DejaVuSans-74" transform="translate(284.863281 0)"/>
      <use xlink:href="#DejaVuSans-75" transform="translate(324.072266 0)"/>
      <use xlink:href="#DejaVuSans-64" transform="translate(387.451172 0)"/>
      <use xlink:href="#DejaVuSans-65" transform="translate(450.927734 0)"/>
     </g>
    </g>
   </g>
   <g id="line2d_28">
    <path d="M 102.140455 271.387273 
L 104.1917 281.902156 
L 106.242945 326.053975 
L 108.29419 367.331721 
L 110.345435 400.6964 
L 112.396681 422.50097 
L 114.447926 433.532727 
L 116.499171 430.036594 
L 118.550416 422.007188 
L 122.652906 403.503093 
L 124.704152 399.81229 
L 126.755397 391.482942 
L 128.806642 395.44505 
L 130.857887 391.482942 
L 139.062868 391.482942 
L 143.165358 382.455474 
L 145.216604 381.784679 
L 147.267849 378.621065 
L 149.319094 374.120238 
L 151.370339 371.903857 
L 153.421584 369.012384 
L 155.47283 361.362119 
L 157.524075 354.534443 
L 159.57532 354.041003 
L 161.626565 348.979926 
L 163.67781 344.973813 
L 165.729055 346.250128 
L 167.780301 343.9002 
L 169.831546 345.025941 
L 171.882791 339.421234 
L 173.934036 341.197158 
L 175.985281 342.684161 
L 178.036527 343.260233 
L 180.087772 343.571591 
L 182.139017 348.151359 
L 184.190262 351.629765 
L 186.241507 354.670385 
L 188.292753 356.580276 
L 190.343998 359.398481 
L 192.395243 362.420788 
L 194.446488 364.080325 
L 196.497733 366.246795 
L 198.548979 370.195045 
L 200.600224 372.981092 
L 202.651469 376.269063 
L 204.702714 377.996956 
L 206.753959 378.325471 
L 208.805204 379.251708 
L 210.85645 381.88536 
L 212.907695 383.951208 
L 214.95894 386.590768 
L 217.010185 389.672585 
L 219.06143 391.324639 
L 221.112676 391.482942 
L 225.215166 391.482942 
L 227.266411 395.877985 
L 229.317656 392.005947 
L 231.368902 391.482942 
L 233.420147 392.12163 
L 235.471392 391.482942 
L 237.522637 391.482942 
L 239.573882 391.357958 
L 241.625128 390.41164 
L 243.676373 390.686677 
L 245.727618 384.554242 
L 247.778863 385.283921 
L 249.830108 384.763133 
L 251.881354 384.107307 
L 253.932599 384.866748 
L 255.983844 364.606957 
L 258.035089 367.691394 
L 260.086334 379.583097 
L 262.137579 381.703304 
L 264.188825 386.004033 
L 268.291315 391.482942 
L 270.34256 393.628236 
L 272.393805 392.935556 
L 274.445051 391.482942 
L 276.496296 391.482942 
L 278.547541 387.946717 
L 280.598786 386.664411 
L 282.650031 391.482942 
L 284.701277 383.147293 
L 286.752522 391.482942 
L 288.803767 379.142331 
L 290.855012 376.546978 
L 292.906257 377.100612 
L 294.957503 376.156316 
L 297.008748 376.334172 
L 299.059993 378.210596 
L 301.111238 378.865039 
L 303.162483 378.200658 
L 305.213728 377.140108 
L 307.264974 377.109526 
L 309.316219 377.546803 
L 311.367464 378.551338 
L 313.418709 376.020716 
L 315.469954 372.766019 
L 317.5212 371.905416 
L 319.572445 370.529322 
L 321.62369 368.923472 
L 323.674935 370.168683 
L 325.72618 373.426617 
L 327.777426 375.225913 
L 329.828671 375.531584 
L 331.879916 374.938237 
L 333.931161 372.334807 
L 335.982406 372.183209 
L 340.084897 373.226877 
L 342.136142 373.337633 
L 344.187387 374.485794 
L 348.289878 376.31549 
L 350.341123 377.210376 
L 352.392368 377.772189 
L 354.443613 378.607321 
L 356.494858 378.658288 
L 358.546103 379.847773 
L 362.648594 380.17197 
L 364.699839 379.535558 
L 366.751084 379.897597 
L 368.802329 381.161958 
L 370.853575 380.624773 
L 374.956065 379.979376 
L 377.00731 379.167205 
L 379.058555 378.225941 
L 381.109801 378.619121 
L 383.161046 377.032602 
L 385.212291 391.482942 
L 387.263536 380.085179 
L 389.314781 391.482942 
L 391.366027 383.759563 
L 393.417272 381.279829 
L 395.468517 381.364982 
L 397.519762 381.279798 
L 399.571007 391.482942 
L 401.622252 382.119972 
L 403.673498 391.482942 
L 405.724743 377.428591 
L 407.775988 383.495983 
L 409.827233 369.713234 
L 411.878478 371.461267 
L 413.929724 375.695821 
L 415.980969 383.322174 
L 418.032214 385.951829 
L 420.083459 392.834249 
L 424.18595 391.482942 
L 426.237195 389.45723 
L 428.28844 393.428537 
L 430.339685 391.482942 
L 432.39093 390.149588 
L 434.442176 386.341872 
L 436.493421 385.453835 
L 438.544666 388.920827 
L 440.595911 389.379518 
L 442.647156 382.816587 
L 444.698401 386.944272 
L 446.749647 386.705185 
L 448.800892 380.250633 
L 450.852137 383.945788 
L 452.903382 382.215299 
L 454.954627 383.210533 
L 457.005873 391.668774 
L 459.057118 383.043323 
L 461.108363 385.91738 
L 463.159608 381.883786 
L 465.210853 381.36624 
L 467.262099 382.326299 
L 469.313344 379.300947 
L 471.364589 381.581679 
L 473.415834 378.587547 
L 475.467079 378.460288 
L 477.518325 378.650299 
L 479.56957 380.771027 
L 481.620815 381.580966 
L 483.67206 391.482942 
L 485.723305 382.008136 
L 487.774551 380.604321 
L 489.825796 381.636924 
L 491.877041 378.264601 
L 493.928286 380.958492 
L 495.979531 382.767503 
L 498.030776 391.482942 
L 506.235757 391.482942 
L 508.287002 385.151334 
L 510.338248 391.482942 
L 512.389493 384.605119 
L 514.440738 391.482942 
L 516.491983 386.434265 
L 518.543228 387.475371 
L 520.594474 389.666806 
L 522.645719 392.44033 
L 524.696964 388.802495 
L 528.799454 391.452987 
L 530.8507 389.177745 
L 532.901945 391.482942 
L 534.95319 383.195508 
L 537.004435 381.864133 
L 539.05568 383.461544 
L 541.106925 384.147677 
L 543.158171 385.445738 
L 545.209416 386.310419 
L 547.260661 385.131723 
L 549.311906 384.28051 
L 551.363151 384.777489 
L 553.414397 384.902974 
L 555.465642 384.066338 
L 557.516887 383.605312 
L 561.619377 379.390996 
L 563.670623 271.387273 
L 565.721868 281.902156 
L 567.773113 326.053975 
L 569.824358 367.331721 
L 571.875603 400.6964 
L 573.926849 422.50097 
L 575.978094 433.532727 
L 578.029339 430.036594 
L 580.080584 422.007188 
L 584.183075 403.503093 
L 586.23432 399.81229 
L 588.285565 391.482942 
L 590.33681 395.44505 
L 592.388055 391.482942 
L 600.593036 391.482942 
L 604.695526 382.455474 
L 606.746772 381.784679 
L 608.798017 378.621065 
L 610.849262 374.120238 
L 612.900507 371.903857 
L 614.951752 369.012384 
L 617.002998 361.362119 
L 619.054243 354.534443 
L 621.105488 354.041003 
L 623.156733 348.979926 
L 625.207978 344.973813 
L 627.259224 346.250128 
L 629.310469 343.9002 
L 631.361714 345.025941 
L 633.412959 339.421234 
L 635.464204 341.197158 
L 637.515449 342.684161 
L 639.566695 343.260233 
L 641.61794 343.571591 
L 643.669185 348.151359 
L 645.72043 351.629765 
L 647.771675 354.670385 
L 649.822921 356.580276 
L 651.874166 359.398481 
L 653.925411 362.420788 
L 655.976656 364.080325 
L 658.027901 366.246795 
L 660.079147 370.195045 
L 662.130392 372.981092 
L 664.181637 376.269063 
L 666.232882 377.996956 
L 668.284127 378.325471 
L 670.335373 379.251708 
L 672.386618 381.88536 
L 674.437863 383.951208 
L 676.489108 386.590768 
L 678.540353 389.672585 
L 680.591599 391.324639 
L 682.642844 391.482942 
L 686.745334 391.482942 
L 688.796579 395.877985 
L 690.847824 392.005947 
L 692.89907 391.482942 
L 694.950315 392.12163 
L 697.00156 391.482942 
L 699.052805 391.482942 
L 701.10405 391.357958 
L 703.155296 390.41164 
L 705.206541 390.686677 
L 707.257786 384.554242 
L 709.309031 385.283921 
L 711.360276 384.763133 
L 713.411522 384.107307 
L 715.462767 384.866748 
L 717.514012 364.606957 
L 719.565257 367.691394 
L 721.616502 379.583097 
L 723.667748 381.703304 
L 725.718993 386.004033 
L 729.821483 391.482942 
L 731.872728 393.628236 
L 733.923973 392.935556 
L 735.975219 391.482942 
L 738.026464 391.482942 
L 740.077709 387.946717 
L 742.128954 386.664411 
L 744.180199 391.482942 
L 746.231445 383.147293 
L 748.28269 391.482942 
L 750.333935 379.142331 
L 752.38518 376.546978 
L 754.436425 377.100612 
L 756.487671 376.156316 
L 758.538916 376.334172 
L 760.590161 378.210596 
L 762.641406 378.865039 
L 764.692651 378.200658 
L 766.743897 377.140108 
L 768.795142 377.109526 
L 770.846387 377.546803 
L 772.897632 378.551338 
L 774.948877 376.020716 
L 777.000122 372.766019 
L 779.051368 371.905416 
L 781.102613 370.529322 
L 783.153858 368.923472 
L 785.205103 370.168683 
L 787.256348 373.426617 
L 789.307594 375.225913 
L 791.358839 375.531584 
L 793.410084 374.938237 
L 795.461329 372.334807 
L 797.512574 372.183209 
L 801.615065 373.226877 
L 803.66631 373.337633 
L 805.717555 374.485794 
L 809.820046 376.31549 
L 811.871291 377.210376 
L 813.922536 377.772189 
L 815.973781 378.607321 
L 818.025026 378.658288 
L 820.076272 379.847773 
L 824.178762 380.17197 
L 826.230007 379.535558 
L 828.281252 379.897597 
L 830.332497 381.161958 
L 832.383743 380.624773 
L 836.486233 379.979376 
L 838.537478 379.167205 
L 840.588723 378.225941 
L 842.639969 378.619121 
L 844.691214 377.032602 
L 846.742459 391.482942 
L 848.793704 380.085179 
L 850.844949 391.482942 
L 852.896195 383.759563 
L 854.94744 381.279829 
L 856.998685 381.364982 
L 859.04993 381.279798 
L 861.101175 391.482942 
L 863.152421 382.119972 
L 865.203666 391.482942 
L 867.254911 377.428591 
L 869.306156 383.495983 
L 871.357401 369.713234 
L 873.408646 371.461267 
L 875.459892 375.695821 
L 877.511137 383.322174 
L 879.562382 385.951829 
L 881.613627 392.834249 
L 885.716118 391.482942 
L 887.767363 389.45723 
L 889.818608 393.428537 
L 891.869853 391.482942 
L 893.921098 390.149588 
L 895.972344 386.341872 
L 898.023589 385.453835 
L 900.074834 388.920827 
L 902.126079 389.379518 
L 904.177324 382.816587 
L 906.22857 386.944272 
L 908.279815 386.705185 
L 910.33106 380.250633 
L 912.382305 383.945788 
L 914.43355 382.215299 
L 916.484796 383.210533 
L 918.536041 391.668774 
L 920.587286 383.043323 
L 922.638531 385.91738 
L 924.689776 381.883786 
L 926.741021 381.36624 
L 928.792267 382.326299 
L 930.843512 379.300947 
L 932.894757 381.581679 
L 934.946002 378.587547 
L 936.997247 378.460288 
L 939.048493 378.650299 
L 941.099738 380.771027 
L 943.150983 381.580966 
L 945.202228 391.482942 
L 947.253473 382.008136 
L 949.304719 380.604321 
L 951.355964 381.636924 
L 953.407209 378.264601 
L 955.458454 380.958492 
L 957.509699 382.767503 
L 959.560945 391.482942 
L 967.765925 391.482942 
L 969.81717 385.151334 
L 971.868416 391.482942 
L 973.919661 384.605119 
L 975.970906 391.482942 
L 978.022151 386.434265 
L 980.073396 387.475371 
L 982.124642 389.666806 
L 984.175887 392.44033 
L 986.227132 388.802495 
L 990.329622 391.452987 
L 992.380868 389.177745 
L 994.432113 391.482942 
L 996.483358 383.195508 
L 998.534603 381.864133 
L 1000.585848 383.461544 
L 1002.637094 384.147677 
L 1004.688339 385.445738 
L 1006.739584 386.310419 
L 1008.790829 385.131723 
L 1010.842074 384.28051 
L 1012.893319 384.777489 
L 1014.944565 384.902974 
L 1016.99581 384.066338 
L 1019.047055 383.605312 
L 1023.149545 379.390996 
L 1023.149545 379.390996 
" clip-path="url(#p1cb2a0a4bf)" style="fill: none; stroke: #1f77b4; stroke-width: 1.5; stroke-linecap: square"/>
   </g>
   <g id="patch_8">
    <path d="M 56.09 441.64 
L 56.09 263.28 
" style="fill: none; stroke: #000000; stroke-width: 0.8; stroke-linejoin: miter; stroke-linecap: square"/>
   </g>
   <g id="patch_9">
    <path d="M 1069.2 441.64 
L 1069.2 263.28 
" style="fill: none; stroke: #000000; stroke-width: 0.8; stroke-linejoin: miter; stroke-linecap: square"/>
   </g>
   <g id="patch_10">
    <path d="M 56.09 441.64 
L 1069.2 441.64 
" style="fill: none; stroke: #000000; stroke-width: 0.8; stroke-linejoin: miter; stroke-linecap: square"/>
   </g>
   <g id="patch_11">
    <path d="M 56.09 263.28 
L 1069.2 263.28 
" style="fill: none; stroke: #000000; stroke-width: 0.8; stroke-linejoin: miter; stroke-linecap: square"/>
   </g>
   <g id="text_32">
    <!-- Generated Signal 2 -->
    <g transform="translate(504.750625 257.28) scale(0.12 -0.12)">
     <use xlink:href="#DejaVuSans-47"/>
     <use xlink:href="#DejaVuSans-65" transform="translate(77.490234 0)"/>
     <use xlink:href="#DejaVuSans-6e" transform="translate(139.013672 0)"/>
     <use xlink:href="#DejaVuSans-65" transform="translate(202.392578 0)"/>
     <use xlink:href="#DejaVuSans-72" transform="translate(263.916016 0)"/>
     <use xlink:href="#DejaVuSans-61" transform="translate(305.029297 0)"/>
     <use xlink:href="#DejaVuSans-74" transform="translate(366.308594 0)"/>
     <use xlink:href="#DejaVuSans-65" transform="translate(405.517578 0)"/>
     <use xlink:href="#DejaVuSans-64" transform="translate(467.041016 0)"/>
     <use xlink:href="#DejaVuSans-20" transform="translate(530.517578 0)"/>
     <use xlink:href="#DejaVuSans-53" transform="translate(562.304688 0)"/>
     <use xlink:href="#DejaVuSans-69" transform="translate(625.78125 0)"/>
     <use xlink:href="#DejaVuSans-67" transform="translate(653.564453 0)"/>
     <use xlink:href="#DejaVuSans-6e" transform="translate(717.041016 0)"/>
     <use xlink:href="#DejaVuSans-61" transform="translate(780.419922 0)"/>
     <use xlink:href="#DejaVuSans-6c" transform="translate(841.699219 0)"/>
     <use xlink:href="#DejaVuSans-20" transform="translate(869.482422 0)"/>
     <use xlink:href="#DejaVuSans-32" transform="translate(901.269531 0)"/>
    </g>
   </g>
  </g>
  <g id="axes_3">
   <g id="patch_12">
    <path d="M 56.09 678.04 
L 1069.2 678.04 
L 1069.2 499.68 
L 56.09 499.68 
z
" style="fill: #ffffff"/>
   </g>
   <g id="matplotlib.axis_5">
    <g id="xtick_11">
     <g id="line2d_29">
      <g>
       <use xlink:href="#me1e6ccbf41" x="102.140455" y="678.04" style="stroke: #000000; stroke-width: 0.8"/>
      </g>
     </g>
     <g id="text_33">
      <!-- 0 -->
      <g transform="translate(98.959205 692.638438) scale(0.1 -0.1)">
       <use xlink:href="#DejaVuSans-30"/>
      </g>
     </g>
    </g>
    <g id="xtick_12">
     <g id="line2d_30">
      <g>
       <use xlink:href="#me1e6ccbf41" x="307.264974" y="678.04" style="stroke: #000000; stroke-width: 0.8"/>
      </g>
     </g>
     <g id="text_34">
      <!-- 100 -->
      <g transform="translate(297.721224 692.638438) scale(0.1 -0.1)">
       <use xlink:href="#DejaVuSans-31"/>
       <use xlink:href="#DejaVuSans-30" transform="translate(63.623047 0)"/>
       <use xlink:href="#DejaVuSans-30" transform="translate(127.246094 0)"/>
      </g>
     </g>
    </g>
    <g id="xtick_13">
     <g id="line2d_31">
      <g>
       <use xlink:href="#me1e6ccbf41" x="512.389493" y="678.04" style="stroke: #000000; stroke-width: 0.8"/>
      </g>
     </g>
     <g id="text_35">
      <!-- 200 -->
      <g transform="translate(502.845743 692.638438) scale(0.1 -0.1)">
       <use xlink:href="#DejaVuSans-32"/>
       <use xlink:href="#DejaVuSans-30" transform="translate(63.623047 0)"/>
       <use xlink:href="#DejaVuSans-30" transform="translate(127.246094 0)"/>
      </g>
     </g>
    </g>
    <g id="xtick_14">
     <g id="line2d_32">
      <g>
       <use xlink:href="#me1e6ccbf41" x="717.514012" y="678.04" style="stroke: #000000; stroke-width: 0.8"/>
      </g>
     </g>
     <g id="text_36">
      <!-- 300 -->
      <g transform="translate(707.970262 692.638438) scale(0.1 -0.1)">
       <use xlink:href="#DejaVuSans-33"/>
       <use xlink:href="#DejaVuSans-30" transform="translate(63.623047 0)"/>
       <use xlink:href="#DejaVuSans-30" transform="translate(127.246094 0)"/>
      </g>
     </g>
    </g>
    <g id="xtick_15">
     <g id="line2d_33">
      <g>
       <use xlink:href="#me1e6ccbf41" x="922.638531" y="678.04" style="stroke: #000000; stroke-width: 0.8"/>
      </g>
     </g>
     <g id="text_37">
      <!-- 400 -->
      <g transform="translate(913.094781 692.638438) scale(0.1 -0.1)">
       <use xlink:href="#DejaVuSans-34"/>
       <use xlink:href="#DejaVuSans-30" transform="translate(63.623047 0)"/>
       <use xlink:href="#DejaVuSans-30" transform="translate(127.246094 0)"/>
      </g>
     </g>
    </g>
    <g id="text_38">
     <!-- Sample Index -->
     <g transform="translate(528.541094 706.316563) scale(0.1 -0.1)">
      <use xlink:href="#DejaVuSans-53"/>
      <use xlink:href="#DejaVuSans-61" transform="translate(63.476562 0)"/>
      <use xlink:href="#DejaVuSans-6d" transform="translate(124.755859 0)"/>
      <use xlink:href="#DejaVuSans-70" transform="translate(222.167969 0)"/>
      <use xlink:href="#DejaVuSans-6c" transform="translate(285.644531 0)"/>
      <use xlink:href="#DejaVuSans-65" transform="translate(313.427734 0)"/>
      <use xlink:href="#DejaVuSans-20" transform="translate(374.951172 0)"/>
      <use xlink:href="#DejaVuSans-49" transform="translate(406.738281 0)"/>
      <use xlink:href="#DejaVuSans-6e" transform="translate(436.230469 0)"/>
      <use xlink:href="#DejaVuSans-64" transform="translate(499.609375 0)"/>
      <use xlink:href="#DejaVuSans-65" transform="translate(563.085938 0)"/>
      <use xlink:href="#DejaVuSans-78" transform="translate(622.859375 0)"/>
     </g>
    </g>
   </g>
   <g id="matplotlib.axis_6">
    <g id="ytick_17">
     <g id="line2d_34">
      <g>
       <use xlink:href="#m871dcd2dd6" x="56.09" y="671.449117" style="stroke: #000000; stroke-width: 0.8"/>
      </g>
     </g>
     <g id="text_39">
      <!-- −0.2 -->
      <g transform="translate(24.807188 675.248336) scale(0.1 -0.1)">
       <use xlink:href="#DejaVuSans-2212"/>
       <use xlink:href="#DejaVuSans-30" transform="translate(83.789062 0)"/>
       <use xlink:href="#DejaVuSans-2e" transform="translate(147.412109 0)"/>
       <use xlink:href="#DejaVuSans-32" transform="translate(179.199219 0)"/>
      </g>
     </g>
    </g>
    <g id="ytick_18">
     <g id="line2d_35">
      <g>
       <use xlink:href="#m871dcd2dd6" x="56.09" y="648.92491" style="stroke: #000000; stroke-width: 0.8"/>
      </g>
     </g>
     <g id="text_40">
      <!-- −0.1 -->
      <g transform="translate(24.807188 652.724129) scale(0.1 -0.1)">
       <use xlink:href="#DejaVuSans-2212"/>
       <use xlink:href="#DejaVuSans-30" transform="translate(83.789062 0)"/>
       <use xlink:href="#DejaVuSans-2e" transform="translate(147.412109 0)"/>
       <use xlink:href="#DejaVuSans-31" transform="translate(179.199219 0)"/>
      </g>
     </g>
    </g>
    <g id="ytick_19">
     <g id="line2d_36">
      <g>
       <use xlink:href="#m871dcd2dd6" x="56.09" y="626.400702" style="stroke: #000000; stroke-width: 0.8"/>
      </g>
     </g>
     <g id="text_41">
      <!-- 0.0 -->
      <g transform="translate(33.186875 630.199921) scale(0.1 -0.1)">
       <use xlink:href="#DejaVuSans-30"/>
       <use xlink:href="#DejaVuSans-2e" transform="translate(63.623047 0)"/>
       <use xlink:href="#DejaVuSans-30" transform="translate(95.410156 0)"/>
      </g>
     </g>
    </g>
    <g id="ytick_20">
     <g id="line2d_37">
      <g>
       <use xlink:href="#m871dcd2dd6" x="56.09" y="603.876495" style="stroke: #000000; stroke-width: 0.8"/>
      </g>
     </g>
     <g id="text_42">
      <!-- 0.1 -->
      <g transform="translate(33.186875 607.675714) scale(0.1 -0.1)">
       <use xlink:href="#DejaVuSans-30"/>
       <use xlink:href="#DejaVuSans-2e" transform="translate(63.623047 0)"/>
       <use xlink:href="#DejaVuSans-31" transform="translate(95.410156 0)"/>
      </g>
     </g>
    </g>
    <g id="ytick_21">
     <g id="line2d_38">
      <g>
       <use xlink:href="#m871dcd2dd6" x="56.09" y="581.352288" style="stroke: #000000; stroke-width: 0.8"/>
      </g>
     </g>
     <g id="text_43">
      <!-- 0.2 -->
      <g transform="translate(33.186875 585.151507) scale(0.1 -0.1)">
       <use xlink:href="#DejaVuSans-30"/>
       <use xlink:href="#DejaVuSans-2e" transform="translate(63.623047 0)"/>
       <use xlink:href="#DejaVuSans-32" transform="translate(95.410156 0)"/>
      </g>
     </g>
    </g>
    <g id="ytick_22">
     <g id="line2d_39">
      <g>
       <use xlink:href="#m871dcd2dd6" x="56.09" y="558.82808" style="stroke: #000000; stroke-width: 0.8"/>
      </g>
     </g>
     <g id="text_44">
      <!-- 0.3 -->
      <g transform="translate(33.186875 562.627299) scale(0.1 -0.1)">
       <use xlink:href="#DejaVuSans-30"/>
       <use xlink:href="#DejaVuSans-2e" transform="translate(63.623047 0)"/>
       <use xlink:href="#DejaVuSans-33" transform="translate(95.410156 0)"/>
      </g>
     </g>
    </g>
    <g id="ytick_23">
     <g id="line2d_40">
      <g>
       <use xlink:href="#m871dcd2dd6" x="56.09" y="536.303873" style="stroke: #000000; stroke-width: 0.8"/>
      </g>
     </g>
     <g id="text_45">
      <!-- 0.4 -->
      <g transform="translate(33.186875 540.103092) scale(0.1 -0.1)">
       <use xlink:href="#DejaVuSans-30"/>
       <use xlink:href="#DejaVuSans-2e" transform="translate(63.623047 0)"/>
       <use xlink:href="#DejaVuSans-34" transform="translate(95.410156 0)"/>
      </g>
     </g>
    </g>
    <g id="ytick_24">
     <g id="line2d_41">
      <g>
       <use xlink:href="#m871dcd2dd6" x="56.09" y="513.779666" style="stroke: #000000; stroke-width: 0.8"/>
      </g>
     </g>
     <g id="text_46">
      <!-- 0.5 -->
      <g transform="translate(33.186875 517.578885) scale(0.1 -0.1)">
       <use xlink:href="#DejaVuSans-30"/>
       <use xlink:href="#DejaVuSans-2e" transform="translate(63.623047 0)"/>
       <use xlink:href="#DejaVuSans-35" transform="translate(95.410156 0)"/>
      </g>
     </g>
    </g>
    <g id="text_47">
     <!-- Amplitude -->
     <g transform="translate(18.7275 614.482656) rotate(-90) scale(0.1 -0.1)">
      <use xlink:href="#DejaVuSans-41"/>
      <use xlink:href="#DejaVuSans-6d" transform="translate(68.408203 0)"/>
      <use xlink:href="#DejaVuSans-70" transform="translate(165.820312 0)"/>
      <use xlink:href="#DejaVuSans-6c" transform="translate(229.296875 0)"/>
      <use xlink:href="#DejaVuSans-69" transform="translate(257.080078 0)"/>
      <use xlink:href="#DejaVuSans-74" transform="translate(284.863281 0)"/>
      <use xlink:href="#DejaVuSans-75" transform="translate(324.072266 0)"/>
      <use xlink:href="#DejaVuSans-64" transform="translate(387.451172 0)"/>
      <use xlink:href="#DejaVuSans-65" transform="translate(450.927734 0)"/>
     </g>
    </g>
   </g>
   <g id="line2d_42">
    <path d="M 102.140455 507.787273 
L 104.1917 522.549528 
L 106.242945 556.582325 
L 108.29419 593.93884 
L 110.345435 623.197488 
L 112.396681 644.984179 
L 114.447926 655.811995 
L 116.499171 653.352757 
L 118.550416 647.615529 
L 120.601661 638.88243 
L 122.652906 628.042551 
L 124.704152 623.678772 
L 126.755397 613.169496 
L 128.806642 619.550726 
L 130.857887 613.169496 
L 134.960378 613.169496 
L 137.011623 612.516319 
L 139.062868 613.169496 
L 143.165358 603.196583 
L 145.216604 602.637072 
L 147.267849 599.911649 
L 149.319094 594.383837 
L 155.47283 580.137436 
L 157.524075 571.265756 
L 159.57532 569.289932 
L 161.626565 562.346975 
L 163.67781 559.708379 
L 165.729055 558.169135 
L 167.780301 557.119733 
L 169.831546 557.484705 
L 171.882791 553.626667 
L 173.934036 553.567521 
L 175.985281 553.919214 
L 178.036527 553.287445 
L 180.087772 551.556378 
L 182.139017 554.369498 
L 184.190262 556.044729 
L 186.241507 556.891702 
L 188.292753 558.41219 
L 190.343998 559.735156 
L 192.395243 561.60166 
L 194.446488 564.83983 
L 196.497733 567.770853 
L 198.548979 573.654513 
L 200.600224 577.322792 
L 202.651469 579.968497 
L 204.702714 580.892079 
L 206.753959 580.94962 
L 208.805204 581.269418 
L 210.85645 583.276815 
L 212.907695 584.092789 
L 214.95894 586.076869 
L 217.010185 587.263235 
L 219.06143 589.085024 
L 221.112676 590.335527 
L 225.215166 590.28358 
L 227.266411 587.816737 
L 229.317656 590.116111 
L 231.368902 590.015541 
L 235.471392 588.030752 
L 237.522637 587.282947 
L 239.573882 587.498043 
L 241.625128 590.354024 
L 243.676373 588.978779 
L 245.727618 586.138364 
L 247.778863 586.61714 
L 249.830108 588.474296 
L 251.881354 588.106771 
L 253.932599 588.178899 
L 255.983844 532.788962 
L 258.035089 541.072654 
L 260.086334 547.766535 
L 262.137579 572.719308 
L 264.188825 599.521034 
L 266.24007 613.169496 
L 268.291315 613.169496 
L 270.34256 623.675066 
L 272.393805 622.085967 
L 274.445051 613.169496 
L 276.496296 613.169496 
L 278.547541 613.050276 
L 280.598786 610.883922 
L 282.650031 611.002584 
L 284.701277 607.7091 
L 286.752522 608.825056 
L 288.803767 606.345463 
L 290.855012 605.695219 
L 292.906257 606.427137 
L 294.957503 605.109918 
L 297.008748 602.929393 
L 299.059993 604.056676 
L 301.111238 602.035075 
L 303.162483 603.18686 
L 305.213728 600.534094 
L 307.264974 602.540326 
L 309.316219 600.284951 
L 311.367464 597.713741 
L 313.418709 593.575147 
L 315.469954 589.753969 
L 317.5212 587.59048 
L 319.572445 585.753993 
L 321.62369 584.236065 
L 323.674935 586.200571 
L 325.72618 589.603073 
L 327.777426 591.168346 
L 329.828671 591.659003 
L 331.879916 591.300264 
L 333.931161 589.461152 
L 335.982406 590.788798 
L 338.033652 593.786031 
L 340.084897 594.983268 
L 342.136142 596.540197 
L 348.289878 601.868866 
L 350.341123 604.75083 
L 352.392368 606.889899 
L 354.443613 609.405462 
L 356.494858 611.571792 
L 358.546103 612.969561 
L 360.597349 613.169496 
L 362.648594 619.505797 
L 366.751084 622.528941 
L 368.802329 622.45212 
L 370.853575 613.169496 
L 372.90482 623.701624 
L 374.956065 613.169496 
L 377.00731 613.169496 
L 379.058555 624.322722 
L 381.109801 625.794333 
L 383.161046 626.188121 
L 385.212291 626.734287 
L 387.263536 625.660802 
L 389.314781 626.471848 
L 391.366027 613.169496 
L 393.417272 625.578932 
L 395.468517 627.488678 
L 397.519762 626.96715 
L 399.571007 629.223307 
L 401.622252 627.919175 
L 403.673498 629.99355 
L 405.724743 630.064062 
L 407.775988 629.986067 
L 409.827233 571.568597 
L 411.878478 578.362706 
L 415.980969 625.179818 
L 418.032214 644.047934 
L 420.083459 656.88408 
L 422.134704 662.300648 
L 424.18595 669.932727 
L 426.237195 662.66437 
L 428.28844 662.027553 
L 430.339685 663.963419 
L 432.39093 658.691457 
L 434.442176 654.667571 
L 436.493421 657.487132 
L 438.544666 652.188718 
L 440.595911 650.732088 
L 442.647156 652.931056 
L 444.698401 648.198916 
L 446.749647 648.146251 
L 448.800892 651.598222 
L 450.852137 646.125163 
L 452.903382 650.357692 
L 454.954627 644.573773 
L 457.005873 641.517538 
L 459.057118 640.260661 
L 461.108363 640.049307 
L 463.159608 638.833496 
L 465.210853 632.20763 
L 467.262099 629.934545 
L 469.313344 630.035063 
L 471.364589 625.546071 
L 473.415834 613.169496 
L 475.467079 622.110005 
L 477.518325 621.693529 
L 479.56957 623.777042 
L 481.620815 622.209761 
L 483.67206 613.169496 
L 485.723305 618.464695 
L 487.774551 616.569719 
L 489.825796 617.206466 
L 491.877041 614.653123 
L 493.928286 613.994878 
L 495.979531 614.516224 
L 498.030776 613.169496 
L 504.184512 613.169496 
L 506.235757 618.6459 
L 508.287002 619.610134 
L 510.338248 613.169496 
L 512.389493 623.974889 
L 514.440738 625.598209 
L 516.491983 626.97907 
L 518.543228 628.066947 
L 520.594474 628.34196 
L 522.645719 630.051643 
L 524.696964 628.673359 
L 526.748209 627.860903 
L 528.799454 627.374653 
L 532.901945 623.995996 
L 534.95319 624.996662 
L 537.004435 623.630951 
L 539.05568 624.89821 
L 541.106925 623.95351 
L 543.158171 622.098192 
L 545.209416 621.576979 
L 547.260661 620.66792 
L 549.311906 618.625913 
L 551.363151 617.354202 
L 553.414397 611.928065 
L 555.465642 609.777227 
L 557.516887 608.643226 
L 559.568132 606.52955 
L 561.619377 604.085565 
L 563.670623 507.787273 
L 565.721868 522.549528 
L 567.773113 556.582325 
L 569.824358 593.93884 
L 571.875603 623.197488 
L 573.926849 644.984179 
L 575.978094 655.811995 
L 578.029339 653.352757 
L 580.080584 647.615529 
L 582.131829 638.88243 
L 584.183075 628.042551 
L 586.23432 623.678772 
L 588.285565 613.169496 
L 590.33681 619.550726 
L 592.388055 613.169496 
L 596.490546 613.169496 
L 598.541791 612.516319 
L 600.593036 613.169496 
L 604.695526 603.196583 
L 606.746772 602.637072 
L 608.798017 599.911649 
L 610.849262 594.383837 
L 617.002998 580.137436 
L 619.054243 571.265756 
L 621.105488 569.289932 
L 623.156733 562.346975 
L 625.207978 559.708379 
L 627.259224 558.169135 
L 629.310469 557.119733 
L 631.361714 557.484705 
L 633.412959 553.626667 
L 635.464204 553.567521 
L 637.515449 553.919214 
L 639.566695 553.287445 
L 641.61794 551.556378 
L 643.669185 554.369498 
L 645.72043 556.044729 
L 647.771675 556.891702 
L 649.822921 558.41219 
L 651.874166 559.735156 
L 653.925411 561.60166 
L 655.976656 564.83983 
L 658.027901 567.770853 
L 660.079147 573.654513 
L 662.130392 577.322792 
L 664.181637 579.968497 
L 666.232882 580.892079 
L 668.284127 580.94962 
L 670.335373 581.269418 
L 672.386618 583.276815 
L 674.437863 584.092789 
L 676.489108 586.076869 
L 678.540353 587.263235 
L 680.591599 589.085024 
L 682.642844 590.335527 
L 686.745334 590.28358 
L 688.796579 587.816737 
L 690.847824 590.116111 
L 692.89907 590.015541 
L 697.00156 588.030752 
L 699.052805 587.282947 
L 701.10405 587.498043 
L 703.155296 590.354024 
L 705.206541 588.978779 
L 707.257786 586.138364 
L 709.309031 586.61714 
L 711.360276 588.474296 
L 713.411522 588.106771 
L 715.462767 588.178899 
L 717.514012 532.788962 
L 719.565257 541.072654 
L 721.616502 547.766535 
L 723.667748 572.719308 
L 725.718993 599.521034 
L 727.770238 613.169496 
L 729.821483 613.169496 
L 731.872728 623.675066 
L 733.923973 622.085967 
L 735.975219 613.169496 
L 738.026464 613.169496 
L 740.077709 613.050276 
L 742.128954 610.883922 
L 744.180199 611.002584 
L 746.231445 607.7091 
L 748.28269 608.825056 
L 750.333935 606.345463 
L 752.38518 605.695219 
L 754.436425 606.427137 
L 756.487671 605.109918 
L 758.538916 602.929393 
L 760.590161 604.056676 
L 762.641406 602.035075 
L 764.692651 603.18686 
L 766.743897 600.534094 
L 768.795142 602.540326 
L 770.846387 600.284951 
L 772.897632 597.713741 
L 774.948877 593.575147 
L 777.000122 589.753969 
L 779.051368 587.59048 
L 781.102613 585.753993 
L 783.153858 584.236065 
L 785.205103 586.200571 
L 787.256348 589.603073 
L 789.307594 591.168346 
L 791.358839 591.659003 
L 793.410084 591.300264 
L 795.461329 589.461152 
L 797.512574 590.788798 
L 799.56382 593.786031 
L 801.615065 594.983268 
L 803.66631 596.540197 
L 809.820046 601.868866 
L 811.871291 604.75083 
L 813.922536 606.889899 
L 815.973781 609.405462 
L 818.025026 611.571792 
L 820.076272 612.969561 
L 822.127517 613.169496 
L 824.178762 619.505797 
L 828.281252 622.528941 
L 830.332497 622.45212 
L 832.383743 613.169496 
L 834.434988 623.701624 
L 836.486233 613.169496 
L 838.537478 613.169496 
L 840.588723 624.322722 
L 842.639969 625.794333 
L 844.691214 626.188121 
L 846.742459 626.734287 
L 848.793704 625.660802 
L 850.844949 626.471848 
L 852.896195 613.169496 
L 854.94744 625.578932 
L 856.998685 627.488678 
L 859.04993 626.96715 
L 861.101175 629.223307 
L 863.152421 627.919175 
L 865.203666 629.99355 
L 867.254911 630.064062 
L 869.306156 629.986067 
L 871.357401 571.568597 
L 873.408646 578.362706 
L 877.511137 625.179818 
L 879.562382 644.047934 
L 881.613627 656.88408 
L 883.664872 662.300648 
L 885.716118 669.932727 
L 887.767363 662.66437 
L 889.818608 662.027553 
L 891.869853 663.963419 
L 893.921098 658.691457 
L 895.972344 654.667571 
L 898.023589 657.487132 
L 900.074834 652.188718 
L 902.126079 650.732088 
L 904.177324 652.931056 
L 906.22857 648.198916 
L 908.279815 648.146251 
L 910.33106 651.598222 
L 912.382305 646.125163 
L 914.43355 650.357692 
L 916.484796 644.573773 
L 918.536041 641.517538 
L 920.587286 640.260661 
L 922.638531 640.049307 
L 924.689776 638.833496 
L 926.741021 632.20763 
L 928.792267 629.934545 
L 930.843512 630.035063 
L 932.894757 625.546071 
L 934.946002 613.169496 
L 936.997247 622.110005 
L 939.048493 621.693529 
L 941.099738 623.777042 
L 943.150983 622.209761 
L 945.202228 613.169496 
L 947.253473 618.464695 
L 949.304719 616.569719 
L 951.355964 617.206466 
L 953.407209 614.653123 
L 955.458454 613.994878 
L 957.509699 614.516224 
L 959.560945 613.169496 
L 965.71468 613.169496 
L 967.765925 618.6459 
L 969.81717 619.610134 
L 971.868416 613.169496 
L 973.919661 623.974889 
L 975.970906 625.598209 
L 978.022151 626.97907 
L 980.073396 628.066947 
L 982.124642 628.34196 
L 984.175887 630.051643 
L 986.227132 628.673359 
L 988.278377 627.860903 
L 990.329622 627.374653 
L 994.432113 623.995996 
L 996.483358 624.996662 
L 998.534603 623.630951 
L 1000.585848 624.89821 
L 1002.637094 623.95351 
L 1004.688339 622.098192 
L 1006.739584 621.576979 
L 1008.790829 620.66792 
L 1010.842074 618.625913 
L 1012.893319 617.354202 
L 1014.944565 611.928065 
L 1016.99581 609.777227 
L 1019.047055 608.643226 
L 1021.0983 606.52955 
L 1023.149545 604.085565 
L 1023.149545 604.085565 
" clip-path="url(#pebd092a20b)" style="fill: none; stroke: #1f77b4; stroke-width: 1.5; stroke-linecap: square"/>
   </g>
   <g id="patch_13">
    <path d="M 56.09 678.04 
L 56.09 499.68 
" style="fill: none; stroke: #000000; stroke-width: 0.8; stroke-linejoin: miter; stroke-linecap: square"/>
   </g>
   <g id="patch_14">
    <path d="M 1069.2 678.04 
L 1069.2 499.68 
" style="fill: none; stroke: #000000; stroke-width: 0.8; stroke-linejoin: miter; stroke-linecap: square"/>
   </g>
   <g id="patch_15">
    <path d="M 56.09 678.04 
L 1069.2 678.04 
" style="fill: none; stroke: #000000; stroke-width: 0.8; stroke-linejoin: miter; stroke-linecap: square"/>
   </g>
   <g id="patch_16">
    <path d="M 56.09 499.68 
L 1069.2 499.68 
" style="fill: none; stroke: #000000; stroke-width: 0.8; stroke-linejoin: miter; stroke-linecap: square"/>
   </g>
   <g id="text_48">
    <!-- Generated Signal 3 -->
    <g transform="translate(504.750625 493.68) scale(0.12 -0.12)">
     <use xlink:href="#DejaVuSans-47"/>
     <use xlink:href="#DejaVuSans-65" transform="translate(77.490234 0)"/>
     <use xlink:href="#DejaVuSans-6e" transform="translate(139.013672 0)"/>
     <use xlink:href="#DejaVuSans-65" transform="translate(202.392578 0)"/>
     <use xlink:href="#DejaVuSans-72" transform="translate(263.916016 0)"/>
     <use xlink:href="#DejaVuSans-61" transform="translate(305.029297 0)"/>
     <use xlink:href="#DejaVuSans-74" transform="translate(366.308594 0)"/>
     <use xlink:href="#DejaVuSans-65" transform="translate(405.517578 0)"/>
     <use xlink:href="#DejaVuSans-64" transform="translate(467.041016 0)"/>
     <use xlink:href="#DejaVuSans-20" transform="translate(530.517578 0)"/>
     <use xlink:href="#DejaVuSans-53" transform="translate(562.304688 0)"/>
     <use xlink:href="#DejaVuSans-69" transform="translate(625.78125 0)"/>
     <use xlink:href="#DejaVuSans-67" transform="translate(653.564453 0)"/>
     <use xlink:href="#DejaVuSans-6e" transform="translate(717.041016 0)"/>
     <use xlink:href="#DejaVuSans-61" transform="translate(780.419922 0)"/>
     <use xlink:href="#DejaVuSans-6c" transform="translate(841.699219 0)"/>
     <use xlink:href="#DejaVuSans-20" transform="translate(869.482422 0)"/>
     <use xlink:href="#DejaVuSans-33" transform="translate(901.269531 0)"/>
    </g>
   </g>
  </g>
 </g>
 <defs>
  <clipPath id="p87edf6ab25">
   <rect x="56.09" y="26.88" width="1013.11" height="178.36"/>
  </clipPath>
  <clipPath id="p1cb2a0a4bf">
   <rect x="56.09" y="263.28" width="1013.11" height="178.36"/>
  </clipPath>
  <clipPath id="pebd092a20b">
   <rect x="56.09" y="499.68" width="1013.11" height="178.36"/>
  </clipPath>
 </defs>
</svg>
