<?xml version="1.0" encoding="UTF-8" standalone="no"?>
<!DOCTYPE svg PUBLIC "-//W3C//DTD SVG 1.1//EN"
 "http://www.w3.org/Graphics/SVG/1.1/DTD/svg11.dtd">
<!-- Generated by graphviz version 12.2.1 (20241206.2353)
 -->
<!-- Pages: 1 -->
<svg width="242pt" height="98pt"
 viewBox="0.00 0.00 242.00 98.00" xmlns="http://www.w3.org/2000/svg" xmlns:xlink="http://www.w3.org/1999/xlink">
<g id="graph0" class="graph" transform="scale(1 1) rotate(0) translate(4 94)">
<polygon fill="white" stroke="none" points="-4,4 -4,-94 238,-94 238,4 -4,4"/>
<!-- A -->
<g id="node1" class="node">
<title>A</title>
<ellipse fill="none" stroke="black" cx="27" cy="-72" rx="27" ry="18"/>
<text text-anchor="middle" x="27" y="-66.95" font-family="Times,serif" font-size="14.00">A</text>
</g>
<!-- B -->
<g id="node2" class="node">
<title>B</title>
<ellipse fill="none" stroke="black" cx="117" cy="-45" rx="27" ry="18"/>
<text text-anchor="middle" x="117" y="-39.95" font-family="Times,serif" font-size="14.00">B</text>
</g>
<!-- A&#45;&gt;B -->
<g id="edge1" class="edge">
<title>A&#45;&gt;B</title>
<path fill="none" stroke="black" d="M52.05,-64.62C60.97,-61.88 71.29,-58.72 80.99,-55.74"/>
<polygon fill="black" stroke="black" points="82,-59.09 90.54,-52.81 79.95,-52.4 82,-59.09"/>
</g>
<!-- D -->
<g id="node4" class="node">
<title>D</title>
<ellipse fill="none" stroke="black" cx="207" cy="-45" rx="27" ry="18"/>
<text text-anchor="middle" x="207" y="-39.95" font-family="Times,serif" font-size="14.00">D</text>
</g>
<!-- B&#45;&gt;D -->
<g id="edge3" class="edge">
<title>B&#45;&gt;D</title>
<path fill="none" stroke="black" d="M144.4,-45C151.89,-45 160.18,-45 168.2,-45"/>
<polygon fill="black" stroke="black" points="168.1,-48.5 178.1,-45 168.1,-41.5 168.1,-48.5"/>
</g>
<!-- C -->
<g id="node3" class="node">
<title>C</title>
<ellipse fill="none" stroke="black" cx="27" cy="-18" rx="27" ry="18"/>
<text text-anchor="middle" x="27" y="-12.95" font-family="Times,serif" font-size="14.00">C</text>
</g>
<!-- C&#45;&gt;B -->
<g id="edge2" class="edge">
<title>C&#45;&gt;B</title>
<path fill="none" stroke="black" d="M52.05,-25.38C60.97,-28.12 71.29,-31.28 80.99,-34.26"/>
<polygon fill="black" stroke="black" points="79.95,-37.6 90.54,-37.19 82,-30.91 79.95,-37.6"/>
</g>
</g>
</svg>
