<?xml version="1.0" encoding="UTF-8" standalone="no"?>
<!DOCTYPE svg PUBLIC "-//W3C//DTD SVG 1.1//EN"
 "http://www.w3.org/Graphics/SVG/1.1/DTD/svg11.dtd">
<!-- Generated by graphviz version 12.2.1 (20241206.2353)
 -->
<!-- Pages: 1 -->
<svg width="729pt" height="154pt"
 viewBox="0.00 0.00 728.50 154.00" xmlns="http://www.w3.org/2000/svg" xmlns:xlink="http://www.w3.org/1999/xlink">
<g id="graph0" class="graph" transform="scale(1 1) rotate(0) translate(4 150)">
<polygon fill="white" stroke="none" points="-4,4 -4,-150 724.5,-150 724.5,4 -4,4"/>
<!-- 4353280576 -->
<g id="node1" class="node">
<title>4353280576</title>
<polygon fill="none" stroke="black" points="433,-109.5 433,-145.5 518.25,-145.5 518.25,-109.5 433,-109.5"/>
<text text-anchor="middle" x="459" y="-122.7" font-family="Times,serif" font-size="14.00">d: &#45;2.0</text>
<polyline fill="none" stroke="black" points="485,-110 485,-145.5"/>
<text text-anchor="middle" x="501.62" y="-122.7" font-family="Times,serif" font-size="14.00">4.0</text>
</g>
<!-- 4357539744* -->
<g id="node8" class="node">
<title>4357539744*</title>
<ellipse fill="none" stroke="black" cx="581.25" cy="-99.5" rx="27" ry="18"/>
<text text-anchor="middle" x="581.25" y="-94.45" font-family="Times,serif" font-size="14.00">*</text>
</g>
<!-- 4353280576&#45;&gt;4357539744* -->
<g id="edge7" class="edge">
<title>4353280576&#45;&gt;4357539744*</title>
<path fill="none" stroke="black" d="M518.47,-116.19C527.2,-113.83 536.32,-111.37 544.79,-109.08"/>
<polygon fill="black" stroke="black" points="545.64,-112.48 554.38,-106.49 543.81,-105.72 545.64,-112.48"/>
</g>
<!-- 4355505280 -->
<g id="node2" class="node">
<title>4355505280</title>
<polygon fill="none" stroke="black" points="0,-55.5 0,-91.5 89.75,-91.5 89.75,-55.5 0,-55.5"/>
<text text-anchor="middle" x="26" y="-68.7" font-family="Times,serif" font-size="14.00">b: &#45;3.0</text>
<polyline fill="none" stroke="black" points="52,-56 52,-91.5"/>
<text text-anchor="middle" x="70.88" y="-68.7" font-family="Times,serif" font-size="14.00">&#45;4.0</text>
</g>
<!-- 4353283552* -->
<g id="node10" class="node">
<title>4353283552*</title>
<ellipse fill="none" stroke="black" cx="152.75" cy="-45.5" rx="27" ry="18"/>
<text text-anchor="middle" x="152.75" y="-40.45" font-family="Times,serif" font-size="14.00">*</text>
</g>
<!-- 4355505280&#45;&gt;4353283552* -->
<g id="edge9" class="edge">
<title>4355505280&#45;&gt;4353283552*</title>
<path fill="none" stroke="black" d="M90.16,-61.79C98.89,-59.48 107.94,-57.09 116.32,-54.87"/>
<polygon fill="black" stroke="black" points="117.02,-58.3 125.8,-52.36 115.23,-51.54 117.02,-58.3"/>
</g>
<!-- 4357539504 -->
<g id="node3" class="node">
<title>4357539504</title>
<polygon fill="none" stroke="black" points="434.12,-54.5 434.12,-90.5 517.12,-90.5 517.12,-54.5 434.12,-54.5"/>
<text text-anchor="middle" x="456.75" y="-67.7" font-family="Times,serif" font-size="14.00">f: 4.0</text>
<polyline fill="none" stroke="black" points="479.38,-55 479.38,-90.5"/>
<text text-anchor="middle" x="498.25" y="-67.7" font-family="Times,serif" font-size="14.00">&#45;2.0</text>
</g>
<!-- 4357539504&#45;&gt;4357539744* -->
<g id="edge4" class="edge">
<title>4357539504&#45;&gt;4357539744*</title>
<path fill="none" stroke="black" d="M517.58,-83.17C526.55,-85.51 535.97,-87.96 544.71,-90.24"/>
<polygon fill="black" stroke="black" points="543.68,-93.59 554.24,-92.72 545.44,-86.81 543.68,-93.59"/>
</g>
<!-- 4357539504+ -->
<g id="node4" class="node">
<title>4357539504+</title>
<ellipse fill="none" stroke="black" cx="370" cy="-72.5" rx="27" ry="18"/>
<text text-anchor="middle" x="370" y="-67.45" font-family="Times,serif" font-size="14.00">+</text>
</g>
<!-- 4357539504+&#45;&gt;4357539504 -->
<g id="edge1" class="edge">
<title>4357539504+&#45;&gt;4357539504</title>
<path fill="none" stroke="black" d="M397.42,-72.5C405.09,-72.5 413.75,-72.5 422.42,-72.5"/>
<polygon fill="black" stroke="black" points="422.24,-76 432.24,-72.5 422.24,-69 422.24,-76"/>
</g>
<!-- 4353280336 -->
<g id="node5" class="node">
<title>4353280336</title>
<polygon fill="none" stroke="black" points="215.75,-82.5 215.75,-118.5 307,-118.5 307,-82.5 215.75,-82.5"/>
<text text-anchor="middle" x="242.5" y="-95.7" font-family="Times,serif" font-size="14.00">c: 10.0</text>
<polyline fill="none" stroke="black" points="269.25,-83 269.25,-118.5"/>
<text text-anchor="middle" x="288.12" y="-95.7" font-family="Times,serif" font-size="14.00">&#45;2.0</text>
</g>
<!-- 4353280336&#45;&gt;4357539504+ -->
<g id="edge8" class="edge">
<title>4353280336&#45;&gt;4357539504+</title>
<path fill="none" stroke="black" d="M307.28,-88.71C316.05,-86.4 325.12,-84.02 333.53,-81.81"/>
<polygon fill="black" stroke="black" points="334.24,-85.25 343.02,-79.32 332.46,-78.48 334.24,-85.25"/>
</g>
<!-- 4353740672 -->
<g id="node6" class="node">
<title>4353740672</title>
<polygon fill="none" stroke="black" points="4.88,-0.5 4.88,-36.5 84.88,-36.5 84.88,-0.5 4.88,-0.5"/>
<text text-anchor="middle" x="28.25" y="-13.7" font-family="Times,serif" font-size="14.00">a: 2.0</text>
<polyline fill="none" stroke="black" points="51.62,-1 51.62,-36.5"/>
<text text-anchor="middle" x="68.25" y="-13.7" font-family="Times,serif" font-size="14.00">6.0</text>
</g>
<!-- 4353740672&#45;&gt;4353283552* -->
<g id="edge6" class="edge">
<title>4353740672&#45;&gt;4353283552*</title>
<path fill="none" stroke="black" d="M85.3,-28.55C95.36,-31.12 106.11,-33.86 115.97,-36.38"/>
<polygon fill="black" stroke="black" points="115.03,-39.75 125.58,-38.83 116.76,-32.96 115.03,-39.75"/>
</g>
<!-- 4357539744 -->
<g id="node7" class="node">
<title>4357539744</title>
<polygon fill="none" stroke="black" points="644.25,-81.5 644.25,-117.5 720.5,-117.5 720.5,-81.5 644.25,-81.5"/>
<text text-anchor="middle" x="671" y="-94.7" font-family="Times,serif" font-size="14.00">L: &#45;8.0</text>
<polyline fill="none" stroke="black" points="697.75,-82 697.75,-117.5"/>
<text text-anchor="middle" x="709.12" y="-94.7" font-family="Times,serif" font-size="14.00">1</text>
</g>
<!-- 4357539744*&#45;&gt;4357539744 -->
<g id="edge2" class="edge">
<title>4357539744*&#45;&gt;4357539744</title>
<path fill="none" stroke="black" d="M608.55,-99.5C615.88,-99.5 624.09,-99.5 632.28,-99.5"/>
<polygon fill="black" stroke="black" points="632.24,-103 642.24,-99.5 632.24,-96 632.24,-103"/>
</g>
<!-- 4353283552 -->
<g id="node9" class="node">
<title>4353283552</title>
<polygon fill="none" stroke="black" points="216.88,-27.5 216.88,-63.5 305.88,-63.5 305.88,-27.5 216.88,-27.5"/>
<text text-anchor="middle" x="242.5" y="-40.7" font-family="Times,serif" font-size="14.00">e: &#45;6.0</text>
<polyline fill="none" stroke="black" points="268.12,-28 268.12,-63.5"/>
<text text-anchor="middle" x="287" y="-40.7" font-family="Times,serif" font-size="14.00">&#45;2.0</text>
</g>
<!-- 4353283552&#45;&gt;4357539504+ -->
<g id="edge5" class="edge">
<title>4353283552&#45;&gt;4357539504+</title>
<path fill="none" stroke="black" d="M306.36,-56.64C315.37,-58.92 324.76,-61.3 333.43,-63.49"/>
<polygon fill="black" stroke="black" points="332.31,-66.82 342.87,-65.88 334.03,-60.03 332.31,-66.82"/>
</g>
<!-- 4353283552*&#45;&gt;4353283552 -->
<g id="edge3" class="edge">
<title>4353283552*&#45;&gt;4353283552</title>
<path fill="none" stroke="black" d="M180.11,-45.5C187.74,-45.5 196.37,-45.5 205.08,-45.5"/>
<polygon fill="black" stroke="black" points="204.97,-49 214.97,-45.5 204.97,-42 204.97,-49"/>
</g>
</g>
</svg>
