<?xml version="1.0" encoding="UTF-8" standalone="no"?>
<!DOCTYPE svg PUBLIC "-//W3C//DTD SVG 1.1//EN"
 "http://www.w3.org/Graphics/SVG/1.1/DTD/svg11.dtd">
<!-- Generated by graphviz version 12.2.1 (20241206.2353)
 -->
<!-- Pages: 1 -->
<svg width="602pt" height="154pt"
 viewBox="0.00 0.00 602.00 154.00" xmlns="http://www.w3.org/2000/svg" xmlns:xlink="http://www.w3.org/1999/xlink">
<g id="graph0" class="graph" transform="scale(1 1) rotate(0) translate(4 150)">
<polygon fill="white" stroke="none" points="-4,4 -4,-150 598,-150 598,4 -4,4"/>
<!-- 4414265376 -->
<g id="node1" class="node">
<title>4414265376</title>
<polygon fill="none" stroke="black" points="360,-54.5 360,-90.5 414,-90.5 414,-54.5 360,-54.5"/>
<text text-anchor="middle" x="386.62" y="-67.7" font-family="Times,serif" font-size="14.00">f: 4.0</text>
</g>
<!-- 4414264608* -->
<g id="node7" class="node">
<title>4414264608*</title>
<ellipse fill="none" stroke="black" cx="477" cy="-99.5" rx="27" ry="18"/>
<text text-anchor="middle" x="477" y="-94.45" font-family="Times,serif" font-size="14.00">*</text>
</g>
<!-- 4414265376&#45;&gt;4414264608* -->
<g id="edge7" class="edge">
<title>4414265376&#45;&gt;4414264608*</title>
<path fill="none" stroke="black" d="M414.4,-80.6C422.8,-83.18 432.23,-86.07 441.13,-88.8"/>
<polygon fill="black" stroke="black" points="439.98,-92.11 450.57,-91.7 442.03,-85.42 439.98,-92.11"/>
</g>
<!-- 4414265376+ -->
<g id="node2" class="node">
<title>4414265376+</title>
<ellipse fill="none" stroke="black" cx="297" cy="-72.5" rx="27" ry="18"/>
<text text-anchor="middle" x="297" y="-67.45" font-family="Times,serif" font-size="14.00">+</text>
</g>
<!-- 4414265376+&#45;&gt;4414265376 -->
<g id="edge1" class="edge">
<title>4414265376+&#45;&gt;4414265376</title>
<path fill="none" stroke="black" d="M324.4,-72.5C331.89,-72.5 340.18,-72.5 348.2,-72.5"/>
<polygon fill="black" stroke="black" points="348.1,-76 358.1,-72.5 348.1,-69 348.1,-76"/>
</g>
<!-- 4414266912 -->
<g id="node3" class="node">
<title>4414266912</title>
<polygon fill="none" stroke="black" points="180,-82.5 180,-118.5 234,-118.5 234,-82.5 180,-82.5"/>
<text text-anchor="middle" x="206.75" y="-95.7" font-family="Times,serif" font-size="14.00">c: 10.0</text>
</g>
<!-- 4414266912&#45;&gt;4414265376+ -->
<g id="edge5" class="edge">
<title>4414266912&#45;&gt;4414265376+</title>
<path fill="none" stroke="black" d="M234.4,-92.1C242.8,-89.43 252.23,-86.43 261.13,-83.59"/>
<polygon fill="black" stroke="black" points="262.11,-86.96 270.57,-80.59 259.98,-80.29 262.11,-86.96"/>
</g>
<!-- 4414266960 -->
<g id="node4" class="node">
<title>4414266960</title>
<polygon fill="none" stroke="black" points="0,-55.5 0,-91.5 54,-91.5 54,-55.5 0,-55.5"/>
<text text-anchor="middle" x="27" y="-68.7" font-family="Times,serif" font-size="14.00">b: &#45;3.0</text>
</g>
<!-- 4414266240* -->
<g id="node10" class="node">
<title>4414266240*</title>
<ellipse fill="none" stroke="black" cx="117" cy="-45.5" rx="27" ry="18"/>
<text text-anchor="middle" x="117" y="-40.45" font-family="Times,serif" font-size="14.00">*</text>
</g>
<!-- 4414266960&#45;&gt;4414266240* -->
<g id="edge9" class="edge">
<title>4414266960&#45;&gt;4414266240*</title>
<path fill="none" stroke="black" d="M54.4,-65.1C62.8,-62.43 72.23,-59.43 81.13,-56.59"/>
<polygon fill="black" stroke="black" points="82.11,-59.96 90.57,-53.59 79.98,-53.29 82.11,-59.96"/>
</g>
<!-- 4413840640 -->
<g id="node5" class="node">
<title>4413840640</title>
<polygon fill="none" stroke="black" points="0,-0.5 0,-36.5 54,-36.5 54,-0.5 0,-0.5"/>
<text text-anchor="middle" x="26.88" y="-13.7" font-family="Times,serif" font-size="14.00">a: 2.0</text>
</g>
<!-- 4413840640&#45;&gt;4414266240* -->
<g id="edge6" class="edge">
<title>4413840640&#45;&gt;4414266240*</title>
<path fill="none" stroke="black" d="M54.4,-26.6C62.8,-29.18 72.23,-32.07 81.13,-34.8"/>
<polygon fill="black" stroke="black" points="79.98,-38.11 90.57,-37.7 82.03,-31.42 79.98,-38.11"/>
</g>
<!-- 4414264608 -->
<g id="node6" class="node">
<title>4414264608</title>
<polygon fill="none" stroke="black" points="540,-81.5 540,-117.5 594,-117.5 594,-81.5 540,-81.5"/>
<text text-anchor="middle" x="566.75" y="-94.7" font-family="Times,serif" font-size="14.00">L: &#45;8.0</text>
</g>
<!-- 4414264608*&#45;&gt;4414264608 -->
<g id="edge2" class="edge">
<title>4414264608*&#45;&gt;4414264608</title>
<path fill="none" stroke="black" d="M504.4,-99.5C511.89,-99.5 520.18,-99.5 528.2,-99.5"/>
<polygon fill="black" stroke="black" points="528.1,-103 538.1,-99.5 528.1,-96 528.1,-103"/>
</g>
<!-- 4414266192 -->
<g id="node8" class="node">
<title>4414266192</title>
<polygon fill="none" stroke="black" points="360,-109.5 360,-145.5 414,-145.5 414,-109.5 360,-109.5"/>
<text text-anchor="middle" x="387" y="-122.7" font-family="Times,serif" font-size="14.00">d: &#45;2.0</text>
</g>
<!-- 4414266192&#45;&gt;4414264608* -->
<g id="edge4" class="edge">
<title>4414266192&#45;&gt;4414264608*</title>
<path fill="none" stroke="black" d="M414.4,-119.1C422.8,-116.43 432.23,-113.43 441.13,-110.59"/>
<polygon fill="black" stroke="black" points="442.11,-113.96 450.57,-107.59 439.98,-107.29 442.11,-113.96"/>
</g>
<!-- 4414266240 -->
<g id="node9" class="node">
<title>4414266240</title>
<polygon fill="none" stroke="black" points="180,-27.5 180,-63.5 234,-63.5 234,-27.5 180,-27.5"/>
<text text-anchor="middle" x="206.62" y="-40.7" font-family="Times,serif" font-size="14.00">e: &#45;6.0</text>
</g>
<!-- 4414266240&#45;&gt;4414265376+ -->
<g id="edge8" class="edge">
<title>4414266240&#45;&gt;4414265376+</title>
<path fill="none" stroke="black" d="M234.4,-53.6C242.8,-56.18 252.23,-59.07 261.13,-61.8"/>
<polygon fill="black" stroke="black" points="259.98,-65.11 270.57,-64.7 262.03,-58.42 259.98,-65.11"/>
</g>
<!-- 4414266240*&#45;&gt;4414266240 -->
<g id="edge3" class="edge">
<title>4414266240*&#45;&gt;4414266240</title>
<path fill="none" stroke="black" d="M144.4,-45.5C151.89,-45.5 160.18,-45.5 168.2,-45.5"/>
<polygon fill="black" stroke="black" points="168.1,-49 178.1,-45.5 168.1,-42 168.1,-49"/>
</g>
</g>
</svg>
