<?xml version="1.0" encoding="UTF-8" standalone="no"?>
<!DOCTYPE svg PUBLIC "-//W3C//DTD SVG 1.1//EN"
 "http://www.w3.org/Graphics/SVG/1.1/DTD/svg11.dtd">
<!-- Generated by graphviz version 12.2.1 (20241206.2353)
 -->
<!-- Pages: 1 -->
<svg width="308pt" height="224pt"
 viewBox="0.00 0.00 307.50 224.00" xmlns="http://www.w3.org/2000/svg" xmlns:xlink="http://www.w3.org/1999/xlink">
<g id="graph0" class="graph" transform="scale(1 1) rotate(0) translate(4 220)">
<polygon fill="white" stroke="none" points="-4,4 -4,-220 303.5,-220 303.5,4 -4,4"/>
<!-- data -->
<g id="node1" class="node">
<title>data</title>
<ellipse fill="none" stroke="black" cx="36" cy="-108" rx="36" ry="36"/>
<text text-anchor="middle" x="36" y="-111.2" font-family="Times,serif" font-size="14.00">podatki</text>
<text text-anchor="middle" x="36" y="-94.7" font-family="Times,serif" font-size="14.00"> X, y</text>
</g>
<!-- optimization -->
<g id="node3" class="node">
<title>optimization</title>
<polygon fill="none" stroke="black" points="191.5,-126 108,-126 108,-90 191.5,-90 191.5,-126"/>
<text text-anchor="middle" x="149.75" y="-102.95" font-family="Times,serif" font-size="14.00">optimizacija</text>
</g>
<!-- data&#45;&gt;optimization -->
<g id="edge1" class="edge">
<title>data&#45;&gt;optimization</title>
<path fill="none" stroke="black" d="M72.36,-108C80.01,-108 88.25,-108 96.4,-108"/>
<polygon fill="black" stroke="black" points="96.26,-111.5 106.26,-108 96.26,-104.5 96.26,-111.5"/>
</g>
<!-- model -->
<g id="node2" class="node">
<title>model</title>
<ellipse fill="none" stroke="black" cx="149.75" cy="-180" rx="36" ry="36"/>
<text text-anchor="middle" x="149.75" y="-183.2" font-family="Times,serif" font-size="14.00">struktura</text>
<text text-anchor="middle" x="149.75" y="-166.7" font-family="Times,serif" font-size="14.00">modela</text>
</g>
<!-- model&#45;&gt;optimization -->
<g id="edge2" class="edge">
<title>model&#45;&gt;optimization</title>
<path fill="none" stroke="black" d="M149.75,-143.91C149.75,-141.8 149.75,-139.68 149.75,-137.57"/>
<polygon fill="black" stroke="black" points="153.25,-137.79 149.75,-127.79 146.25,-137.79 153.25,-137.79"/>
</g>
<!-- parameters -->
<g id="node4" class="node">
<title>parameters</title>
<ellipse fill="lightblue" stroke="black" cx="149.75" cy="-36" rx="36" ry="36"/>
<text text-anchor="middle" x="149.75" y="-47.45" font-family="Times,serif" font-size="14.00">parametri</text>
<text text-anchor="middle" x="149.75" y="-30.95" font-family="Times,serif" font-size="14.00"> modela</text>
<text text-anchor="middle" x="149.75" y="-14.45" font-family="Times,serif" font-size="14.00">Θ*</text>
</g>
<!-- optimization&#45;&gt;parameters -->
<g id="edge4" class="edge">
<title>optimization&#45;&gt;parameters</title>
<path fill="none" stroke="black" d="M149.75,-89.58C149.75,-87.6 149.75,-85.62 149.75,-83.64"/>
<polygon fill="black" stroke="black" points="153.25,-83.79 149.75,-73.79 146.25,-83.79 153.25,-83.79"/>
</g>
<!-- criterion -->
<g id="node5" class="node">
<title>criterion</title>
<ellipse fill="none" stroke="black" cx="263.5" cy="-108" rx="36" ry="36"/>
<text text-anchor="middle" x="263.5" y="-119.45" font-family="Times,serif" font-size="14.00">kriterijska</text>
<text text-anchor="middle" x="263.5" y="-102.95" font-family="Times,serif" font-size="14.00">funkcija</text>
<text text-anchor="middle" x="263.5" y="-86.45" font-family="Times,serif" font-size="14.00"> L(Θ)</text>
</g>
<!-- criterion&#45;&gt;optimization -->
<g id="edge3" class="edge">
<title>criterion&#45;&gt;optimization</title>
<path fill="none" stroke="black" d="M227.05,-108C219.42,-108 211.2,-108 203.07,-108"/>
<polygon fill="black" stroke="black" points="203.24,-104.5 193.24,-108 203.24,-111.5 203.24,-104.5"/>
</g>
</g>
</svg>
