<?xml version="1.0" encoding="UTF-8" standalone="no"?>
<!DOCTYPE svg PUBLIC "-//W3C//DTD SVG 1.1//EN"
 "http://www.w3.org/Graphics/SVG/1.1/DTD/svg11.dtd">
<!-- Generated by graphviz version 12.2.1 (20241206.2353)
 -->
<!-- Pages: 1 -->
<svg width="260pt" height="314pt"
 viewBox="0.00 0.00 260.00 314.00" xmlns="http://www.w3.org/2000/svg" xmlns:xlink="http://www.w3.org/1999/xlink">
<g id="graph0" class="graph" transform="scale(1 1) rotate(0) translate(4 310)">
<polygon fill="white" stroke="none" points="-4,4 -4,-310 256,-310 256,4 -4,4"/>
<!-- input_0 -->
<g id="node1" class="node">
<title>input_0</title>
<ellipse fill="none" stroke="black" cx="18" cy="-180" rx="18" ry="18"/>
<text text-anchor="middle" x="18" y="-174.95" font-family="Times,serif" font-size="14.00">x1</text>
</g>
<!-- layer0_neuron0 -->
<g id="node3" class="node">
<title>layer0_neuron0</title>
<ellipse fill="none" stroke="black" cx="90" cy="-288" rx="18" ry="18"/>
<text text-anchor="middle" x="90" y="-282.95" font-family="Times,serif" font-size="14.00">a00</text>
</g>
<!-- input_0&#45;&gt;layer0_neuron0 -->
<g id="edge1" class="edge">
<title>input_0&#45;&gt;layer0_neuron0</title>
<path fill="none" stroke="black" d="M28.73,-195.02C40.23,-212.75 59.5,-242.49 73.16,-263.56"/>
<polygon fill="black" stroke="black" points="70.15,-265.35 78.53,-271.84 76.02,-261.55 70.15,-265.35"/>
</g>
<!-- layer0_neuron1 -->
<g id="node4" class="node">
<title>layer0_neuron1</title>
<ellipse fill="none" stroke="black" cx="90" cy="-234" rx="18" ry="18"/>
<text text-anchor="middle" x="90" y="-228.95" font-family="Times,serif" font-size="14.00">a01</text>
</g>
<!-- input_0&#45;&gt;layer0_neuron1 -->
<g id="edge3" class="edge">
<title>input_0&#45;&gt;layer0_neuron1</title>
<path fill="none" stroke="black" d="M32.83,-190.67C42.32,-197.99 55.14,-207.88 66.14,-216.36"/>
<polygon fill="black" stroke="black" points="63.94,-219.09 74,-222.43 68.22,-213.55 63.94,-219.09"/>
</g>
<!-- layer0_neuron2 -->
<g id="node5" class="node">
<title>layer0_neuron2</title>
<ellipse fill="none" stroke="black" cx="90" cy="-180" rx="18" ry="18"/>
<text text-anchor="middle" x="90" y="-174.95" font-family="Times,serif" font-size="14.00">a02</text>
</g>
<!-- input_0&#45;&gt;layer0_neuron2 -->
<g id="edge5" class="edge">
<title>input_0&#45;&gt;layer0_neuron2</title>
<path fill="none" stroke="black" d="M36.3,-180C43.59,-180 52.27,-180 60.46,-180"/>
<polygon fill="black" stroke="black" points="60.38,-183.5 70.38,-180 60.38,-176.5 60.38,-183.5"/>
</g>
<!-- layer0_neuron3 -->
<g id="node6" class="node">
<title>layer0_neuron3</title>
<ellipse fill="none" stroke="black" cx="90" cy="-126" rx="18" ry="18"/>
<text text-anchor="middle" x="90" y="-120.95" font-family="Times,serif" font-size="14.00">a03</text>
</g>
<!-- input_0&#45;&gt;layer0_neuron3 -->
<g id="edge7" class="edge">
<title>input_0&#45;&gt;layer0_neuron3</title>
<path fill="none" stroke="black" d="M32.83,-169.33C42.32,-162.01 55.14,-152.12 66.14,-143.64"/>
<polygon fill="black" stroke="black" points="68.22,-146.45 74,-137.57 63.94,-140.91 68.22,-146.45"/>
</g>
<!-- layer0_neuron4 -->
<g id="node7" class="node">
<title>layer0_neuron4</title>
<ellipse fill="none" stroke="black" cx="90" cy="-72" rx="18" ry="18"/>
<text text-anchor="middle" x="90" y="-66.95" font-family="Times,serif" font-size="14.00">a04</text>
</g>
<!-- input_0&#45;&gt;layer0_neuron4 -->
<g id="edge9" class="edge">
<title>input_0&#45;&gt;layer0_neuron4</title>
<path fill="none" stroke="black" d="M28.73,-164.98C40.23,-147.25 59.5,-117.51 73.16,-96.44"/>
<polygon fill="black" stroke="black" points="76.02,-98.45 78.53,-88.16 70.15,-94.65 76.02,-98.45"/>
</g>
<!-- layer0_neuron5 -->
<g id="node8" class="node">
<title>layer0_neuron5</title>
<ellipse fill="none" stroke="black" cx="90" cy="-18" rx="18" ry="18"/>
<text text-anchor="middle" x="90" y="-12.95" font-family="Times,serif" font-size="14.00">a05</text>
</g>
<!-- input_0&#45;&gt;layer0_neuron5 -->
<g id="edge11" class="edge">
<title>input_0&#45;&gt;layer0_neuron5</title>
<path fill="none" stroke="black" d="M29.02,-165.51C31.5,-161.56 34.01,-157.21 36,-153 57.64,-107.26 50.36,-90.74 72,-45 72.44,-44.08 72.9,-43.15 73.38,-42.22"/>
<polygon fill="black" stroke="black" points="76.27,-44.21 78.23,-33.8 70.2,-40.72 76.27,-44.21"/>
</g>
<!-- input_1 -->
<g id="node2" class="node">
<title>input_1</title>
<ellipse fill="none" stroke="black" cx="18" cy="-126" rx="18" ry="18"/>
<text text-anchor="middle" x="18" y="-120.95" font-family="Times,serif" font-size="14.00">x2</text>
</g>
<!-- input_1&#45;&gt;layer0_neuron0 -->
<g id="edge2" class="edge">
<title>input_1&#45;&gt;layer0_neuron0</title>
<path fill="none" stroke="black" d="M29.02,-140.49C31.5,-144.44 34.01,-148.79 36,-153 57.64,-198.74 50.36,-215.26 72,-261 72.44,-261.92 72.9,-262.85 73.38,-263.78"/>
<polygon fill="black" stroke="black" points="70.2,-265.28 78.23,-272.2 76.27,-261.79 70.2,-265.28"/>
</g>
<!-- input_1&#45;&gt;layer0_neuron1 -->
<g id="edge4" class="edge">
<title>input_1&#45;&gt;layer0_neuron1</title>
<path fill="none" stroke="black" d="M28.73,-141.02C40.23,-158.75 59.5,-188.49 73.16,-209.56"/>
<polygon fill="black" stroke="black" points="70.15,-211.35 78.53,-217.84 76.02,-207.55 70.15,-211.35"/>
</g>
<!-- input_1&#45;&gt;layer0_neuron2 -->
<g id="edge6" class="edge">
<title>input_1&#45;&gt;layer0_neuron2</title>
<path fill="none" stroke="black" d="M32.83,-136.67C42.32,-143.99 55.14,-153.88 66.14,-162.36"/>
<polygon fill="black" stroke="black" points="63.94,-165.09 74,-168.43 68.22,-159.55 63.94,-165.09"/>
</g>
<!-- input_1&#45;&gt;layer0_neuron3 -->
<g id="edge8" class="edge">
<title>input_1&#45;&gt;layer0_neuron3</title>
<path fill="none" stroke="black" d="M36.3,-126C43.59,-126 52.27,-126 60.46,-126"/>
<polygon fill="black" stroke="black" points="60.38,-129.5 70.38,-126 60.38,-122.5 60.38,-129.5"/>
</g>
<!-- input_1&#45;&gt;layer0_neuron4 -->
<g id="edge10" class="edge">
<title>input_1&#45;&gt;layer0_neuron4</title>
<path fill="none" stroke="black" d="M32.83,-115.33C42.32,-108.01 55.14,-98.12 66.14,-89.64"/>
<polygon fill="black" stroke="black" points="68.22,-92.45 74,-83.57 63.94,-86.91 68.22,-92.45"/>
</g>
<!-- input_1&#45;&gt;layer0_neuron5 -->
<g id="edge12" class="edge">
<title>input_1&#45;&gt;layer0_neuron5</title>
<path fill="none" stroke="black" d="M28.73,-110.98C40.23,-93.25 59.5,-63.51 73.16,-42.44"/>
<polygon fill="black" stroke="black" points="76.02,-44.45 78.53,-34.16 70.15,-40.65 76.02,-44.45"/>
</g>
<!-- layer1_neuron0 -->
<g id="node9" class="node">
<title>layer1_neuron0</title>
<ellipse fill="none" stroke="black" cx="162" cy="-180" rx="18" ry="18"/>
<text text-anchor="middle" x="162" y="-174.95" font-family="Times,serif" font-size="14.00">a10</text>
</g>
<!-- layer0_neuron0&#45;&gt;layer1_neuron0 -->
<g id="edge13" class="edge">
<title>layer0_neuron0&#45;&gt;layer1_neuron0</title>
<path fill="none" stroke="black" d="M100.73,-272.98C112.23,-255.25 131.5,-225.51 145.16,-204.44"/>
<polygon fill="black" stroke="black" points="148.02,-206.45 150.53,-196.16 142.15,-202.65 148.02,-206.45"/>
</g>
<!-- layer1_neuron1 -->
<g id="node10" class="node">
<title>layer1_neuron1</title>
<ellipse fill="none" stroke="black" cx="162" cy="-126" rx="18" ry="18"/>
<text text-anchor="middle" x="162" y="-120.95" font-family="Times,serif" font-size="14.00">a11</text>
</g>
<!-- layer0_neuron0&#45;&gt;layer1_neuron1 -->
<g id="edge19" class="edge">
<title>layer0_neuron0&#45;&gt;layer1_neuron1</title>
<path fill="none" stroke="black" d="M101.02,-273.51C103.5,-269.56 106.01,-265.21 108,-261 129.64,-215.26 122.36,-198.74 144,-153 144.44,-152.08 144.9,-151.15 145.38,-150.22"/>
<polygon fill="black" stroke="black" points="148.27,-152.21 150.23,-141.8 142.2,-148.72 148.27,-152.21"/>
</g>
<!-- layer0_neuron1&#45;&gt;layer1_neuron0 -->
<g id="edge14" class="edge">
<title>layer0_neuron1&#45;&gt;layer1_neuron0</title>
<path fill="none" stroke="black" d="M104.83,-223.33C114.32,-216.01 127.14,-206.12 138.14,-197.64"/>
<polygon fill="black" stroke="black" points="140.22,-200.45 146,-191.57 135.94,-194.91 140.22,-200.45"/>
</g>
<!-- layer0_neuron1&#45;&gt;layer1_neuron1 -->
<g id="edge20" class="edge">
<title>layer0_neuron1&#45;&gt;layer1_neuron1</title>
<path fill="none" stroke="black" d="M100.73,-218.98C112.23,-201.25 131.5,-171.51 145.16,-150.44"/>
<polygon fill="black" stroke="black" points="148.02,-152.45 150.53,-142.16 142.15,-148.65 148.02,-152.45"/>
</g>
<!-- layer0_neuron2&#45;&gt;layer1_neuron0 -->
<g id="edge15" class="edge">
<title>layer0_neuron2&#45;&gt;layer1_neuron0</title>
<path fill="none" stroke="black" d="M108.3,-180C115.59,-180 124.27,-180 132.46,-180"/>
<polygon fill="black" stroke="black" points="132.38,-183.5 142.38,-180 132.38,-176.5 132.38,-183.5"/>
</g>
<!-- layer0_neuron2&#45;&gt;layer1_neuron1 -->
<g id="edge21" class="edge">
<title>layer0_neuron2&#45;&gt;layer1_neuron1</title>
<path fill="none" stroke="black" d="M104.83,-169.33C114.32,-162.01 127.14,-152.12 138.14,-143.64"/>
<polygon fill="black" stroke="black" points="140.22,-146.45 146,-137.57 135.94,-140.91 140.22,-146.45"/>
</g>
<!-- layer0_neuron3&#45;&gt;layer1_neuron0 -->
<g id="edge16" class="edge">
<title>layer0_neuron3&#45;&gt;layer1_neuron0</title>
<path fill="none" stroke="black" d="M104.83,-136.67C114.32,-143.99 127.14,-153.88 138.14,-162.36"/>
<polygon fill="black" stroke="black" points="135.94,-165.09 146,-168.43 140.22,-159.55 135.94,-165.09"/>
</g>
<!-- layer0_neuron3&#45;&gt;layer1_neuron1 -->
<g id="edge22" class="edge">
<title>layer0_neuron3&#45;&gt;layer1_neuron1</title>
<path fill="none" stroke="black" d="M108.3,-126C115.59,-126 124.27,-126 132.46,-126"/>
<polygon fill="black" stroke="black" points="132.38,-129.5 142.38,-126 132.38,-122.5 132.38,-129.5"/>
</g>
<!-- layer0_neuron4&#45;&gt;layer1_neuron0 -->
<g id="edge17" class="edge">
<title>layer0_neuron4&#45;&gt;layer1_neuron0</title>
<path fill="none" stroke="black" d="M100.73,-87.02C112.23,-104.75 131.5,-134.49 145.16,-155.56"/>
<polygon fill="black" stroke="black" points="142.15,-157.35 150.53,-163.84 148.02,-153.55 142.15,-157.35"/>
</g>
<!-- layer0_neuron4&#45;&gt;layer1_neuron1 -->
<g id="edge23" class="edge">
<title>layer0_neuron4&#45;&gt;layer1_neuron1</title>
<path fill="none" stroke="black" d="M104.83,-82.67C114.32,-89.99 127.14,-99.88 138.14,-108.36"/>
<polygon fill="black" stroke="black" points="135.94,-111.09 146,-114.43 140.22,-105.55 135.94,-111.09"/>
</g>
<!-- layer0_neuron5&#45;&gt;layer1_neuron0 -->
<g id="edge18" class="edge">
<title>layer0_neuron5&#45;&gt;layer1_neuron0</title>
<path fill="none" stroke="black" d="M101.02,-32.49C103.5,-36.44 106.01,-40.79 108,-45 129.64,-90.74 122.36,-107.26 144,-153 144.44,-153.92 144.9,-154.85 145.38,-155.78"/>
<polygon fill="black" stroke="black" points="142.2,-157.28 150.23,-164.2 148.27,-153.79 142.2,-157.28"/>
</g>
<!-- layer0_neuron5&#45;&gt;layer1_neuron1 -->
<g id="edge24" class="edge">
<title>layer0_neuron5&#45;&gt;layer1_neuron1</title>
<path fill="none" stroke="black" d="M100.73,-33.02C112.23,-50.75 131.5,-80.49 145.16,-101.56"/>
<polygon fill="black" stroke="black" points="142.15,-103.35 150.53,-109.84 148.02,-99.55 142.15,-103.35"/>
</g>
<!-- output -->
<g id="node11" class="node">
<title>output</title>
<ellipse fill="none" stroke="black" cx="234" cy="-153" rx="18" ry="18"/>
<text text-anchor="middle" x="234" y="-147.95" font-family="Times,serif" font-size="14.00">y</text>
</g>
<!-- layer1_neuron0&#45;&gt;output -->
<g id="edge25" class="edge">
<title>layer1_neuron0&#45;&gt;output</title>
<path fill="none" stroke="black" d="M179.24,-173.74C187.28,-170.64 197.19,-166.81 206.31,-163.3"/>
<polygon fill="black" stroke="black" points="207.37,-166.64 215.44,-159.77 204.85,-160.11 207.37,-166.64"/>
</g>
<!-- layer1_neuron1&#45;&gt;output -->
<g id="edge26" class="edge">
<title>layer1_neuron1&#45;&gt;output</title>
<path fill="none" stroke="black" d="M179.24,-132.26C187.28,-135.36 197.19,-139.19 206.31,-142.7"/>
<polygon fill="black" stroke="black" points="204.85,-145.89 215.44,-146.23 207.37,-139.36 204.85,-145.89"/>
</g>
</g>
</svg>
